<?xml version="1.0" encoding="utf-8"?>
<!-- Generator: Adobe Illustrator 18.1.1, SVG Export Plug-In . SVG Version: 6.00 Build 0)  -->
<svg version="1.1" id="main" xmlns="http://www.w3.org/2000/svg" xmlns:xlink="http://www.w3.org/1999/xlink" x="0px" y="0px"
	 width="5530.38px" height="3056.69px" viewBox="0 0 5530.38 3056.69" style="enable-background:new 0 0 5530.38 3056.69;"
	 xml:space="preserve">
<style type="text/css">
	.st0{fill:url(#SVGID_1_);}
	.st1{opacity:0.05;fill:#6089EF;}
	.st2{fill:#FFFFFF;}
</style>
<linearGradient id="SVGID_1_" gradientUnits="userSpaceOnUse" x1="2.600830e-005" y1="1528.345" x2="5530.3779" y2="1528.345">
	<stop  offset="0" style="stop-color:#0077E9"/>
	<stop  offset="1" style="stop-color:#002F7F"/>
</linearGradient>
<rect x="0" y="0" class="st0" width="5530.38" height="3056.69"/>
<rect x="4096.14" y="1746.9" class="st1" width="859.51" height="859.51"/>
<rect x="4446.4" y="-776.16" class="st1" width="389" height="389"/>
<rect x="1514.97" y="916.14" class="st1" width="535.17" height="535.17"/>
<rect x="3532.09" y="650.51" class="st1" width="679.06" height="679.06"/>
<rect x="3091.38" y="-417.44" class="st1" width="538.11" height="538.11"/>
<rect x="2511.78" y="474.89" class="st1" width="587.09" height="587.09"/>
<rect x="421.98" y="-581.66" class="st1" width="321.08" height="321.08"/>
<rect x="1882.99" y="-504.18" class="st1" width="392.92" height="392.92"/>
<rect x="2700.18" y="1655.39" class="st1" width="660.26" height="660.26"/>
<rect x="1374.67" y="1860.15" class="st1" width="535.17" height="535.17"/>
<rect x="4525.9" y="-41.44" class="st1" width="538.11" height="538.11"/>
<rect x="634.89" y="887.97" class="st1" width="382.27" height="382.27"/>
<rect x="1350.05" y="120.67" class="st1" width="441.63" height="441.63"/>
<rect x="421.98" y="1794.38" class="st1" width="382.27" height="382.27"/>
<rect x="675.97" y="0" class="st1" width="374.13" height="374.13"/>
<rect x="-160.54" y="-776.16" class="st1" width="321.08" height="321.08"/>
<rect x="-73.28" y="180.94" class="st1" width="321.08" height="321.08"/>
<rect x="-160.54" y="1290.77" class="st1" width="321.08" height="321.08"/>
<rect x="-73.28" y="2351.43" class="st1" width="321.08" height="321.08"/>
<rect x="1150.17" y="-1002.26" class="st1" width="321.08" height="321.08"/>
<rect x="2484.24" y="-1097.24" class="st1" width="321.08" height="321.08"/>
<rect x="3659.45" y="-936.7" class="st1" width="321.08" height="321.08"/>
<rect x="5137.42" y="869.38" class="st1" width="538.11" height="538.11"/>
<rect x="5374.53" y="2315.65" class="st1" width="859.51" height="859.51"/>
<rect x="3129.72" y="2894.83" class="st1" width="660.26" height="660.26"/>
<rect x="1839.54" y="2789.1" class="st1" width="535.17" height="535.17"/>
<rect x="613.11" y="2745.4" class="st1" width="382.27" height="382.27"/>
<g>
</g>
<g>
	<g>
		<path class="st2" d="M-969.11-605.09c1.93,0,1.93-3,0-3C-971.04-608.09-971.05-605.09-969.11-605.09L-969.11-605.09z"/>
	</g>
</g>
<g>
</g>
<g>
</g>
<g>
</g>
<g>
</g>
<g>
</g>
<g>
</g>
<g>
</g>
<g>
</g>
<g>
</g>
<g>
</g>
<g>
</g>
<g>
</g>
<g>
</g>
<g>
</g>
<g>
</g>
</svg>
