<?xml version="1.0" encoding="utf-8"?>
<!-- Generator: Adobe Illustrator 18.1.0, SVG Export Plug-In . SVG Version: 6.00 Build 0)  -->
<svg version="1.1" id="main" xmlns="http://www.w3.org/2000/svg" xmlns:xlink="http://www.w3.org/1999/xlink" x="0px" y="0px"
	 width="5530.38px" height="3955.18px" viewBox="0 0 5530.38 3955.18" style="enable-background:new 0 0 5530.38 3955.18;"
	 xml:space="preserve">
<style type="text/css">
	.st0{fill:url(#SVGID_1_);}
	.st1{opacity:0.05;fill:#6089EF;}
	.st2{fill:none;stroke:#FFFFFF;stroke-width:4;stroke-miterlimit:10;}
	.st3{fill:#FF0000;stroke:#FFFFFF;stroke-width:4;stroke-miterlimit:10;}
	.st4{opacity:0.1;fill:#CCCCCC;}
	.st5{fill:#2E4153;}
	.st6{fill:#293A49;}
	.st7{fill:none;stroke:#000000;stroke-width:4;stroke-miterlimit:10;}
	.st8{fill:#7E8284;}
	.st9{opacity:0.6;fill:none;stroke:#000000;stroke-width:4;stroke-linecap:round;stroke-miterlimit:10;}
	.st10{fill:#54B734;}
	.st11{fill:#64D0FF;}
	.st12{fill:#BF42F4;}
	.st13{opacity:0.5;fill:none;stroke:#000000;stroke-width:2;stroke-linecap:round;stroke-miterlimit:10;}
	.st14{fill:#404040;}
	.st15{fill:#2F2F2F;}
	.st16{fill:#10639B;}
	.st17{fill:none;stroke:#FFFFFF;stroke-width:12;stroke-linecap:round;stroke-miterlimit:10;stroke-dasharray:24,30;}
</style>
<g>
	<linearGradient id="SVGID_1_" gradientUnits="userSpaceOnUse" x1="0" y1="1977.5907" x2="5530.3784" y2="1977.5907">
		<stop  offset="0" style="stop-color:#1E4A87"/>
		<stop  offset="0.5878" style="stop-color:#6515B1"/>
		<stop  offset="1" style="stop-color:#60209E"/>
	</linearGradient>
	<rect x="0" y="0" class="st0" width="5530.38" height="3955.18"/>
	<rect x="4096.14" y="2645.39" class="st1" width="859.51" height="859.51"/>
	<rect x="4446.4" y="122.33" class="st1" width="389" height="389"/>
	<rect x="1514.97" y="1814.63" class="st1" width="535.17" height="535.17"/>
	<rect x="3532.09" y="1549" class="st1" width="679.06" height="679.06"/>
	<rect x="3091.38" y="481.05" class="st1" width="538.11" height="538.11"/>
	<rect x="2511.78" y="1373.38" class="st1" width="587.09" height="587.09"/>
	<rect x="421.98" y="316.83" class="st1" width="321.08" height="321.08"/>
	<rect x="1882.99" y="394.31" class="st1" width="392.92" height="392.92"/>
	<rect x="2700.18" y="2553.88" class="st1" width="660.26" height="660.26"/>
	<rect x="1374.67" y="2758.64" class="st1" width="535.17" height="535.17"/>
	<rect x="4525.9" y="857.06" class="st1" width="538.11" height="538.11"/>
	<rect x="634.89" y="1786.46" class="st1" width="382.27" height="382.27"/>
	<rect x="1350.05" y="1019.16" class="st1" width="441.63" height="441.63"/>
	<rect x="421.98" y="2692.88" class="st1" width="382.27" height="382.27"/>
	<rect x="675.97" y="898.49" class="st1" width="374.13" height="374.13"/>
	<rect x="-160.54" y="122.33" class="st1" width="321.08" height="321.08"/>
	<rect x="-73.28" y="1079.43" class="st1" width="321.08" height="321.08"/>
	<rect x="-160.54" y="2189.26" class="st1" width="321.08" height="321.08"/>
	<rect x="-73.28" y="3249.92" class="st1" width="321.08" height="321.08"/>
	<rect x="1150.17" y="-103.77" class="st1" width="321.08" height="321.08"/>
	<rect x="2484.24" y="-198.75" class="st1" width="321.08" height="321.08"/>
	<rect x="3659.45" y="-38.21" class="st1" width="321.08" height="321.08"/>
	<rect x="5137.42" y="1767.87" class="st1" width="538.11" height="538.11"/>
	<rect x="5374.53" y="3214.14" class="st1" width="859.51" height="859.51"/>
	<rect x="3129.72" y="3793.32" class="st1" width="660.26" height="660.26"/>
	<rect x="1839.54" y="3687.6" class="st1" width="535.17" height="535.17"/>
	<rect x="613.11" y="3643.89" class="st1" width="382.27" height="382.27"/>
</g>
<g>
	<g>
		<line class="st2" x1="3782.62" y1="2119.4" x2="3782.62" y2="1938.2"/>
		<line class="st2" x1="4167.62" y1="2341.68" x2="3782.62" y2="2119.4"/>
		<line class="st3" x1="3397.62" y1="2341.68" x2="3782.62" y2="2119.4"/>
		<line class="st3" x1="3782.63" y1="2563.95" x2="4167.62" y2="2341.68"/>
		<line class="st2" x1="3782.62" y1="2563.95" x2="3397.64" y2="2341.68"/>
		<line class="st2" x1="4167.61" y1="2160.48" x2="3782.61" y2="1938.2"/>
		<line class="st3" x1="3397.62" y1="2160.48" x2="3782.61" y2="1938.2"/>
		<line class="st2" x1="3782.62" y1="2563.95" x2="3782.62" y2="2382.76"/>
		<line class="st2" x1="4167.62" y1="2341.68" x2="4167.62" y2="2160.48"/>
		<line class="st2" x1="3397.64" y1="2341.68" x2="3397.64" y2="2160.48"/>
		<line class="st2" x1="3782.62" y1="2119.4" x2="3782.62" y2="1938.2"/>
		<line class="st2" x1="4167.62" y1="2341.68" x2="3782.62" y2="2119.4"/>
		<line class="st3" x1="3397.62" y1="2341.68" x2="3782.62" y2="2119.4"/>
		<line class="st3" x1="3782.63" y1="2563.95" x2="4167.62" y2="2341.68"/>
		<line class="st2" x1="3782.62" y1="2563.95" x2="3397.64" y2="2341.68"/>
		<line class="st2" x1="4167.61" y1="2160.48" x2="3782.61" y2="1938.2"/>
		<line class="st3" x1="3397.62" y1="2160.48" x2="3782.61" y2="1938.2"/>
		<line class="st3" x1="3782.62" y1="2382.76" x2="4167.61" y2="2160.48"/>
		<line class="st2" x1="3782.62" y1="2382.76" x2="3397.63" y2="2160.49"/>
		<line class="st2" x1="4167.62" y1="2341.68" x2="4167.62" y2="2160.48"/>
		<line class="st2" x1="3397.64" y1="2341.68" x2="3397.64" y2="2160.48"/>
		<polyline class="st4" points="3782.61,1938.2 4167.61,2160.48 4167.62,2160.48 4167.62,2341.68 3782.62,2119.4 3782.62,1938.2 		
			"/>
		<polyline class="st4" points="3397.62,2160.48 3782.61,1938.2 3782.62,1938.2 3782.62,2119.4 3397.62,2341.68 3397.64,2341.68 
			3397.64,2160.48 		"/>
		<polyline class="st4" points="3397.64,2341.68 3782.62,2563.95 3782.63,2563.95 4167.62,2341.68 3782.62,2119.4 3397.62,2341.68 
					"/>
		<g>
			<g>
				<polygon class="st5" points="3687.36,2031.37 3783.63,2086.96 3879.9,2031.37 3783.63,1975.79 				"/>
				<polygon class="st6" points="3783.63,2198.12 3783.63,2086.96 3879.9,2031.37 3879.9,2142.54 				"/>
				<polygon class="st5" points="3783.62,2198.14 3783.62,2086.97 3687.35,2031.39 3687.35,2142.55 				"/>
				<polyline class="st7" points="3687.36,2031.37 3783.63,2086.96 3783.63,2198.12 3783.63,2086.96 3879.9,2031.37 				"/>
				<polygon class="st7" points="3687.36,2031.37 3687.36,2142.54 3783.63,2198.12 3879.9,2142.54 3879.9,2031.37 3783.63,1975.79 
									"/>
				<g>
					<path class="st8" d="M3770.58,2152.23c-0.55,0.95-1.78,1.28-2.73,0.73l-67.77-39.13c-0.95-0.55-1.28-1.78-0.73-2.73l0.22-0.39
						c0.55-0.95,1.78-1.28,2.73-0.73l67.77,39.13c0.95,0.55,1.28,1.78,0.73,2.73L3770.58,2152.23z"/>
				</g>
				<g>
					<path class="st8" d="M3770.58,2165.57c-0.55,0.95-1.78,1.28-2.73,0.73l-67.77-39.13c-0.95-0.55-1.28-1.78-0.73-2.73l0.22-0.39
						c0.55-0.95,1.78-1.28,2.73-0.73l67.77,39.13c0.95,0.55,1.28,1.78,0.73,2.73L3770.58,2165.57z"/>
				</g>
				<g>
					<path class="st8" d="M3770.58,2178.91c-0.55,0.95-1.78,1.28-2.73,0.73l-67.77-39.13c-0.95-0.55-1.28-1.78-0.73-2.73l0.22-0.39
						c0.55-0.95,1.78-1.28,2.73-0.73l67.77,39.13c0.95,0.55,1.28,1.78,0.73,2.73L3770.58,2178.91z"/>
				</g>
				<g>
					<g>
						<line class="st9" x1="3772.12" y1="2129.18" x2="3745.1" y2="2113.58"/>
						<circle class="st10" cx="3739.54" cy="2110.25" r="2.22"/>
					</g>
					<g>
						<line class="st9" x1="3772.12" y1="2119.18" x2="3745.1" y2="2103.58"/>
						<circle class="st10" cx="3739.54" cy="2100.24" r="2.22"/>
					</g>
					<g>
						<line class="st9" x1="3772.12" y1="2108.06" x2="3745.1" y2="2092.46"/>
						<circle class="st10" cx="3739.54" cy="2089.12" r="2.22"/>
					</g>
					<g>
						<line class="st9" x1="3729.88" y1="2104.72" x2="3702.86" y2="2089.12"/>
						<circle class="st10" cx="3697.3" cy="2085.79" r="2.22"/>
					</g>
					<g>
						<line class="st9" x1="3772.12" y1="2139.18" x2="3745.1" y2="2123.59"/>
						<circle class="st10" cx="3739.54" cy="2120.25" r="2.22"/>
					</g>
					<g>
						<line class="st9" x1="3729.88" y1="2114.73" x2="3702.86" y2="2099.13"/>
						<circle class="st10" cx="3697.3" cy="2095.79" r="2.22"/>
					</g>
					<g>
						<line class="st9" x1="3729.88" y1="2094.72" x2="3702.86" y2="2079.12"/>
						<circle class="st10" cx="3697.3" cy="2075.78" r="2.22"/>
					</g>
					<g>
						<line class="st9" x1="3729.88" y1="2083.6" x2="3702.86" y2="2068"/>
						<circle class="st10" cx="3697.3" cy="2064.67" r="2.22"/>
					</g>
				</g>
				<circle class="st11" cx="3700.16" cy="2053.25" r="3.89"/>
				<circle class="st12" cx="3710.62" cy="2059.39" r="3.89"/>
				<line class="st13" x1="3852.06" y1="2149.87" x2="3871.31" y2="2138.76"/>
				<line class="st13" x1="3852.06" y1="2145.43" x2="3871.31" y2="2134.31"/>
				<line class="st13" x1="3852.06" y1="2140.98" x2="3871.31" y2="2129.86"/>
				<line class="st13" x1="3852.06" y1="2136.53" x2="3871.31" y2="2125.42"/>
				<line class="st13" x1="3852.06" y1="2132.09" x2="3871.31" y2="2120.97"/>
			</g>
			<g>
				<polygon class="st14" points="3802.99,2159.62 3899.27,2215.2 3995.54,2159.62 3899.27,2104.03 				"/>
				<polygon class="st15" points="3899.27,2326.36 3899.27,2215.2 3995.54,2159.62 3995.54,2270.78 				"/>
				<polygon class="st14" points="3899.26,2326.38 3899.26,2215.21 3802.98,2159.63 3802.98,2270.8 				"/>
				<polyline class="st7" points="3802.99,2159.62 3899.27,2215.2 3899.27,2326.36 3899.27,2215.2 3995.54,2159.62 				"/>
				<polygon class="st7" points="3802.99,2159.62 3802.99,2270.78 3899.27,2326.36 3995.54,2270.78 3995.54,2159.62 
					3899.27,2104.03 				"/>
				<g>
					<path class="st16" d="M3886.22,2280.48c-0.55,0.95-1.78,1.28-2.73,0.73l-67.77-39.13c-0.95-0.55-1.28-1.78-0.73-2.73l0.22-0.39
						c0.55-0.95,1.78-1.28,2.73-0.73l67.77,39.13c0.95,0.55,1.28,1.78,0.73,2.73L3886.22,2280.48z"/>
				</g>
				<g>
					<path class="st16" d="M3886.22,2293.82c-0.55,0.95-1.78,1.28-2.73,0.73l-67.77-39.13c-0.95-0.55-1.28-1.78-0.73-2.73l0.22-0.39
						c0.55-0.95,1.78-1.28,2.73-0.73l67.77,39.13c0.95,0.55,1.28,1.78,0.73,2.73L3886.22,2293.82z"/>
				</g>
				<g>
					<path class="st16" d="M3886.22,2307.16c-0.55,0.95-1.78,1.28-2.73,0.73l-67.77-39.13c-0.95-0.55-1.28-1.78-0.73-2.73l0.22-0.39
						c0.55-0.95,1.78-1.28,2.73-0.73l67.77,39.13c0.95,0.55,1.28,1.78,0.73,2.73L3886.22,2307.16z"/>
				</g>
				<g>
					<g>
						<line class="st9" x1="3887.75" y1="2257.42" x2="3860.73" y2="2241.82"/>
						<circle class="st10" cx="3855.17" cy="2238.49" r="2.22"/>
					</g>
					<g>
						<line class="st9" x1="3887.75" y1="2247.42" x2="3860.73" y2="2231.82"/>
						<circle class="st10" cx="3855.17" cy="2228.48" r="2.22"/>
					</g>
					<g>
						<line class="st9" x1="3887.75" y1="2236.3" x2="3860.73" y2="2220.7"/>
						<circle class="st10" cx="3855.17" cy="2217.37" r="2.22"/>
					</g>
					<g>
						<line class="st9" x1="3845.51" y1="2232.97" x2="3818.49" y2="2217.37"/>
						<circle class="st10" cx="3812.93" cy="2214.03" r="2.22"/>
					</g>
					<g>
						<line class="st9" x1="3887.75" y1="2267.43" x2="3860.73" y2="2251.83"/>
						<circle class="st10" cx="3855.17" cy="2248.49" r="2.22"/>
					</g>
					<g>
						<line class="st9" x1="3845.51" y1="2242.97" x2="3818.49" y2="2227.37"/>
						<circle class="st10" cx="3812.93" cy="2224.04" r="2.22"/>
					</g>
					<g>
						<line class="st9" x1="3845.51" y1="2222.96" x2="3818.49" y2="2207.36"/>
						<circle class="st10" cx="3812.93" cy="2204.03" r="2.22"/>
					</g>
					<g>
						<line class="st9" x1="3845.51" y1="2211.85" x2="3818.49" y2="2196.25"/>
						<circle class="st10" cx="3812.93" cy="2192.91" r="2.22"/>
					</g>
				</g>
				<circle class="st11" cx="3815.79" cy="2181.5" r="3.89"/>
				<circle class="st12" cx="3826.25" cy="2187.63" r="3.89"/>
				<line class="st13" x1="3967.69" y1="2278.12" x2="3986.95" y2="2267"/>
				<line class="st13" x1="3967.69" y1="2273.67" x2="3986.95" y2="2262.55"/>
				<line class="st13" x1="3967.69" y1="2269.22" x2="3986.95" y2="2258.11"/>
				<line class="st13" x1="3967.69" y1="2264.78" x2="3986.95" y2="2253.66"/>
				<line class="st13" x1="3967.69" y1="2260.33" x2="3986.95" y2="2249.21"/>
			</g>
			<g>
				<polygon class="st14" points="3917.63,2229.02 4013.9,2284.6 4110.17,2229.02 4013.9,2173.44 				"/>
				<polygon class="st15" points="4013.9,2395.77 4013.9,2284.6 4110.17,2229.02 4110.17,2340.18 				"/>
				<polygon class="st14" points="4013.89,2395.78 4013.89,2284.62 3917.62,2229.04 3917.62,2340.2 				"/>
				<polyline class="st7" points="3917.63,2229.02 4013.9,2284.6 4013.9,2395.77 4013.9,2284.6 4110.17,2229.02 				"/>
				<polygon class="st7" points="3917.63,2229.02 3917.63,2340.18 4013.9,2395.77 4110.17,2340.18 4110.17,2229.02 4013.9,2173.44 
									"/>
				<g>
					<path class="st16" d="M4000.85,2349.88c-0.55,0.95-1.78,1.28-2.73,0.73l-67.77-39.13c-0.95-0.55-1.28-1.78-0.73-2.73l0.22-0.39
						c0.55-0.95,1.78-1.28,2.73-0.73l67.77,39.13c0.95,0.55,1.28,1.78,0.73,2.73L4000.85,2349.88z"/>
				</g>
				<g>
					<path class="st16" d="M4000.85,2363.22c-0.55,0.95-1.78,1.28-2.73,0.73l-67.77-39.13c-0.95-0.55-1.28-1.78-0.73-2.73l0.22-0.39
						c0.55-0.95,1.78-1.28,2.73-0.73l67.77,39.13c0.95,0.55,1.28,1.78,0.73,2.73L4000.85,2363.22z"/>
				</g>
				<g>
					<path class="st16" d="M4000.85,2376.56c-0.55,0.95-1.78,1.28-2.73,0.73l-67.77-39.13c-0.95-0.55-1.28-1.78-0.73-2.73l0.22-0.39
						c0.55-0.95,1.78-1.28,2.73-0.73l67.77,39.13c0.95,0.55,1.28,1.78,0.73,2.73L4000.85,2376.56z"/>
				</g>
				<g>
					<g>
						<line class="st9" x1="4002.39" y1="2326.83" x2="3975.37" y2="2311.23"/>
						<circle class="st10" cx="3969.81" cy="2307.89" r="2.22"/>
					</g>
					<g>
						<line class="st9" x1="4002.39" y1="2316.82" x2="3975.37" y2="2301.22"/>
						<circle class="st10" cx="3969.81" cy="2297.89" r="2.22"/>
					</g>
					<g>
						<line class="st9" x1="4002.39" y1="2305.71" x2="3975.37" y2="2290.11"/>
						<circle class="st10" cx="3969.81" cy="2286.77" r="2.22"/>
					</g>
					<g>
						<line class="st9" x1="3960.14" y1="2302.37" x2="3933.12" y2="2286.77"/>
						<circle class="st10" cx="3927.57" cy="2283.44" r="2.22"/>
					</g>
					<g>
						<line class="st9" x1="4002.39" y1="2336.83" x2="3975.37" y2="2321.23"/>
						<circle class="st10" cx="3969.81" cy="2317.9" r="2.22"/>
					</g>
					<g>
						<line class="st9" x1="3960.14" y1="2312.38" x2="3933.12" y2="2296.78"/>
						<circle class="st10" cx="3927.57" cy="2293.44" r="2.22"/>
					</g>
					<g>
						<line class="st9" x1="3960.14" y1="2292.37" x2="3933.12" y2="2276.77"/>
						<circle class="st10" cx="3927.57" cy="2273.43" r="2.22"/>
					</g>
					<g>
						<line class="st9" x1="3960.14" y1="2281.25" x2="3933.12" y2="2265.65"/>
						<circle class="st10" cx="3927.57" cy="2262.31" r="2.22"/>
					</g>
				</g>
				<circle class="st11" cx="3930.43" cy="2250.9" r="3.89"/>
				<circle class="st12" cx="3940.88" cy="2257.03" r="3.89"/>
				<line class="st13" x1="4082.32" y1="2347.52" x2="4101.58" y2="2336.4"/>
				<line class="st13" x1="4082.32" y1="2343.07" x2="4101.58" y2="2331.96"/>
				<line class="st13" x1="4082.32" y1="2338.63" x2="4101.58" y2="2327.51"/>
				<line class="st13" x1="4082.32" y1="2334.18" x2="4101.58" y2="2323.06"/>
				<line class="st13" x1="4082.32" y1="2329.73" x2="4101.58" y2="2318.62"/>
			</g>
			<g>
				<polygon class="st14" points="3570.79,2161.37 3667.06,2216.95 3763.33,2161.37 3667.06,2105.79 				"/>
				<polygon class="st15" points="3667.06,2328.12 3667.06,2216.95 3763.33,2161.37 3763.33,2272.53 				"/>
				<polygon class="st14" points="3667.05,2328.13 3667.05,2216.97 3570.78,2161.39 3570.78,2272.55 				"/>
				<polyline class="st7" points="3570.79,2161.37 3667.06,2216.95 3667.06,2328.12 3667.06,2216.95 3763.33,2161.37 				"/>
				<polygon class="st7" points="3570.79,2161.37 3570.79,2272.53 3667.06,2328.12 3763.33,2272.53 3763.33,2161.37 
					3667.06,2105.79 				"/>
				<g>
					<path class="st16" d="M3654.01,2282.23c-0.55,0.95-1.78,1.28-2.73,0.73l-67.77-39.13c-0.95-0.55-1.28-1.78-0.73-2.73l0.22-0.39
						c0.55-0.95,1.78-1.28,2.73-0.73l67.77,39.13c0.95,0.55,1.28,1.78,0.73,2.73L3654.01,2282.23z"/>
				</g>
				<g>
					<path class="st16" d="M3654.01,2295.57c-0.55,0.95-1.78,1.28-2.73,0.73l-67.77-39.13c-0.95-0.55-1.28-1.78-0.73-2.73l0.22-0.39
						c0.55-0.95,1.78-1.28,2.73-0.73l67.77,39.13c0.95,0.55,1.28,1.78,0.73,2.73L3654.01,2295.57z"/>
				</g>
				<g>
					<path class="st16" d="M3654.01,2308.91c-0.55,0.95-1.78,1.28-2.73,0.73l-67.77-39.13c-0.95-0.55-1.28-1.78-0.73-2.73l0.22-0.39
						c0.55-0.95,1.78-1.28,2.73-0.73l67.77,39.13c0.95,0.55,1.28,1.78,0.73,2.73L3654.01,2308.91z"/>
				</g>
				<g>
					<g>
						<line class="st9" x1="3655.55" y1="2259.18" x2="3628.53" y2="2243.58"/>
						<circle class="st10" cx="3622.97" cy="2240.24" r="2.22"/>
					</g>
					<g>
						<line class="st9" x1="3655.55" y1="2249.17" x2="3628.53" y2="2233.57"/>
						<circle class="st10" cx="3622.97" cy="2230.24" r="2.22"/>
					</g>
					<g>
						<line class="st9" x1="3655.55" y1="2238.06" x2="3628.53" y2="2222.46"/>
						<circle class="st10" cx="3622.97" cy="2219.12" r="2.22"/>
					</g>
					<g>
						<line class="st9" x1="3613.3" y1="2234.72" x2="3586.29" y2="2219.12"/>
						<circle class="st10" cx="3580.73" cy="2215.79" r="2.22"/>
					</g>
					<g>
						<line class="st9" x1="3655.55" y1="2269.18" x2="3628.53" y2="2253.58"/>
						<circle class="st10" cx="3622.97" cy="2250.25" r="2.22"/>
					</g>
					<g>
						<line class="st9" x1="3613.3" y1="2244.73" x2="3586.29" y2="2229.13"/>
						<circle class="st10" cx="3580.73" cy="2225.79" r="2.22"/>
					</g>
					<g>
						<line class="st9" x1="3613.3" y1="2224.72" x2="3586.29" y2="2209.12"/>
						<circle class="st10" cx="3580.73" cy="2205.78" r="2.22"/>
					</g>
					<g>
						<line class="st9" x1="3613.3" y1="2213.6" x2="3586.29" y2="2198"/>
						<circle class="st10" cx="3580.73" cy="2194.67" r="2.22"/>
					</g>
				</g>
				<circle class="st11" cx="3583.59" cy="2183.25" r="3.89"/>
				<circle class="st12" cx="3594.05" cy="2189.38" r="3.89"/>
				<line class="st13" x1="3735.49" y1="2279.87" x2="3754.74" y2="2268.75"/>
				<line class="st13" x1="3735.49" y1="2275.42" x2="3754.74" y2="2264.31"/>
				<line class="st13" x1="3735.49" y1="2270.98" x2="3754.74" y2="2259.86"/>
				<line class="st13" x1="3735.49" y1="2266.53" x2="3754.74" y2="2255.42"/>
				<line class="st13" x1="3735.49" y1="2262.08" x2="3754.74" y2="2250.97"/>
			</g>
			<g>
				<polygon class="st14" points="3455.18,2229.74 3551.45,2285.33 3647.72,2229.74 3551.45,2174.16 				"/>
				<polygon class="st15" points="3551.45,2396.49 3551.45,2285.33 3647.72,2229.74 3647.72,2340.91 				"/>
				<polygon class="st14" points="3551.44,2396.51 3551.44,2285.34 3455.17,2229.76 3455.17,2340.93 				"/>
				<polyline class="st7" points="3455.18,2229.74 3551.45,2285.33 3551.45,2396.49 3551.45,2285.33 3647.72,2229.74 				"/>
				<polygon class="st7" points="3455.18,2229.74 3455.18,2340.91 3551.45,2396.49 3647.72,2340.91 3647.72,2229.74 
					3551.45,2174.16 				"/>
				<g>
					<path class="st16" d="M3538.4,2350.61c-0.55,0.95-1.78,1.28-2.73,0.73l-67.77-39.13c-0.95-0.55-1.28-1.78-0.73-2.73l0.22-0.39
						c0.55-0.95,1.78-1.28,2.73-0.73l67.77,39.13c0.95,0.55,1.28,1.78,0.73,2.73L3538.4,2350.61z"/>
				</g>
				<g>
					<path class="st16" d="M3538.4,2363.95c-0.55,0.95-1.78,1.28-2.73,0.73l-67.77-39.13c-0.95-0.55-1.28-1.78-0.73-2.73l0.22-0.39
						c0.55-0.95,1.78-1.28,2.73-0.73l67.77,39.13c0.95,0.55,1.28,1.78,0.73,2.73L3538.4,2363.95z"/>
				</g>
				<g>
					<path class="st16" d="M3538.4,2377.28c-0.55,0.95-1.78,1.28-2.73,0.73l-67.77-39.13c-0.95-0.55-1.28-1.78-0.73-2.73l0.22-0.39
						c0.55-0.95,1.78-1.28,2.73-0.73l67.77,39.13c0.95,0.55,1.28,1.78,0.73,2.73L3538.4,2377.28z"/>
				</g>
				<g>
					<g>
						<line class="st9" x1="3539.94" y1="2327.55" x2="3512.92" y2="2311.95"/>
						<circle class="st10" cx="3507.36" cy="2308.62" r="2.22"/>
					</g>
					<g>
						<line class="st9" x1="3539.94" y1="2317.55" x2="3512.92" y2="2301.95"/>
						<circle class="st10" cx="3507.36" cy="2298.61" r="2.22"/>
					</g>
					<g>
						<line class="st9" x1="3539.94" y1="2306.43" x2="3512.92" y2="2290.83"/>
						<circle class="st10" cx="3507.36" cy="2287.5" r="2.22"/>
					</g>
					<g>
						<line class="st9" x1="3497.69" y1="2303.1" x2="3470.67" y2="2287.5"/>
						<circle class="st10" cx="3465.12" cy="2284.16" r="2.22"/>
					</g>
					<g>
						<line class="st9" x1="3539.94" y1="2337.56" x2="3512.92" y2="2321.96"/>
						<circle class="st10" cx="3507.36" cy="2318.62" r="2.22"/>
					</g>
					<g>
						<line class="st9" x1="3497.69" y1="2313.1" x2="3470.67" y2="2297.5"/>
						<circle class="st10" cx="3465.12" cy="2294.17" r="2.22"/>
					</g>
					<g>
						<line class="st9" x1="3497.69" y1="2293.09" x2="3470.67" y2="2277.49"/>
						<circle class="st10" cx="3465.12" cy="2274.16" r="2.22"/>
					</g>
					<g>
						<line class="st9" x1="3497.69" y1="2281.97" x2="3470.67" y2="2266.37"/>
						<circle class="st10" cx="3465.12" cy="2263.04" r="2.22"/>
					</g>
				</g>
				<circle class="st11" cx="3467.98" cy="2251.62" r="3.89"/>
				<circle class="st12" cx="3478.43" cy="2257.76" r="3.89"/>
				<line class="st13" x1="3619.88" y1="2348.25" x2="3639.13" y2="2337.13"/>
				<line class="st13" x1="3619.88" y1="2343.8" x2="3639.13" y2="2332.68"/>
				<line class="st13" x1="3619.88" y1="2339.35" x2="3639.13" y2="2328.24"/>
				<line class="st13" x1="3619.88" y1="2334.91" x2="3639.13" y2="2323.79"/>
				<line class="st13" x1="3619.88" y1="2330.46" x2="3639.13" y2="2319.34"/>
			</g>
			<g>
				<polygon class="st14" points="3686.41,2228.38 3782.68,2283.96 3878.95,2228.38 3782.68,2172.8 				"/>
				<polygon class="st15" points="3782.68,2395.13 3782.68,2283.96 3878.95,2228.38 3878.95,2339.55 				"/>
				<polygon class="st14" points="3782.67,2395.14 3782.67,2283.98 3686.4,2228.4 3686.4,2339.56 				"/>
				<polyline class="st7" points="3686.41,2228.38 3782.68,2283.96 3782.68,2395.13 3782.68,2283.96 3878.95,2228.38 				"/>
				<polygon class="st7" points="3686.41,2228.38 3686.41,2339.55 3782.68,2395.13 3878.95,2339.55 3878.95,2228.38 3782.68,2172.8 
									"/>
				<g>
					<path class="st16" d="M3769.63,2349.24c-0.55,0.95-1.78,1.28-2.73,0.73l-67.77-39.13c-0.95-0.55-1.28-1.78-0.73-2.73l0.22-0.39
						c0.55-0.95,1.78-1.28,2.73-0.73l67.77,39.13c0.95,0.55,1.28,1.78,0.73,2.73L3769.63,2349.24z"/>
				</g>
				<g>
					<path class="st16" d="M3769.63,2362.58c-0.55,0.95-1.78,1.28-2.73,0.73l-67.77-39.13c-0.95-0.55-1.28-1.78-0.73-2.73l0.22-0.39
						c0.55-0.95,1.78-1.28,2.73-0.73l67.77,39.13c0.95,0.55,1.28,1.78,0.73,2.73L3769.63,2362.58z"/>
				</g>
				<g>
					<path class="st16" d="M3769.63,2375.92c-0.55,0.95-1.78,1.28-2.73,0.73l-67.77-39.13c-0.95-0.55-1.28-1.78-0.73-2.73l0.22-0.39
						c0.55-0.95,1.78-1.28,2.73-0.73l67.77,39.13c0.95,0.55,1.28,1.78,0.73,2.73L3769.63,2375.92z"/>
				</g>
				<g>
					<g>
						<line class="st9" x1="3771.16" y1="2326.19" x2="3744.14" y2="2310.59"/>
						<circle class="st10" cx="3738.59" cy="2307.25" r="2.22"/>
					</g>
					<g>
						<line class="st9" x1="3771.16" y1="2316.18" x2="3744.14" y2="2300.58"/>
						<circle class="st10" cx="3738.59" cy="2297.25" r="2.22"/>
					</g>
					<g>
						<line class="st9" x1="3771.16" y1="2305.07" x2="3744.14" y2="2289.47"/>
						<circle class="st10" cx="3738.59" cy="2286.13" r="2.22"/>
					</g>
					<g>
						<line class="st9" x1="3728.92" y1="2301.73" x2="3701.9" y2="2286.13"/>
						<circle class="st10" cx="3696.34" cy="2282.8" r="2.22"/>
					</g>
					<g>
						<line class="st9" x1="3771.16" y1="2336.19" x2="3744.14" y2="2320.59"/>
						<circle class="st10" cx="3738.59" cy="2317.26" r="2.22"/>
					</g>
					<g>
						<line class="st9" x1="3728.92" y1="2311.74" x2="3701.9" y2="2296.14"/>
						<circle class="st10" cx="3696.34" cy="2292.8" r="2.22"/>
					</g>
					<g>
						<line class="st9" x1="3728.92" y1="2291.73" x2="3701.9" y2="2276.13"/>
						<circle class="st10" cx="3696.34" cy="2272.79" r="2.22"/>
					</g>
					<g>
						<line class="st9" x1="3728.92" y1="2280.61" x2="3701.9" y2="2265.01"/>
						<circle class="st10" cx="3696.34" cy="2261.68" r="2.22"/>
					</g>
				</g>
				<circle class="st11" cx="3699.21" cy="2250.26" r="3.89"/>
				<circle class="st12" cx="3709.66" cy="2256.4" r="3.89"/>
				<line class="st13" x1="3851.1" y1="2346.88" x2="3870.36" y2="2335.77"/>
				<line class="st13" x1="3851.1" y1="2342.44" x2="3870.36" y2="2331.32"/>
				<line class="st13" x1="3851.1" y1="2337.99" x2="3870.36" y2="2326.87"/>
				<line class="st13" x1="3851.1" y1="2333.54" x2="3870.36" y2="2322.43"/>
				<line class="st13" x1="3851.1" y1="2329.1" x2="3870.36" y2="2317.98"/>
			</g>
			<g>
				<polygon class="st14" points="3570.8,2296.76 3667.07,2352.34 3763.34,2296.76 3667.07,2241.17 				"/>
				<polygon class="st15" points="3667.07,2463.5 3667.07,2352.34 3763.34,2296.76 3763.34,2407.92 				"/>
				<polygon class="st14" points="3667.06,2463.52 3667.06,2352.35 3570.79,2296.77 3570.79,2407.94 				"/>
				<polyline class="st7" points="3570.8,2296.76 3667.07,2352.34 3667.07,2463.5 3667.07,2352.34 3763.34,2296.76 				"/>
				<polygon class="st7" points="3570.8,2296.76 3570.8,2407.92 3667.07,2463.5 3763.34,2407.92 3763.34,2296.76 3667.07,2241.17 
									"/>
				<g>
					<path class="st16" d="M3654.02,2417.62c-0.55,0.95-1.78,1.28-2.73,0.73l-67.77-39.13c-0.95-0.55-1.28-1.78-0.73-2.73l0.22-0.39
						c0.55-0.95,1.78-1.28,2.73-0.73l67.77,39.13c0.95,0.55,1.28,1.78,0.73,2.73L3654.02,2417.62z"/>
				</g>
				<g>
					<path class="st16" d="M3654.02,2430.96c-0.55,0.95-1.78,1.28-2.73,0.73l-67.77-39.13c-0.95-0.55-1.28-1.78-0.73-2.73l0.22-0.39
						c0.55-0.95,1.78-1.28,2.73-0.73l67.77,39.13c0.95,0.55,1.28,1.78,0.73,2.73L3654.02,2430.96z"/>
				</g>
				<g>
					<path class="st16" d="M3654.02,2444.3c-0.55,0.95-1.78,1.28-2.73,0.73l-67.77-39.13c-0.95-0.55-1.28-1.78-0.73-2.73l0.22-0.39
						c0.55-0.95,1.78-1.28,2.73-0.73l67.77,39.13c0.95,0.55,1.28,1.78,0.73,2.73L3654.02,2444.3z"/>
				</g>
				<g>
					<g>
						<line class="st9" x1="3655.56" y1="2394.56" x2="3628.54" y2="2378.96"/>
						<circle class="st10" cx="3622.98" cy="2375.63" r="2.22"/>
					</g>
					<g>
						<line class="st9" x1="3655.56" y1="2384.56" x2="3628.54" y2="2368.96"/>
						<circle class="st10" cx="3622.98" cy="2365.62" r="2.22"/>
					</g>
					<g>
						<line class="st9" x1="3655.56" y1="2373.44" x2="3628.54" y2="2357.84"/>
						<circle class="st10" cx="3622.98" cy="2354.51" r="2.22"/>
					</g>
					<g>
						<line class="st9" x1="3613.31" y1="2370.11" x2="3586.3" y2="2354.51"/>
						<circle class="st10" cx="3580.74" cy="2351.17" r="2.22"/>
					</g>
					<g>
						<line class="st9" x1="3655.56" y1="2404.57" x2="3628.54" y2="2388.97"/>
						<circle class="st10" cx="3622.98" cy="2385.63" r="2.22"/>
					</g>
					<g>
						<line class="st9" x1="3613.31" y1="2380.11" x2="3586.3" y2="2364.51"/>
						<circle class="st10" cx="3580.74" cy="2361.18" r="2.22"/>
					</g>
					<g>
						<line class="st9" x1="3613.31" y1="2360.1" x2="3586.3" y2="2344.5"/>
						<circle class="st10" cx="3580.74" cy="2341.17" r="2.22"/>
					</g>
					<g>
						<line class="st9" x1="3613.31" y1="2348.98" x2="3586.3" y2="2333.39"/>
						<circle class="st10" cx="3580.74" cy="2330.05" r="2.22"/>
					</g>
				</g>
				<circle class="st11" cx="3583.6" cy="2318.63" r="3.89"/>
				<circle class="st12" cx="3594.06" cy="2324.77" r="3.89"/>
				<line class="st13" x1="3735.5" y1="2415.26" x2="3754.75" y2="2404.14"/>
				<line class="st13" x1="3735.5" y1="2410.81" x2="3754.75" y2="2399.69"/>
				<line class="st13" x1="3735.5" y1="2406.36" x2="3754.75" y2="2395.25"/>
				<line class="st13" x1="3735.5" y1="2401.92" x2="3754.75" y2="2390.8"/>
				<line class="st13" x1="3735.5" y1="2397.47" x2="3754.75" y2="2386.35"/>
			</g>
			<g>
				<polygon class="st14" points="3802.02,2295.39 3898.29,2350.97 3994.56,2295.39 3898.29,2239.81 				"/>
				<polygon class="st15" points="3898.29,2462.14 3898.29,2350.97 3994.56,2295.39 3994.56,2406.56 				"/>
				<polygon class="st14" points="3898.28,2462.15 3898.28,2350.99 3802.01,2295.41 3802.01,2406.57 				"/>
				<polyline class="st7" points="3802.02,2295.39 3898.29,2350.97 3898.29,2462.14 3898.29,2350.97 3994.56,2295.39 				"/>
				<polygon class="st7" points="3802.02,2295.39 3802.02,2406.56 3898.29,2462.14 3994.56,2406.56 3994.56,2295.39 
					3898.29,2239.81 				"/>
				<g>
					<path class="st16" d="M3885.24,2416.25c-0.55,0.95-1.78,1.28-2.73,0.73l-67.77-39.13c-0.95-0.55-1.28-1.78-0.73-2.73l0.22-0.39
						c0.55-0.95,1.78-1.28,2.73-0.73l67.77,39.13c0.95,0.55,1.28,1.78,0.73,2.73L3885.24,2416.25z"/>
				</g>
				<g>
					<path class="st16" d="M3885.24,2429.59c-0.55,0.95-1.78,1.28-2.73,0.73l-67.77-39.13c-0.95-0.55-1.28-1.78-0.73-2.73l0.22-0.39
						c0.55-0.95,1.78-1.28,2.73-0.73l67.77,39.13c0.95,0.55,1.28,1.78,0.73,2.73L3885.24,2429.59z"/>
				</g>
				<g>
					<path class="st16" d="M3885.24,2442.93c-0.55,0.95-1.78,1.28-2.73,0.73l-67.77-39.13c-0.95-0.55-1.28-1.78-0.73-2.73l0.22-0.39
						c0.55-0.95,1.78-1.28,2.73-0.73l67.77,39.13c0.95,0.55,1.28,1.78,0.73,2.73L3885.24,2442.93z"/>
				</g>
				<g>
					<g>
						<line class="st9" x1="3886.77" y1="2393.2" x2="3859.76" y2="2377.6"/>
						<circle class="st10" cx="3854.2" cy="2374.26" r="2.22"/>
					</g>
					<g>
						<line class="st9" x1="3886.77" y1="2383.19" x2="3859.76" y2="2367.59"/>
						<circle class="st10" cx="3854.2" cy="2364.26" r="2.22"/>
					</g>
					<g>
						<line class="st9" x1="3886.77" y1="2372.08" x2="3859.76" y2="2356.48"/>
						<circle class="st10" cx="3854.2" cy="2353.14" r="2.22"/>
					</g>
					<g>
						<line class="st9" x1="3844.53" y1="2368.74" x2="3817.51" y2="2353.14"/>
						<circle class="st10" cx="3811.95" cy="2349.81" r="2.22"/>
					</g>
					<g>
						<line class="st9" x1="3886.77" y1="2403.2" x2="3859.76" y2="2387.6"/>
						<circle class="st10" cx="3854.2" cy="2384.27" r="2.22"/>
					</g>
					<g>
						<line class="st9" x1="3844.53" y1="2378.75" x2="3817.51" y2="2363.15"/>
						<circle class="st10" cx="3811.95" cy="2359.81" r="2.22"/>
					</g>
					<g>
						<line class="st9" x1="3844.53" y1="2358.74" x2="3817.51" y2="2343.14"/>
						<circle class="st10" cx="3811.95" cy="2339.8" r="2.22"/>
					</g>
					<g>
						<line class="st9" x1="3844.53" y1="2347.62" x2="3817.51" y2="2332.02"/>
						<circle class="st10" cx="3811.95" cy="2328.69" r="2.22"/>
					</g>
				</g>
				<circle class="st11" cx="3814.82" cy="2317.27" r="3.89"/>
				<circle class="st12" cx="3825.27" cy="2323.41" r="3.89"/>
				<line class="st13" x1="3966.71" y1="2413.89" x2="3985.97" y2="2402.78"/>
				<line class="st13" x1="3966.71" y1="2409.45" x2="3985.97" y2="2398.33"/>
				<line class="st13" x1="3966.71" y1="2405" x2="3985.97" y2="2393.88"/>
				<line class="st13" x1="3966.71" y1="2400.55" x2="3985.97" y2="2389.44"/>
				<line class="st13" x1="3966.71" y1="2396.11" x2="3985.97" y2="2384.99"/>
			</g>
			<g>
				<polygon class="st14" points="3686.41,2363.77 3782.68,2419.35 3878.95,2363.77 3782.68,2308.18 				"/>
				<polygon class="st15" points="3782.68,2530.51 3782.68,2419.35 3878.95,2363.77 3878.95,2474.93 				"/>
				<polygon class="st14" points="3782.67,2530.53 3782.67,2419.36 3686.4,2363.78 3686.4,2474.95 				"/>
				<polyline class="st7" points="3686.41,2363.77 3782.68,2419.35 3782.68,2530.51 3782.68,2419.35 3878.95,2363.77 				"/>
				<polygon class="st7" points="3686.41,2363.77 3686.41,2474.93 3782.68,2530.51 3878.95,2474.93 3878.95,2363.77 
					3782.68,2308.18 				"/>
				<g>
					<path class="st16" d="M3769.63,2484.63c-0.55,0.95-1.78,1.28-2.73,0.73l-67.77-39.13c-0.95-0.55-1.28-1.78-0.73-2.73l0.22-0.39
						c0.55-0.95,1.78-1.28,2.73-0.73l67.77,39.13c0.95,0.55,1.28,1.78,0.73,2.73L3769.63,2484.63z"/>
				</g>
				<g>
					<path class="st16" d="M3769.63,2497.97c-0.55,0.95-1.78,1.28-2.73,0.73l-67.77-39.13c-0.95-0.55-1.28-1.78-0.73-2.73l0.22-0.39
						c0.55-0.95,1.78-1.28,2.73-0.73l67.77,39.13c0.95,0.55,1.28,1.78,0.73,2.73L3769.63,2497.97z"/>
				</g>
				<g>
					<path class="st16" d="M3769.63,2511.31c-0.55,0.95-1.78,1.28-2.73,0.73l-67.77-39.13c-0.95-0.55-1.28-1.78-0.73-2.73l0.22-0.39
						c0.55-0.95,1.78-1.28,2.73-0.73l67.77,39.13c0.95,0.55,1.28,1.78,0.73,2.73L3769.63,2511.31z"/>
				</g>
				<g>
					<g>
						<line class="st9" x1="3771.16" y1="2461.57" x2="3744.14" y2="2445.97"/>
						<circle class="st10" cx="3738.59" cy="2442.64" r="2.22"/>
					</g>
					<g>
						<line class="st9" x1="3771.16" y1="2451.57" x2="3744.14" y2="2435.97"/>
						<circle class="st10" cx="3738.59" cy="2432.63" r="2.22"/>
					</g>
					<g>
						<line class="st9" x1="3771.16" y1="2440.45" x2="3744.14" y2="2424.85"/>
						<circle class="st10" cx="3738.59" cy="2421.52" r="2.22"/>
					</g>
					<g>
						<line class="st9" x1="3728.92" y1="2437.12" x2="3701.9" y2="2421.52"/>
						<circle class="st10" cx="3696.34" cy="2418.18" r="2.22"/>
					</g>
					<g>
						<line class="st9" x1="3771.16" y1="2471.58" x2="3744.14" y2="2455.98"/>
						<circle class="st10" cx="3738.59" cy="2452.64" r="2.22"/>
					</g>
					<g>
						<line class="st9" x1="3728.92" y1="2447.12" x2="3701.9" y2="2431.52"/>
						<circle class="st10" cx="3696.34" cy="2428.19" r="2.22"/>
					</g>
					<g>
						<line class="st9" x1="3728.92" y1="2427.11" x2="3701.9" y2="2411.51"/>
						<circle class="st10" cx="3696.34" cy="2408.18" r="2.22"/>
					</g>
					<g>
						<line class="st9" x1="3728.92" y1="2416" x2="3701.9" y2="2400.4"/>
						<circle class="st10" cx="3696.34" cy="2397.06" r="2.22"/>
					</g>
				</g>
				<circle class="st11" cx="3699.21" cy="2385.65" r="3.89"/>
				<circle class="st12" cx="3709.66" cy="2391.78" r="3.89"/>
				<line class="st13" x1="3851.1" y1="2482.27" x2="3870.36" y2="2471.15"/>
				<line class="st13" x1="3851.1" y1="2477.82" x2="3870.36" y2="2466.7"/>
				<line class="st13" x1="3851.1" y1="2473.37" x2="3870.36" y2="2462.26"/>
				<line class="st13" x1="3851.1" y1="2468.93" x2="3870.36" y2="2457.81"/>
				<line class="st13" x1="3851.1" y1="2464.48" x2="3870.36" y2="2453.36"/>
			</g>
		</g>
		<polyline class="st4" points="3397.63,2160.49 3782.62,2382.76 3782.62,2382.76 4167.61,2160.48 3782.61,1938.2 3397.62,2160.48 
					"/>
		<polyline class="st4" points="3782.63,2563.95 4167.62,2341.68 4167.62,2160.48 4167.61,2160.48 3782.62,2382.76 3782.62,2382.76 
			3782.62,2563.95 		"/>
		<polyline class="st4" points="3397.64,2160.48 3397.64,2341.68 3397.64,2341.68 3782.62,2563.95 3782.62,2382.76 3782.62,2382.76 
			3397.63,2160.49 		"/>
		<line class="st2" x1="3782.62" y1="2563.95" x2="3782.62" y2="2382.76"/>
		<line class="st3" x1="3782.62" y1="2382.76" x2="4167.61" y2="2160.48"/>
		<line class="st2" x1="3782.62" y1="2382.76" x2="3397.63" y2="2160.49"/>
	</g>
	<g>
		<line class="st2" x1="2765.9" y1="2017.86" x2="2765.9" y2="1836.66"/>
		<line class="st2" x1="3150.9" y1="2240.14" x2="2765.9" y2="2017.86"/>
		<line class="st3" x1="2380.91" y1="2240.14" x2="2765.9" y2="2017.86"/>
		<line class="st3" x1="2765.91" y1="2462.42" x2="3150.9" y2="2240.14"/>
		<line class="st2" x1="2765.91" y1="2462.42" x2="2380.92" y2="2240.14"/>
		<line class="st2" x1="3150.9" y1="2058.94" x2="2765.9" y2="1836.66"/>
		<line class="st3" x1="2380.9" y1="2058.94" x2="2765.9" y2="1836.66"/>
		<line class="st2" x1="2765.91" y1="2462.42" x2="2765.91" y2="2281.22"/>
		<line class="st2" x1="3150.9" y1="2240.14" x2="3150.9" y2="2058.94"/>
		<line class="st2" x1="2380.92" y1="2240.14" x2="2380.92" y2="2058.94"/>
		<line class="st2" x1="2765.9" y1="2017.86" x2="2765.9" y2="1836.66"/>
		<line class="st2" x1="3150.9" y1="2240.14" x2="2765.9" y2="2017.86"/>
		<line class="st3" x1="2380.91" y1="2240.14" x2="2765.9" y2="2017.86"/>
		<line class="st3" x1="2765.91" y1="2462.42" x2="3150.9" y2="2240.14"/>
		<line class="st2" x1="2765.91" y1="2462.42" x2="2380.92" y2="2240.14"/>
		<line class="st2" x1="3150.9" y1="2058.94" x2="2765.9" y2="1836.66"/>
		<line class="st3" x1="2380.9" y1="2058.94" x2="2765.9" y2="1836.66"/>
		<line class="st3" x1="2765.91" y1="2281.22" x2="3150.9" y2="2058.94"/>
		<line class="st2" x1="2765.9" y1="2281.22" x2="2380.92" y2="2058.95"/>
		<line class="st2" x1="3150.9" y1="2240.14" x2="3150.9" y2="2058.94"/>
		<line class="st2" x1="2380.92" y1="2240.14" x2="2380.92" y2="2058.94"/>
		<polyline class="st4" points="2765.9,1836.66 3150.9,2058.94 3150.9,2058.94 3150.9,2240.14 2765.9,2017.86 2765.9,1836.66 		"/>
		<polyline class="st4" points="2380.9,2058.94 2765.9,1836.66 2765.9,1836.66 2765.9,2017.86 2380.91,2240.14 2380.92,2240.14 
			2380.92,2058.94 		"/>
		<polyline class="st4" points="2380.92,2240.14 2765.91,2462.42 2765.91,2462.42 3150.9,2240.14 2765.9,2017.86 2380.91,2240.14 		
			"/>
		<g>
			<g>
				<polygon class="st5" points="2670.65,1929.83 2766.92,1985.42 2863.19,1929.83 2766.92,1874.25 				"/>
				<polygon class="st6" points="2766.92,2096.58 2766.92,1985.42 2863.19,1929.83 2863.19,2041 				"/>
				<polygon class="st5" points="2766.91,2096.6 2766.91,1985.43 2670.64,1929.85 2670.64,2041.01 				"/>
				<polyline class="st7" points="2670.65,1929.83 2766.92,1985.42 2766.92,2096.58 2766.92,1985.42 2863.19,1929.83 				"/>
				<polygon class="st7" points="2670.65,1929.83 2670.65,2041 2766.92,2096.58 2863.19,2041 2863.19,1929.83 2766.92,1874.25 				
					"/>
				<g>
					<path class="st8" d="M2753.87,2050.7c-0.55,0.95-1.78,1.28-2.73,0.73l-67.77-39.13c-0.95-0.55-1.28-1.78-0.73-2.73l0.22-0.39
						c0.55-0.95,1.78-1.28,2.73-0.73l67.77,39.13c0.95,0.55,1.28,1.78,0.73,2.73L2753.87,2050.7z"/>
				</g>
				<g>
					<path class="st8" d="M2753.87,2064.03c-0.55,0.95-1.78,1.28-2.73,0.73l-67.77-39.13c-0.95-0.55-1.28-1.78-0.73-2.73l0.22-0.39
						c0.55-0.95,1.78-1.28,2.73-0.73l67.77,39.13c0.95,0.55,1.28,1.78,0.73,2.73L2753.87,2064.03z"/>
				</g>
				<g>
					<path class="st8" d="M2753.87,2077.37c-0.55,0.95-1.78,1.28-2.73,0.73l-67.77-39.13c-0.95-0.55-1.28-1.78-0.73-2.73l0.22-0.39
						c0.55-0.95,1.78-1.28,2.73-0.73l67.77,39.13c0.95,0.55,1.28,1.78,0.73,2.73L2753.87,2077.37z"/>
				</g>
				<g>
					<g>
						<line class="st9" x1="2755.4" y1="2027.64" x2="2728.38" y2="2012.04"/>
						<circle class="st10" cx="2722.82" cy="2008.71" r="2.22"/>
					</g>
					<g>
						<line class="st9" x1="2755.4" y1="2017.64" x2="2728.38" y2="2002.04"/>
						<circle class="st10" cx="2722.82" cy="1998.7" r="2.22"/>
					</g>
					<g>
						<line class="st9" x1="2755.4" y1="2006.52" x2="2728.38" y2="1990.92"/>
						<circle class="st10" cx="2722.82" cy="1987.59" r="2.22"/>
					</g>
					<g>
						<line class="st9" x1="2713.16" y1="2003.18" x2="2686.14" y2="1987.59"/>
						<circle class="st10" cx="2680.58" cy="1984.25" r="2.22"/>
					</g>
					<g>
						<line class="st9" x1="2755.4" y1="2037.65" x2="2728.38" y2="2022.05"/>
						<circle class="st10" cx="2722.82" cy="2018.71" r="2.22"/>
					</g>
					<g>
						<line class="st9" x1="2713.16" y1="2013.19" x2="2686.14" y2="1997.59"/>
						<circle class="st10" cx="2680.58" cy="1994.26" r="2.22"/>
					</g>
					<g>
						<line class="st9" x1="2713.16" y1="1993.18" x2="2686.14" y2="1977.58"/>
						<circle class="st10" cx="2680.58" cy="1974.25" r="2.22"/>
					</g>
					<g>
						<line class="st9" x1="2713.16" y1="1982.06" x2="2686.14" y2="1966.46"/>
						<circle class="st10" cx="2680.58" cy="1963.13" r="2.22"/>
					</g>
				</g>
				<circle class="st11" cx="2683.44" cy="1951.71" r="3.89"/>
				<circle class="st12" cx="2693.9" cy="1957.85" r="3.89"/>
				<line class="st13" x1="2835.34" y1="2048.34" x2="2854.6" y2="2037.22"/>
				<line class="st13" x1="2835.34" y1="2043.89" x2="2854.6" y2="2032.77"/>
				<line class="st13" x1="2835.34" y1="2039.44" x2="2854.6" y2="2028.33"/>
				<line class="st13" x1="2835.34" y1="2035" x2="2854.6" y2="2023.88"/>
				<line class="st13" x1="2835.34" y1="2030.55" x2="2854.6" y2="2019.43"/>
			</g>
			<g>
				<polygon class="st14" points="2786.28,2058.08 2882.55,2113.66 2978.82,2058.08 2882.55,2002.49 				"/>
				<polygon class="st15" points="2882.55,2224.82 2882.55,2113.66 2978.82,2058.08 2978.82,2169.24 				"/>
				<polygon class="st14" points="2882.54,2224.84 2882.54,2113.68 2786.27,2058.09 2786.27,2169.26 				"/>
				<polyline class="st7" points="2786.28,2058.08 2882.55,2113.66 2882.55,2224.82 2882.55,2113.66 2978.82,2058.08 				"/>
				<polygon class="st7" points="2786.28,2058.08 2786.28,2169.24 2882.55,2224.82 2978.82,2169.24 2978.82,2058.08 
					2882.55,2002.49 				"/>
				<g>
					<path class="st16" d="M2869.5,2178.94c-0.55,0.95-1.78,1.28-2.73,0.73l-67.77-39.13c-0.95-0.55-1.28-1.78-0.73-2.73l0.22-0.39
						c0.55-0.95,1.78-1.28,2.73-0.73l67.77,39.13c0.95,0.55,1.28,1.78,0.73,2.73L2869.5,2178.94z"/>
				</g>
				<g>
					<path class="st16" d="M2869.5,2192.28c-0.55,0.95-1.78,1.28-2.73,0.73l-67.77-39.13c-0.95-0.55-1.28-1.78-0.73-2.73l0.22-0.39
						c0.55-0.95,1.78-1.28,2.73-0.73l67.77,39.13c0.95,0.55,1.28,1.78,0.73,2.73L2869.5,2192.28z"/>
				</g>
				<g>
					<path class="st16" d="M2869.5,2205.62c-0.55,0.95-1.78,1.28-2.73,0.73l-67.77-39.13c-0.95-0.55-1.28-1.78-0.73-2.73l0.22-0.39
						c0.55-0.95,1.78-1.28,2.73-0.73l67.77,39.13c0.95,0.55,1.28,1.78,0.73,2.73L2869.5,2205.62z"/>
				</g>
				<g>
					<g>
						<line class="st9" x1="2871.04" y1="2155.88" x2="2844.02" y2="2140.28"/>
						<circle class="st10" cx="2838.46" cy="2136.95" r="2.22"/>
					</g>
					<g>
						<line class="st9" x1="2871.04" y1="2145.88" x2="2844.02" y2="2130.28"/>
						<circle class="st10" cx="2838.46" cy="2126.94" r="2.22"/>
					</g>
					<g>
						<line class="st9" x1="2871.04" y1="2134.76" x2="2844.02" y2="2119.16"/>
						<circle class="st10" cx="2838.46" cy="2115.83" r="2.22"/>
					</g>
					<g>
						<line class="st9" x1="2828.79" y1="2131.43" x2="2801.77" y2="2115.83"/>
						<circle class="st10" cx="2796.22" cy="2112.49" r="2.22"/>
					</g>
					<g>
						<line class="st9" x1="2871.04" y1="2165.89" x2="2844.02" y2="2150.29"/>
						<circle class="st10" cx="2838.46" cy="2146.95" r="2.22"/>
					</g>
					<g>
						<line class="st9" x1="2828.79" y1="2141.43" x2="2801.77" y2="2125.83"/>
						<circle class="st10" cx="2796.22" cy="2122.5" r="2.22"/>
					</g>
					<g>
						<line class="st9" x1="2828.79" y1="2121.42" x2="2801.77" y2="2105.82"/>
						<circle class="st10" cx="2796.22" cy="2102.49" r="2.22"/>
					</g>
					<g>
						<line class="st9" x1="2828.79" y1="2110.31" x2="2801.77" y2="2094.71"/>
						<circle class="st10" cx="2796.22" cy="2091.37" r="2.22"/>
					</g>
				</g>
				<circle class="st11" cx="2799.08" cy="2079.96" r="3.89"/>
				<circle class="st12" cx="2809.53" cy="2086.09" r="3.89"/>
				<line class="st13" x1="2950.98" y1="2176.58" x2="2970.23" y2="2165.46"/>
				<line class="st13" x1="2950.98" y1="2172.13" x2="2970.23" y2="2161.02"/>
				<line class="st13" x1="2950.98" y1="2167.69" x2="2970.23" y2="2156.57"/>
				<line class="st13" x1="2950.98" y1="2163.24" x2="2970.23" y2="2152.12"/>
				<line class="st13" x1="2950.98" y1="2158.79" x2="2970.23" y2="2147.68"/>
			</g>
			<g>
				<polygon class="st14" points="2900.91,2127.48 2997.18,2183.06 3093.46,2127.48 2997.18,2071.9 				"/>
				<polygon class="st15" points="2997.18,2294.23 2997.18,2183.06 3093.46,2127.48 3093.46,2238.64 				"/>
				<polygon class="st14" points="2997.17,2294.24 2997.17,2183.08 2900.9,2127.5 2900.9,2238.66 				"/>
				<polyline class="st7" points="2900.91,2127.48 2997.18,2183.06 2997.18,2294.23 2997.18,2183.06 3093.46,2127.48 				"/>
				<polygon class="st7" points="2900.91,2127.48 2900.91,2238.64 2997.18,2294.23 3093.46,2238.64 3093.46,2127.48 2997.18,2071.9 
									"/>
				<g>
					<path class="st16" d="M2984.14,2248.34c-0.55,0.95-1.78,1.28-2.73,0.73l-67.77-39.13c-0.95-0.55-1.28-1.78-0.73-2.73l0.22-0.39
						c0.55-0.95,1.78-1.28,2.73-0.73l67.77,39.13c0.95,0.55,1.28,1.78,0.73,2.73L2984.14,2248.34z"/>
				</g>
				<g>
					<path class="st16" d="M2984.14,2261.68c-0.55,0.95-1.78,1.28-2.73,0.73l-67.77-39.13c-0.95-0.55-1.28-1.78-0.73-2.73l0.22-0.39
						c0.55-0.95,1.78-1.28,2.73-0.73l67.77,39.13c0.95,0.55,1.28,1.78,0.73,2.73L2984.14,2261.68z"/>
				</g>
				<g>
					<path class="st16" d="M2984.14,2275.02c-0.55,0.95-1.78,1.28-2.73,0.73l-67.77-39.13c-0.95-0.55-1.28-1.78-0.73-2.73l0.22-0.39
						c0.55-0.95,1.78-1.28,2.73-0.73l67.77,39.13c0.95,0.55,1.28,1.78,0.73,2.73L2984.14,2275.02z"/>
				</g>
				<g>
					<g>
						<line class="st9" x1="2985.67" y1="2225.29" x2="2958.65" y2="2209.69"/>
						<circle class="st10" cx="2953.09" cy="2206.35" r="2.22"/>
					</g>
					<g>
						<line class="st9" x1="2985.67" y1="2215.28" x2="2958.65" y2="2199.68"/>
						<circle class="st10" cx="2953.09" cy="2196.35" r="2.22"/>
					</g>
					<g>
						<line class="st9" x1="2985.67" y1="2204.17" x2="2958.65" y2="2188.57"/>
						<circle class="st10" cx="2953.09" cy="2185.23" r="2.22"/>
					</g>
					<g>
						<line class="st9" x1="2943.43" y1="2200.83" x2="2916.41" y2="2185.23"/>
						<circle class="st10" cx="2910.85" cy="2181.9" r="2.22"/>
					</g>
					<g>
						<line class="st9" x1="2985.67" y1="2235.29" x2="2958.65" y2="2219.69"/>
						<circle class="st10" cx="2953.09" cy="2216.36" r="2.22"/>
					</g>
					<g>
						<line class="st9" x1="2943.43" y1="2210.84" x2="2916.41" y2="2195.24"/>
						<circle class="st10" cx="2910.85" cy="2191.9" r="2.22"/>
					</g>
					<g>
						<line class="st9" x1="2943.43" y1="2190.83" x2="2916.41" y2="2175.23"/>
						<circle class="st10" cx="2910.85" cy="2171.89" r="2.22"/>
					</g>
					<g>
						<line class="st9" x1="2943.43" y1="2179.71" x2="2916.41" y2="2164.11"/>
						<circle class="st10" cx="2910.85" cy="2160.78" r="2.22"/>
					</g>
				</g>
				<circle class="st11" cx="2913.71" cy="2149.36" r="3.89"/>
				<circle class="st12" cx="2924.17" cy="2155.5" r="3.89"/>
				<line class="st13" x1="3065.61" y1="2245.98" x2="3084.86" y2="2234.87"/>
				<line class="st13" x1="3065.61" y1="2241.54" x2="3084.86" y2="2230.42"/>
				<line class="st13" x1="3065.61" y1="2237.09" x2="3084.86" y2="2225.97"/>
				<line class="st13" x1="3065.61" y1="2232.64" x2="3084.86" y2="2221.53"/>
				<line class="st13" x1="3065.61" y1="2228.2" x2="3084.86" y2="2217.08"/>
			</g>
			<g>
				<polygon class="st14" points="2554.07,2059.83 2650.35,2115.41 2746.62,2059.83 2650.35,2004.25 				"/>
				<polygon class="st15" points="2650.35,2226.58 2650.35,2115.41 2746.62,2059.83 2746.62,2171 				"/>
				<polygon class="st14" points="2650.34,2226.59 2650.34,2115.43 2554.06,2059.85 2554.06,2171.01 				"/>
				<polyline class="st7" points="2554.07,2059.83 2650.35,2115.41 2650.35,2226.58 2650.35,2115.41 2746.62,2059.83 				"/>
				<polygon class="st7" points="2554.07,2059.83 2554.07,2171 2650.35,2226.58 2746.62,2171 2746.62,2059.83 2650.35,2004.25 				
					"/>
				<g>
					<path class="st16" d="M2637.3,2180.69c-0.55,0.95-1.78,1.28-2.73,0.73l-67.77-39.13c-0.95-0.55-1.28-1.78-0.73-2.73l0.22-0.39
						c0.55-0.95,1.78-1.28,2.73-0.73l67.77,39.13c0.95,0.55,1.28,1.78,0.73,2.73L2637.3,2180.69z"/>
				</g>
				<g>
					<path class="st16" d="M2637.3,2194.03c-0.55,0.95-1.78,1.28-2.73,0.73l-67.77-39.13c-0.95-0.55-1.28-1.78-0.73-2.73l0.22-0.39
						c0.55-0.95,1.78-1.28,2.73-0.73l67.77,39.13c0.95,0.55,1.28,1.78,0.73,2.73L2637.3,2194.03z"/>
				</g>
				<g>
					<path class="st16" d="M2637.3,2207.37c-0.55,0.95-1.78,1.28-2.73,0.73l-67.77-39.13c-0.95-0.55-1.28-1.78-0.73-2.73l0.22-0.39
						c0.55-0.95,1.78-1.28,2.73-0.73l67.77,39.13c0.95,0.55,1.28,1.78,0.73,2.73L2637.3,2207.37z"/>
				</g>
				<g>
					<g>
						<line class="st9" x1="2638.83" y1="2157.64" x2="2611.81" y2="2142.04"/>
						<circle class="st10" cx="2606.25" cy="2138.7" r="2.22"/>
					</g>
					<g>
						<line class="st9" x1="2638.83" y1="2147.63" x2="2611.81" y2="2132.03"/>
						<circle class="st10" cx="2606.25" cy="2128.7" r="2.22"/>
					</g>
					<g>
						<line class="st9" x1="2638.83" y1="2136.52" x2="2611.81" y2="2120.92"/>
						<circle class="st10" cx="2606.25" cy="2117.58" r="2.22"/>
					</g>
					<g>
						<line class="st9" x1="2596.59" y1="2133.18" x2="2569.57" y2="2117.58"/>
						<circle class="st10" cx="2564.01" cy="2114.25" r="2.22"/>
					</g>
					<g>
						<line class="st9" x1="2638.83" y1="2167.64" x2="2611.81" y2="2152.04"/>
						<circle class="st10" cx="2606.25" cy="2148.71" r="2.22"/>
					</g>
					<g>
						<line class="st9" x1="2596.59" y1="2143.19" x2="2569.57" y2="2127.59"/>
						<circle class="st10" cx="2564.01" cy="2124.25" r="2.22"/>
					</g>
					<g>
						<line class="st9" x1="2596.59" y1="2123.18" x2="2569.57" y2="2107.58"/>
						<circle class="st10" cx="2564.01" cy="2104.24" r="2.22"/>
					</g>
					<g>
						<line class="st9" x1="2596.59" y1="2112.06" x2="2569.57" y2="2096.46"/>
						<circle class="st10" cx="2564.01" cy="2093.13" r="2.22"/>
					</g>
				</g>
				<circle class="st11" cx="2566.87" cy="2081.71" r="3.89"/>
				<circle class="st12" cx="2577.33" cy="2087.85" r="3.89"/>
				<line class="st13" x1="2718.77" y1="2178.33" x2="2738.02" y2="2167.22"/>
				<line class="st13" x1="2718.77" y1="2173.89" x2="2738.02" y2="2162.77"/>
				<line class="st13" x1="2718.77" y1="2169.44" x2="2738.02" y2="2158.32"/>
				<line class="st13" x1="2718.77" y1="2164.99" x2="2738.02" y2="2153.88"/>
				<line class="st13" x1="2718.77" y1="2160.55" x2="2738.02" y2="2149.43"/>
			</g>
			<g>
				<polygon class="st14" points="2438.46,2128.21 2534.73,2183.79 2631.01,2128.21 2534.73,2072.62 				"/>
				<polygon class="st15" points="2534.73,2294.95 2534.73,2183.79 2631.01,2128.21 2631.01,2239.37 				"/>
				<polygon class="st14" points="2534.72,2294.97 2534.72,2183.8 2438.45,2128.22 2438.45,2239.39 				"/>
				<polyline class="st7" points="2438.46,2128.21 2534.73,2183.79 2534.73,2294.95 2534.73,2183.79 2631.01,2128.21 				"/>
				<polygon class="st7" points="2438.46,2128.21 2438.46,2239.37 2534.73,2294.95 2631.01,2239.37 2631.01,2128.21 
					2534.73,2072.62 				"/>
				<g>
					<path class="st16" d="M2521.69,2249.07c-0.55,0.95-1.78,1.28-2.73,0.73l-67.77-39.13c-0.95-0.55-1.28-1.78-0.73-2.73l0.22-0.39
						c0.55-0.95,1.78-1.28,2.73-0.73l67.77,39.13c0.95,0.55,1.28,1.78,0.73,2.73L2521.69,2249.07z"/>
				</g>
				<g>
					<path class="st16" d="M2521.69,2262.41c-0.55,0.95-1.78,1.28-2.73,0.73l-67.77-39.13c-0.95-0.55-1.28-1.78-0.73-2.73l0.22-0.39
						c0.55-0.95,1.78-1.28,2.73-0.73l67.77,39.13c0.95,0.55,1.28,1.78,0.73,2.73L2521.69,2262.41z"/>
				</g>
				<g>
					<path class="st16" d="M2521.69,2275.75c-0.55,0.95-1.78,1.28-2.73,0.73l-67.77-39.13c-0.95-0.55-1.28-1.78-0.73-2.73l0.22-0.39
						c0.55-0.95,1.78-1.28,2.73-0.73l67.77,39.13c0.95,0.55,1.28,1.78,0.73,2.73L2521.69,2275.75z"/>
				</g>
				<g>
					<g>
						<line class="st9" x1="2523.22" y1="2226.01" x2="2496.2" y2="2210.41"/>
						<circle class="st10" cx="2490.64" cy="2207.08" r="2.22"/>
					</g>
					<g>
						<line class="st9" x1="2523.22" y1="2216.01" x2="2496.2" y2="2200.41"/>
						<circle class="st10" cx="2490.64" cy="2197.07" r="2.22"/>
					</g>
					<g>
						<line class="st9" x1="2523.22" y1="2204.89" x2="2496.2" y2="2189.29"/>
						<circle class="st10" cx="2490.64" cy="2185.96" r="2.22"/>
					</g>
					<g>
						<line class="st9" x1="2480.98" y1="2201.56" x2="2453.96" y2="2185.96"/>
						<circle class="st10" cx="2448.4" cy="2182.62" r="2.22"/>
					</g>
					<g>
						<line class="st9" x1="2523.22" y1="2236.02" x2="2496.2" y2="2220.42"/>
						<circle class="st10" cx="2490.64" cy="2217.08" r="2.22"/>
					</g>
					<g>
						<line class="st9" x1="2480.98" y1="2211.56" x2="2453.96" y2="2195.96"/>
						<circle class="st10" cx="2448.4" cy="2192.63" r="2.22"/>
					</g>
					<g>
						<line class="st9" x1="2480.98" y1="2191.55" x2="2453.96" y2="2175.95"/>
						<circle class="st10" cx="2448.4" cy="2172.62" r="2.22"/>
					</g>
					<g>
						<line class="st9" x1="2480.98" y1="2180.43" x2="2453.96" y2="2164.84"/>
						<circle class="st10" cx="2448.4" cy="2161.5" r="2.22"/>
					</g>
				</g>
				<circle class="st11" cx="2451.26" cy="2150.08" r="3.89"/>
				<circle class="st12" cx="2461.72" cy="2156.22" r="3.89"/>
				<line class="st13" x1="2603.16" y1="2246.71" x2="2622.41" y2="2235.59"/>
				<line class="st13" x1="2603.16" y1="2242.26" x2="2622.41" y2="2231.14"/>
				<line class="st13" x1="2603.16" y1="2237.81" x2="2622.41" y2="2226.7"/>
				<line class="st13" x1="2603.16" y1="2233.37" x2="2622.41" y2="2222.25"/>
				<line class="st13" x1="2603.16" y1="2228.92" x2="2622.41" y2="2217.8"/>
			</g>
			<g>
				<polygon class="st14" points="2669.69,2126.84 2765.96,2182.42 2862.23,2126.84 2765.96,2071.26 				"/>
				<polygon class="st15" points="2765.96,2293.59 2765.96,2182.42 2862.23,2126.84 2862.23,2238.01 				"/>
				<polygon class="st14" points="2765.95,2293.6 2765.95,2182.44 2669.68,2126.86 2669.68,2238.02 				"/>
				<polyline class="st7" points="2669.69,2126.84 2765.96,2182.42 2765.96,2293.59 2765.96,2182.42 2862.23,2126.84 				"/>
				<polygon class="st7" points="2669.69,2126.84 2669.69,2238.01 2765.96,2293.59 2862.23,2238.01 2862.23,2126.84 
					2765.96,2071.26 				"/>
				<g>
					<path class="st16" d="M2752.91,2247.7c-0.55,0.95-1.78,1.28-2.73,0.73l-67.77-39.13c-0.95-0.55-1.28-1.78-0.73-2.73l0.22-0.39
						c0.55-0.95,1.78-1.28,2.73-0.73l67.77,39.13c0.95,0.55,1.28,1.78,0.73,2.73L2752.91,2247.7z"/>
				</g>
				<g>
					<path class="st16" d="M2752.91,2261.04c-0.55,0.95-1.78,1.28-2.73,0.73l-67.77-39.13c-0.95-0.55-1.28-1.78-0.73-2.73l0.22-0.39
						c0.55-0.95,1.78-1.28,2.73-0.73l67.77,39.13c0.95,0.55,1.28,1.78,0.73,2.73L2752.91,2261.04z"/>
				</g>
				<g>
					<path class="st16" d="M2752.91,2274.38c-0.55,0.95-1.78,1.28-2.73,0.73l-67.77-39.13c-0.95-0.55-1.28-1.78-0.73-2.73l0.22-0.39
						c0.55-0.95,1.78-1.28,2.73-0.73l67.77,39.13c0.95,0.55,1.28,1.78,0.73,2.73L2752.91,2274.38z"/>
				</g>
				<g>
					<g>
						<line class="st9" x1="2754.45" y1="2224.65" x2="2727.43" y2="2209.05"/>
						<circle class="st10" cx="2721.87" cy="2205.71" r="2.22"/>
					</g>
					<g>
						<line class="st9" x1="2754.45" y1="2214.64" x2="2727.43" y2="2199.04"/>
						<circle class="st10" cx="2721.87" cy="2195.71" r="2.22"/>
					</g>
					<g>
						<line class="st9" x1="2754.45" y1="2203.53" x2="2727.43" y2="2187.93"/>
						<circle class="st10" cx="2721.87" cy="2184.59" r="2.22"/>
					</g>
					<g>
						<line class="st9" x1="2712.2" y1="2200.19" x2="2685.19" y2="2184.59"/>
						<circle class="st10" cx="2679.63" cy="2181.26" r="2.22"/>
					</g>
					<g>
						<line class="st9" x1="2754.45" y1="2234.65" x2="2727.43" y2="2219.05"/>
						<circle class="st10" cx="2721.87" cy="2215.72" r="2.22"/>
					</g>
					<g>
						<line class="st9" x1="2712.2" y1="2210.2" x2="2685.19" y2="2194.6"/>
						<circle class="st10" cx="2679.63" cy="2191.26" r="2.22"/>
					</g>
					<g>
						<line class="st9" x1="2712.2" y1="2190.19" x2="2685.19" y2="2174.59"/>
						<circle class="st10" cx="2679.63" cy="2171.25" r="2.22"/>
					</g>
					<g>
						<line class="st9" x1="2712.2" y1="2179.07" x2="2685.19" y2="2163.47"/>
						<circle class="st10" cx="2679.63" cy="2160.14" r="2.22"/>
					</g>
				</g>
				<circle class="st11" cx="2682.49" cy="2148.72" r="3.89"/>
				<circle class="st12" cx="2692.95" cy="2154.86" r="3.89"/>
				<line class="st13" x1="2834.39" y1="2245.34" x2="2853.64" y2="2234.23"/>
				<line class="st13" x1="2834.39" y1="2240.9" x2="2853.64" y2="2229.78"/>
				<line class="st13" x1="2834.39" y1="2236.45" x2="2853.64" y2="2225.33"/>
				<line class="st13" x1="2834.39" y1="2232" x2="2853.64" y2="2220.89"/>
				<line class="st13" x1="2834.39" y1="2227.56" x2="2853.64" y2="2216.44"/>
			</g>
			<g>
				<polygon class="st14" points="2554.08,2195.22 2650.36,2250.8 2746.63,2195.22 2650.36,2139.63 				"/>
				<polygon class="st15" points="2650.36,2361.96 2650.36,2250.8 2746.63,2195.22 2746.63,2306.38 				"/>
				<polygon class="st14" points="2650.35,2361.98 2650.35,2250.81 2554.07,2195.23 2554.07,2306.4 				"/>
				<polyline class="st7" points="2554.08,2195.22 2650.36,2250.8 2650.36,2361.96 2650.36,2250.8 2746.63,2195.22 				"/>
				<polygon class="st7" points="2554.08,2195.22 2554.08,2306.38 2650.36,2361.96 2746.63,2306.38 2746.63,2195.22 
					2650.36,2139.63 				"/>
				<g>
					<path class="st16" d="M2637.31,2316.08c-0.55,0.95-1.78,1.28-2.73,0.73l-67.77-39.13c-0.95-0.55-1.28-1.78-0.73-2.73l0.22-0.39
						c0.55-0.95,1.78-1.28,2.73-0.73l67.77,39.13c0.95,0.55,1.28,1.78,0.73,2.73L2637.31,2316.08z"/>
				</g>
				<g>
					<path class="st16" d="M2637.31,2329.42c-0.55,0.95-1.78,1.28-2.73,0.73l-67.77-39.13c-0.95-0.55-1.28-1.78-0.73-2.73l0.22-0.39
						c0.55-0.95,1.78-1.28,2.73-0.73l67.77,39.13c0.95,0.55,1.28,1.78,0.73,2.73L2637.31,2329.42z"/>
				</g>
				<g>
					<path class="st16" d="M2637.31,2342.76c-0.55,0.95-1.78,1.28-2.73,0.73l-67.77-39.13c-0.95-0.55-1.28-1.78-0.73-2.73l0.22-0.39
						c0.55-0.95,1.78-1.28,2.73-0.73l67.77,39.13c0.95,0.55,1.28,1.78,0.73,2.73L2637.31,2342.76z"/>
				</g>
				<g>
					<g>
						<line class="st9" x1="2638.84" y1="2293.02" x2="2611.82" y2="2277.42"/>
						<circle class="st10" cx="2606.26" cy="2274.09" r="2.22"/>
					</g>
					<g>
						<line class="st9" x1="2638.84" y1="2283.02" x2="2611.82" y2="2267.42"/>
						<circle class="st10" cx="2606.26" cy="2264.08" r="2.22"/>
					</g>
					<g>
						<line class="st9" x1="2638.84" y1="2271.9" x2="2611.82" y2="2256.3"/>
						<circle class="st10" cx="2606.26" cy="2252.97" r="2.22"/>
					</g>
					<g>
						<line class="st9" x1="2596.6" y1="2268.57" x2="2569.58" y2="2252.97"/>
						<circle class="st10" cx="2564.02" cy="2249.63" r="2.22"/>
					</g>
					<g>
						<line class="st9" x1="2638.84" y1="2303.03" x2="2611.82" y2="2287.43"/>
						<circle class="st10" cx="2606.26" cy="2284.09" r="2.22"/>
					</g>
					<g>
						<line class="st9" x1="2596.6" y1="2278.57" x2="2569.58" y2="2262.97"/>
						<circle class="st10" cx="2564.02" cy="2259.64" r="2.22"/>
					</g>
					<g>
						<line class="st9" x1="2596.6" y1="2258.56" x2="2569.58" y2="2242.96"/>
						<circle class="st10" cx="2564.02" cy="2239.63" r="2.22"/>
					</g>
					<g>
						<line class="st9" x1="2596.6" y1="2247.45" x2="2569.58" y2="2231.85"/>
						<circle class="st10" cx="2564.02" cy="2228.51" r="2.22"/>
					</g>
				</g>
				<circle class="st11" cx="2566.88" cy="2217.1" r="3.89"/>
				<circle class="st12" cx="2577.34" cy="2223.23" r="3.89"/>
				<line class="st13" x1="2718.78" y1="2313.72" x2="2738.04" y2="2302.6"/>
				<line class="st13" x1="2718.78" y1="2309.27" x2="2738.04" y2="2298.15"/>
				<line class="st13" x1="2718.78" y1="2304.82" x2="2738.04" y2="2293.71"/>
				<line class="st13" x1="2718.78" y1="2300.38" x2="2738.04" y2="2289.26"/>
				<line class="st13" x1="2718.78" y1="2295.93" x2="2738.04" y2="2284.81"/>
			</g>
			<g>
				<polygon class="st14" points="2785.3,2193.85 2881.57,2249.43 2977.84,2193.85 2881.57,2138.27 				"/>
				<polygon class="st15" points="2881.57,2360.6 2881.57,2249.43 2977.84,2193.85 2977.84,2305.02 				"/>
				<polygon class="st14" points="2881.56,2360.62 2881.56,2249.45 2785.29,2193.87 2785.29,2305.03 				"/>
				<polyline class="st7" points="2785.3,2193.85 2881.57,2249.43 2881.57,2360.6 2881.57,2249.43 2977.84,2193.85 				"/>
				<polygon class="st7" points="2785.3,2193.85 2785.3,2305.02 2881.57,2360.6 2977.84,2305.02 2977.84,2193.85 2881.57,2138.27 
									"/>
				<g>
					<path class="st16" d="M2868.53,2314.71c-0.55,0.95-1.78,1.28-2.73,0.73l-67.77-39.13c-0.95-0.55-1.28-1.78-0.73-2.73l0.22-0.39
						c0.55-0.95,1.78-1.28,2.73-0.73l67.77,39.13c0.95,0.55,1.28,1.78,0.73,2.73L2868.53,2314.71z"/>
				</g>
				<g>
					<path class="st16" d="M2868.53,2328.05c-0.55,0.95-1.78,1.28-2.73,0.73l-67.77-39.13c-0.95-0.55-1.28-1.78-0.73-2.73l0.22-0.39
						c0.55-0.95,1.78-1.28,2.73-0.73l67.77,39.13c0.95,0.55,1.28,1.78,0.73,2.73L2868.53,2328.05z"/>
				</g>
				<g>
					<path class="st16" d="M2868.53,2341.39c-0.55,0.95-1.78,1.28-2.73,0.73l-67.77-39.13c-0.95-0.55-1.28-1.78-0.73-2.73l0.22-0.39
						c0.55-0.95,1.78-1.28,2.73-0.73l67.77,39.13c0.95,0.55,1.28,1.78,0.73,2.73L2868.53,2341.39z"/>
				</g>
				<g>
					<g>
						<line class="st9" x1="2870.06" y1="2291.66" x2="2843.04" y2="2276.06"/>
						<circle class="st10" cx="2837.48" cy="2272.72" r="2.22"/>
					</g>
					<g>
						<line class="st9" x1="2870.06" y1="2281.65" x2="2843.04" y2="2266.06"/>
						<circle class="st10" cx="2837.48" cy="2262.72" r="2.22"/>
					</g>
					<g>
						<line class="st9" x1="2870.06" y1="2270.54" x2="2843.04" y2="2254.94"/>
						<circle class="st10" cx="2837.48" cy="2251.6" r="2.22"/>
					</g>
					<g>
						<line class="st9" x1="2827.82" y1="2267.2" x2="2800.8" y2="2251.6"/>
						<circle class="st10" cx="2795.24" cy="2248.27" r="2.22"/>
					</g>
					<g>
						<line class="st9" x1="2870.06" y1="2301.66" x2="2843.04" y2="2286.06"/>
						<circle class="st10" cx="2837.48" cy="2282.73" r="2.22"/>
					</g>
					<g>
						<line class="st9" x1="2827.82" y1="2277.21" x2="2800.8" y2="2261.61"/>
						<circle class="st10" cx="2795.24" cy="2258.27" r="2.22"/>
					</g>
					<g>
						<line class="st9" x1="2827.82" y1="2257.2" x2="2800.8" y2="2241.6"/>
						<circle class="st10" cx="2795.24" cy="2238.26" r="2.22"/>
					</g>
					<g>
						<line class="st9" x1="2827.82" y1="2246.08" x2="2800.8" y2="2230.48"/>
						<circle class="st10" cx="2795.24" cy="2227.15" r="2.22"/>
					</g>
				</g>
				<circle class="st11" cx="2798.1" cy="2215.73" r="3.89"/>
				<circle class="st12" cx="2808.56" cy="2221.87" r="3.89"/>
				<line class="st13" x1="2950" y1="2312.35" x2="2969.25" y2="2301.24"/>
				<line class="st13" x1="2950" y1="2307.91" x2="2969.25" y2="2296.79"/>
				<line class="st13" x1="2950" y1="2303.46" x2="2969.25" y2="2292.34"/>
				<line class="st13" x1="2950" y1="2299.01" x2="2969.25" y2="2287.9"/>
				<line class="st13" x1="2950" y1="2294.57" x2="2969.25" y2="2283.45"/>
			</g>
			<g>
				<polygon class="st14" points="2669.69,2262.23 2765.96,2317.81 2862.23,2262.23 2765.96,2206.64 				"/>
				<polygon class="st15" points="2765.96,2428.97 2765.96,2317.81 2862.23,2262.23 2862.23,2373.39 				"/>
				<polygon class="st14" points="2765.95,2428.99 2765.95,2317.83 2669.68,2262.24 2669.68,2373.41 				"/>
				<polyline class="st7" points="2669.69,2262.23 2765.96,2317.81 2765.96,2428.97 2765.96,2317.81 2862.23,2262.23 				"/>
				<polygon class="st7" points="2669.69,2262.23 2669.69,2373.39 2765.96,2428.97 2862.23,2373.39 2862.23,2262.23 
					2765.96,2206.64 				"/>
				<g>
					<path class="st16" d="M2752.91,2383.09c-0.55,0.95-1.78,1.28-2.73,0.73l-67.77-39.13c-0.95-0.55-1.28-1.78-0.73-2.73l0.22-0.39
						c0.55-0.95,1.78-1.28,2.73-0.73l67.77,39.13c0.95,0.55,1.28,1.78,0.73,2.73L2752.91,2383.09z"/>
				</g>
				<g>
					<path class="st16" d="M2752.91,2396.43c-0.55,0.95-1.78,1.28-2.73,0.73l-67.77-39.13c-0.95-0.55-1.28-1.78-0.73-2.73l0.22-0.39
						c0.55-0.95,1.78-1.28,2.73-0.73l67.77,39.13c0.95,0.55,1.28,1.78,0.73,2.73L2752.91,2396.43z"/>
				</g>
				<g>
					<path class="st16" d="M2752.91,2409.77c-0.55,0.95-1.78,1.28-2.73,0.73l-67.77-39.13c-0.95-0.55-1.28-1.78-0.73-2.73l0.22-0.39
						c0.55-0.95,1.78-1.28,2.73-0.73l67.77,39.13c0.95,0.55,1.28,1.78,0.73,2.73L2752.91,2409.77z"/>
				</g>
				<g>
					<g>
						<line class="st9" x1="2754.45" y1="2360.03" x2="2727.43" y2="2344.43"/>
						<circle class="st10" cx="2721.87" cy="2341.1" r="2.22"/>
					</g>
					<g>
						<line class="st9" x1="2754.45" y1="2350.03" x2="2727.43" y2="2334.43"/>
						<circle class="st10" cx="2721.87" cy="2331.09" r="2.22"/>
					</g>
					<g>
						<line class="st9" x1="2754.45" y1="2338.91" x2="2727.43" y2="2323.31"/>
						<circle class="st10" cx="2721.87" cy="2319.98" r="2.22"/>
					</g>
					<g>
						<line class="st9" x1="2712.2" y1="2335.58" x2="2685.19" y2="2319.98"/>
						<circle class="st10" cx="2679.63" cy="2316.64" r="2.22"/>
					</g>
					<g>
						<line class="st9" x1="2754.45" y1="2370.04" x2="2727.43" y2="2354.44"/>
						<circle class="st10" cx="2721.87" cy="2351.1" r="2.22"/>
					</g>
					<g>
						<line class="st9" x1="2712.2" y1="2345.58" x2="2685.19" y2="2329.98"/>
						<circle class="st10" cx="2679.63" cy="2326.65" r="2.22"/>
					</g>
					<g>
						<line class="st9" x1="2712.2" y1="2325.57" x2="2685.19" y2="2309.97"/>
						<circle class="st10" cx="2679.63" cy="2306.64" r="2.22"/>
					</g>
					<g>
						<line class="st9" x1="2712.2" y1="2314.46" x2="2685.19" y2="2298.86"/>
						<circle class="st10" cx="2679.63" cy="2295.52" r="2.22"/>
					</g>
				</g>
				<circle class="st11" cx="2682.49" cy="2284.11" r="3.89"/>
				<circle class="st12" cx="2692.95" cy="2290.24" r="3.89"/>
				<line class="st13" x1="2834.39" y1="2380.73" x2="2853.64" y2="2369.61"/>
				<line class="st13" x1="2834.39" y1="2376.28" x2="2853.64" y2="2365.17"/>
				<line class="st13" x1="2834.39" y1="2371.84" x2="2853.64" y2="2360.72"/>
				<line class="st13" x1="2834.39" y1="2367.39" x2="2853.64" y2="2356.27"/>
				<line class="st13" x1="2834.39" y1="2362.94" x2="2853.64" y2="2351.83"/>
			</g>
		</g>
		<polyline class="st4" points="2380.92,2058.95 2765.9,2281.22 2765.91,2281.22 3150.9,2058.94 2765.9,1836.66 2380.9,2058.94 		
			"/>
		<polyline class="st4" points="2765.91,2462.42 3150.9,2240.14 3150.9,2058.94 3150.9,2058.94 2765.91,2281.22 2765.91,2281.22 
			2765.91,2462.42 		"/>
		<polyline class="st4" points="2380.92,2058.94 2380.92,2240.14 2380.92,2240.14 2765.91,2462.42 2765.91,2281.22 2765.9,2281.22 
			2380.92,2058.95 		"/>
		<line class="st2" x1="2765.91" y1="2462.42" x2="2765.91" y2="2281.22"/>
		<line class="st3" x1="2765.91" y1="2281.22" x2="3150.9" y2="2058.94"/>
		<line class="st2" x1="2765.9" y1="2281.22" x2="2380.92" y2="2058.95"/>
	</g>
	<g>
		<line class="st2" x1="1747.37" y1="1915.8" x2="1747.37" y2="1734.6"/>
		<line class="st2" x1="2132.37" y1="2138.08" x2="1747.37" y2="1915.8"/>
		<line class="st3" x1="1362.37" y1="2138.08" x2="1747.37" y2="1915.8"/>
		<line class="st3" x1="1747.38" y1="2360.35" x2="2132.37" y2="2138.08"/>
		<line class="st2" x1="1747.37" y1="2360.35" x2="1362.38" y2="2138.08"/>
		<line class="st2" x1="2132.36" y1="1956.88" x2="1747.36" y2="1734.6"/>
		<line class="st3" x1="1362.37" y1="1956.88" x2="1747.36" y2="1734.6"/>
		<line class="st2" x1="1747.37" y1="2360.35" x2="1747.37" y2="2179.16"/>
		<line class="st2" x1="2132.37" y1="2138.08" x2="2132.37" y2="1956.88"/>
		<line class="st2" x1="1362.38" y1="2138.08" x2="1362.38" y2="1956.88"/>
		<line class="st2" x1="1747.37" y1="1915.8" x2="1747.37" y2="1734.6"/>
		<line class="st2" x1="2132.37" y1="2138.08" x2="1747.37" y2="1915.8"/>
		<line class="st3" x1="1362.37" y1="2138.08" x2="1747.37" y2="1915.8"/>
		<line class="st3" x1="1747.38" y1="2360.35" x2="2132.37" y2="2138.08"/>
		<line class="st2" x1="1747.37" y1="2360.35" x2="1362.38" y2="2138.08"/>
		<line class="st2" x1="2132.36" y1="1956.88" x2="1747.36" y2="1734.6"/>
		<line class="st3" x1="1362.37" y1="1956.88" x2="1747.36" y2="1734.6"/>
		<line class="st3" x1="1747.37" y1="2179.16" x2="2132.36" y2="1956.88"/>
		<line class="st2" x1="1747.36" y1="2179.16" x2="1362.38" y2="1956.88"/>
		<line class="st2" x1="2132.37" y1="2138.08" x2="2132.37" y2="1956.88"/>
		<line class="st2" x1="1362.38" y1="2138.08" x2="1362.38" y2="1956.88"/>
		<polyline class="st4" points="1747.36,1734.6 2132.36,1956.88 2132.37,1956.88 2132.37,2138.08 1747.37,1915.8 1747.37,1734.6 		
			"/>
		<polyline class="st4" points="1362.37,1956.88 1747.36,1734.6 1747.37,1734.6 1747.37,1915.8 1362.37,2138.08 1362.38,2138.08 
			1362.38,1956.88 		"/>
		<polyline class="st4" points="1362.38,2138.08 1747.37,2360.35 1747.38,2360.35 2132.37,2138.08 1747.37,1915.8 1362.37,2138.08 
					"/>
		<g>
			<g>
				<polygon class="st5" points="1652.11,1827.77 1748.38,1883.36 1844.65,1827.77 1748.38,1772.19 				"/>
				<polygon class="st6" points="1748.38,1994.52 1748.38,1883.36 1844.65,1827.77 1844.65,1938.94 				"/>
				<polygon class="st5" points="1748.37,1994.54 1748.37,1883.37 1652.1,1827.79 1652.1,1938.95 				"/>
				<polyline class="st7" points="1652.11,1827.77 1748.38,1883.36 1748.38,1994.52 1748.38,1883.36 1844.65,1827.77 				"/>
				<polygon class="st7" points="1652.11,1827.77 1652.11,1938.94 1748.38,1994.52 1844.65,1938.94 1844.65,1827.77 
					1748.38,1772.19 				"/>
				<g>
					<path class="st8" d="M1735.33,1948.63c-0.55,0.95-1.78,1.28-2.73,0.73l-67.77-39.13c-0.95-0.55-1.28-1.78-0.73-2.73l0.22-0.39
						c0.55-0.95,1.78-1.28,2.73-0.73l67.77,39.13c0.95,0.55,1.28,1.78,0.73,2.73L1735.33,1948.63z"/>
				</g>
				<g>
					<path class="st8" d="M1735.33,1961.97c-0.55,0.95-1.78,1.28-2.73,0.73l-67.77-39.13c-0.95-0.55-1.28-1.78-0.73-2.73l0.22-0.39
						c0.55-0.95,1.78-1.28,2.73-0.73l67.77,39.13c0.95,0.55,1.28,1.78,0.73,2.73L1735.33,1961.97z"/>
				</g>
				<g>
					<path class="st8" d="M1735.33,1975.31c-0.55,0.95-1.78,1.28-2.73,0.73l-67.77-39.13c-0.95-0.55-1.28-1.78-0.73-2.73l0.22-0.39
						c0.55-0.95,1.78-1.28,2.73-0.73l67.77,39.13c0.95,0.55,1.28,1.78,0.73,2.73L1735.33,1975.31z"/>
				</g>
				<g>
					<g>
						<line class="st9" x1="1736.86" y1="1925.58" x2="1709.85" y2="1909.98"/>
						<circle class="st10" cx="1704.29" cy="1906.65" r="2.22"/>
					</g>
					<g>
						<line class="st9" x1="1736.86" y1="1915.57" x2="1709.85" y2="1899.98"/>
						<circle class="st10" cx="1704.29" cy="1896.64" r="2.22"/>
					</g>
					<g>
						<line class="st9" x1="1736.86" y1="1904.46" x2="1709.85" y2="1888.86"/>
						<circle class="st10" cx="1704.29" cy="1885.52" r="2.22"/>
					</g>
					<g>
						<line class="st9" x1="1694.62" y1="1901.12" x2="1667.6" y2="1885.52"/>
						<circle class="st10" cx="1662.05" cy="1882.19" r="2.22"/>
					</g>
					<g>
						<line class="st9" x1="1736.86" y1="1935.58" x2="1709.85" y2="1919.99"/>
						<circle class="st10" cx="1704.29" cy="1916.65" r="2.22"/>
					</g>
					<g>
						<line class="st9" x1="1694.62" y1="1911.13" x2="1667.6" y2="1895.53"/>
						<circle class="st10" cx="1662.05" cy="1892.19" r="2.22"/>
					</g>
					<g>
						<line class="st9" x1="1694.62" y1="1891.12" x2="1667.6" y2="1875.52"/>
						<circle class="st10" cx="1662.05" cy="1872.18" r="2.22"/>
					</g>
					<g>
						<line class="st9" x1="1694.62" y1="1880" x2="1667.6" y2="1864.4"/>
						<circle class="st10" cx="1662.05" cy="1861.07" r="2.22"/>
					</g>
				</g>
				<circle class="st11" cx="1664.91" cy="1849.65" r="3.89"/>
				<circle class="st12" cx="1675.36" cy="1855.79" r="3.89"/>
				<line class="st13" x1="1816.8" y1="1946.27" x2="1836.06" y2="1935.16"/>
				<line class="st13" x1="1816.8" y1="1941.83" x2="1836.06" y2="1930.71"/>
				<line class="st13" x1="1816.8" y1="1937.38" x2="1836.06" y2="1926.26"/>
				<line class="st13" x1="1816.8" y1="1932.93" x2="1836.06" y2="1921.82"/>
				<line class="st13" x1="1816.8" y1="1928.49" x2="1836.06" y2="1917.37"/>
			</g>
			<g>
				<polygon class="st14" points="1767.74,1956.02 1864.01,2011.6 1960.28,1956.02 1864.01,1900.43 				"/>
				<polygon class="st15" points="1864.01,2122.76 1864.01,2011.6 1960.28,1956.02 1960.28,2067.18 				"/>
				<polygon class="st14" points="1864,2122.78 1864,2011.61 1767.73,1956.03 1767.73,2067.2 				"/>
				<polyline class="st7" points="1767.74,1956.02 1864.01,2011.6 1864.01,2122.76 1864.01,2011.6 1960.28,1956.02 				"/>
				<polygon class="st7" points="1767.74,1956.02 1767.74,2067.18 1864.01,2122.76 1960.28,2067.18 1960.28,1956.02 
					1864.01,1900.43 				"/>
				<g>
					<path class="st16" d="M1850.97,2076.88c-0.55,0.95-1.78,1.28-2.73,0.73l-67.77-39.13c-0.95-0.55-1.28-1.78-0.73-2.73l0.22-0.39
						c0.55-0.95,1.78-1.28,2.73-0.73l67.77,39.13c0.95,0.55,1.28,1.78,0.73,2.73L1850.97,2076.88z"/>
				</g>
				<g>
					<path class="st16" d="M1850.97,2090.22c-0.55,0.95-1.78,1.28-2.73,0.73l-67.77-39.13c-0.95-0.55-1.28-1.78-0.73-2.73l0.22-0.39
						c0.55-0.95,1.78-1.28,2.73-0.73l67.77,39.13c0.95,0.55,1.28,1.78,0.73,2.73L1850.97,2090.22z"/>
				</g>
				<g>
					<path class="st16" d="M1850.97,2103.56c-0.55,0.95-1.78,1.28-2.73,0.73l-67.77-39.13c-0.95-0.55-1.28-1.78-0.73-2.73l0.22-0.39
						c0.55-0.95,1.78-1.28,2.73-0.73l67.77,39.13c0.95,0.55,1.28,1.78,0.73,2.73L1850.97,2103.56z"/>
				</g>
				<g>
					<g>
						<line class="st9" x1="1852.5" y1="2053.82" x2="1825.48" y2="2038.22"/>
						<circle class="st10" cx="1819.92" cy="2034.89" r="2.22"/>
					</g>
					<g>
						<line class="st9" x1="1852.5" y1="2043.82" x2="1825.48" y2="2028.22"/>
						<circle class="st10" cx="1819.92" cy="2024.88" r="2.22"/>
					</g>
					<g>
						<line class="st9" x1="1852.5" y1="2032.7" x2="1825.48" y2="2017.1"/>
						<circle class="st10" cx="1819.92" cy="2013.77" r="2.22"/>
					</g>
					<g>
						<line class="st9" x1="1810.26" y1="2029.37" x2="1783.24" y2="2013.77"/>
						<circle class="st10" cx="1777.68" cy="2010.43" r="2.22"/>
					</g>
					<g>
						<line class="st9" x1="1852.5" y1="2063.83" x2="1825.48" y2="2048.23"/>
						<circle class="st10" cx="1819.92" cy="2044.89" r="2.22"/>
					</g>
					<g>
						<line class="st9" x1="1810.26" y1="2039.37" x2="1783.24" y2="2023.77"/>
						<circle class="st10" cx="1777.68" cy="2020.44" r="2.22"/>
					</g>
					<g>
						<line class="st9" x1="1810.26" y1="2019.36" x2="1783.24" y2="2003.76"/>
						<circle class="st10" cx="1777.68" cy="2000.43" r="2.22"/>
					</g>
					<g>
						<line class="st9" x1="1810.26" y1="2008.24" x2="1783.24" y2="1992.65"/>
						<circle class="st10" cx="1777.68" cy="1989.31" r="2.22"/>
					</g>
				</g>
				<circle class="st11" cx="1780.54" cy="1977.89" r="3.89"/>
				<circle class="st12" cx="1791" cy="1984.03" r="3.89"/>
				<line class="st13" x1="1932.44" y1="2074.52" x2="1951.69" y2="2063.4"/>
				<line class="st13" x1="1932.44" y1="2070.07" x2="1951.69" y2="2058.95"/>
				<line class="st13" x1="1932.44" y1="2065.62" x2="1951.69" y2="2054.51"/>
				<line class="st13" x1="1932.44" y1="2061.18" x2="1951.69" y2="2050.06"/>
				<line class="st13" x1="1932.44" y1="2056.73" x2="1951.69" y2="2045.61"/>
			</g>
			<g>
				<polygon class="st14" points="1882.38,2025.42 1978.65,2081 2074.92,2025.42 1978.65,1969.84 				"/>
				<polygon class="st15" points="1978.65,2192.17 1978.65,2081 2074.92,2025.42 2074.92,2136.58 				"/>
				<polygon class="st14" points="1978.64,2192.18 1978.64,2081.02 1882.37,2025.44 1882.37,2136.6 				"/>
				<polyline class="st7" points="1882.38,2025.42 1978.65,2081 1978.65,2192.17 1978.65,2081 2074.92,2025.42 				"/>
				<polygon class="st7" points="1882.38,2025.42 1882.38,2136.58 1978.65,2192.17 2074.92,2136.58 2074.92,2025.42 
					1978.65,1969.84 				"/>
				<g>
					<path class="st16" d="M1965.6,2146.28c-0.55,0.95-1.78,1.28-2.73,0.73l-67.77-39.13c-0.95-0.55-1.28-1.78-0.73-2.73l0.22-0.39
						c0.55-0.95,1.78-1.28,2.73-0.73l67.77,39.13c0.95,0.55,1.28,1.78,0.73,2.73L1965.6,2146.28z"/>
				</g>
				<g>
					<path class="st16" d="M1965.6,2159.62c-0.55,0.95-1.78,1.28-2.73,0.73l-67.77-39.13c-0.95-0.55-1.28-1.78-0.73-2.73l0.22-0.39
						c0.55-0.95,1.78-1.28,2.73-0.73l67.77,39.13c0.95,0.55,1.28,1.78,0.73,2.73L1965.6,2159.62z"/>
				</g>
				<g>
					<path class="st16" d="M1965.6,2172.96c-0.55,0.95-1.78,1.28-2.73,0.73l-67.77-39.13c-0.95-0.55-1.28-1.78-0.73-2.73l0.22-0.39
						c0.55-0.95,1.78-1.28,2.73-0.73l67.77,39.13c0.95,0.55,1.28,1.78,0.73,2.73L1965.6,2172.96z"/>
				</g>
				<g>
					<g>
						<line class="st9" x1="1967.13" y1="2123.23" x2="1940.11" y2="2107.63"/>
						<circle class="st10" cx="1934.56" cy="2104.29" r="2.22"/>
					</g>
					<g>
						<line class="st9" x1="1967.13" y1="2113.22" x2="1940.11" y2="2097.62"/>
						<circle class="st10" cx="1934.56" cy="2094.29" r="2.22"/>
					</g>
					<g>
						<line class="st9" x1="1967.13" y1="2102.1" x2="1940.11" y2="2086.51"/>
						<circle class="st10" cx="1934.56" cy="2083.17" r="2.22"/>
					</g>
					<g>
						<line class="st9" x1="1924.89" y1="2098.77" x2="1897.87" y2="2083.17"/>
						<circle class="st10" cx="1892.31" cy="2079.84" r="2.22"/>
					</g>
					<g>
						<line class="st9" x1="1967.13" y1="2133.23" x2="1940.11" y2="2117.63"/>
						<circle class="st10" cx="1934.56" cy="2114.3" r="2.22"/>
					</g>
					<g>
						<line class="st9" x1="1924.89" y1="2108.77" x2="1897.87" y2="2093.18"/>
						<circle class="st10" cx="1892.31" cy="2089.84" r="2.22"/>
					</g>
					<g>
						<line class="st9" x1="1924.89" y1="2088.76" x2="1897.87" y2="2073.17"/>
						<circle class="st10" cx="1892.31" cy="2069.83" r="2.22"/>
					</g>
					<g>
						<line class="st9" x1="1924.89" y1="2077.65" x2="1897.87" y2="2062.05"/>
						<circle class="st10" cx="1892.31" cy="2058.71" r="2.22"/>
					</g>
				</g>
				<circle class="st11" cx="1895.17" cy="2047.3" r="3.89"/>
				<circle class="st12" cx="1905.63" cy="2053.43" r="3.89"/>
				<line class="st13" x1="2047.07" y1="2143.92" x2="2066.33" y2="2132.8"/>
				<line class="st13" x1="2047.07" y1="2139.47" x2="2066.33" y2="2128.36"/>
				<line class="st13" x1="2047.07" y1="2135.03" x2="2066.33" y2="2123.91"/>
				<line class="st13" x1="2047.07" y1="2130.58" x2="2066.33" y2="2119.46"/>
				<line class="st13" x1="2047.07" y1="2126.13" x2="2066.33" y2="2115.02"/>
			</g>
			<g>
				<polygon class="st14" points="1535.54,1957.77 1631.81,2013.35 1728.08,1957.77 1631.81,1902.19 				"/>
				<polygon class="st15" points="1631.81,2124.52 1631.81,2013.35 1728.08,1957.77 1728.08,2068.93 				"/>
				<polygon class="st14" points="1631.8,2124.53 1631.8,2013.37 1535.53,1957.79 1535.53,2068.95 				"/>
				<polyline class="st7" points="1535.54,1957.77 1631.81,2013.35 1631.81,2124.52 1631.81,2013.35 1728.08,1957.77 				"/>
				<polygon class="st7" points="1535.54,1957.77 1535.54,2068.93 1631.81,2124.52 1728.08,2068.93 1728.08,1957.77 
					1631.81,1902.19 				"/>
				<g>
					<path class="st16" d="M1618.76,2078.63c-0.55,0.95-1.78,1.28-2.73,0.73l-67.77-39.13c-0.95-0.55-1.28-1.78-0.73-2.73l0.22-0.39
						c0.55-0.95,1.78-1.28,2.73-0.73l67.77,39.13c0.95,0.55,1.28,1.78,0.73,2.73L1618.76,2078.63z"/>
				</g>
				<g>
					<path class="st16" d="M1618.76,2091.97c-0.55,0.95-1.78,1.28-2.73,0.73l-67.77-39.13c-0.95-0.55-1.28-1.78-0.73-2.73l0.22-0.39
						c0.55-0.95,1.78-1.28,2.73-0.73l67.77,39.13c0.95,0.55,1.28,1.78,0.73,2.73L1618.76,2091.97z"/>
				</g>
				<g>
					<path class="st16" d="M1618.76,2105.31c-0.55,0.95-1.78,1.28-2.73,0.73l-67.77-39.13c-0.95-0.55-1.28-1.78-0.73-2.73l0.22-0.39
						c0.55-0.95,1.78-1.28,2.73-0.73l67.77,39.13c0.95,0.55,1.28,1.78,0.73,2.73L1618.76,2105.31z"/>
				</g>
				<g>
					<g>
						<line class="st9" x1="1620.29" y1="2055.58" x2="1593.28" y2="2039.98"/>
						<circle class="st10" cx="1587.72" cy="2036.64" r="2.22"/>
					</g>
					<g>
						<line class="st9" x1="1620.29" y1="2045.57" x2="1593.28" y2="2029.97"/>
						<circle class="st10" cx="1587.72" cy="2026.64" r="2.22"/>
					</g>
					<g>
						<line class="st9" x1="1620.29" y1="2034.46" x2="1593.28" y2="2018.86"/>
						<circle class="st10" cx="1587.72" cy="2015.52" r="2.22"/>
					</g>
					<g>
						<line class="st9" x1="1578.05" y1="2031.12" x2="1551.03" y2="2015.52"/>
						<circle class="st10" cx="1545.47" cy="2012.19" r="2.22"/>
					</g>
					<g>
						<line class="st9" x1="1620.29" y1="2065.58" x2="1593.28" y2="2049.98"/>
						<circle class="st10" cx="1587.72" cy="2046.65" r="2.22"/>
					</g>
					<g>
						<line class="st9" x1="1578.05" y1="2041.13" x2="1551.03" y2="2025.53"/>
						<circle class="st10" cx="1545.47" cy="2022.19" r="2.22"/>
					</g>
					<g>
						<line class="st9" x1="1578.05" y1="2021.12" x2="1551.03" y2="2005.52"/>
						<circle class="st10" cx="1545.47" cy="2002.18" r="2.22"/>
					</g>
					<g>
						<line class="st9" x1="1578.05" y1="2010" x2="1551.03" y2="1994.4"/>
						<circle class="st10" cx="1545.47" cy="1991.06" r="2.22"/>
					</g>
				</g>
				<circle class="st11" cx="1548.34" cy="1979.65" r="3.89"/>
				<circle class="st12" cx="1558.79" cy="1985.78" r="3.89"/>
				<line class="st13" x1="1700.23" y1="2076.27" x2="1719.49" y2="2065.15"/>
				<line class="st13" x1="1700.23" y1="2071.82" x2="1719.49" y2="2060.71"/>
				<line class="st13" x1="1700.23" y1="2067.38" x2="1719.49" y2="2056.26"/>
				<line class="st13" x1="1700.23" y1="2062.93" x2="1719.49" y2="2051.81"/>
				<line class="st13" x1="1700.23" y1="2058.48" x2="1719.49" y2="2047.37"/>
			</g>
			<g>
				<polygon class="st14" points="1419.93,2026.14 1516.2,2081.73 1612.47,2026.14 1516.2,1970.56 				"/>
				<polygon class="st15" points="1516.2,2192.89 1516.2,2081.73 1612.47,2026.14 1612.47,2137.31 				"/>
				<polygon class="st14" points="1516.19,2192.91 1516.19,2081.74 1419.92,2026.16 1419.92,2137.32 				"/>
				<polyline class="st7" points="1419.93,2026.14 1516.2,2081.73 1516.2,2192.89 1516.2,2081.73 1612.47,2026.14 				"/>
				<polygon class="st7" points="1419.93,2026.14 1419.93,2137.31 1516.2,2192.89 1612.47,2137.31 1612.47,2026.14 1516.2,1970.56 
									"/>
				<g>
					<path class="st16" d="M1503.15,2147.01c-0.55,0.95-1.78,1.28-2.73,0.73l-67.77-39.13c-0.95-0.55-1.28-1.78-0.73-2.73l0.22-0.39
						c0.55-0.95,1.78-1.28,2.73-0.73l67.77,39.13c0.95,0.55,1.28,1.78,0.73,2.73L1503.15,2147.01z"/>
				</g>
				<g>
					<path class="st16" d="M1503.15,2160.34c-0.55,0.95-1.78,1.28-2.73,0.73l-67.77-39.13c-0.95-0.55-1.28-1.78-0.73-2.73l0.22-0.39
						c0.55-0.95,1.78-1.28,2.73-0.73l67.77,39.13c0.95,0.55,1.28,1.78,0.73,2.73L1503.15,2160.34z"/>
				</g>
				<g>
					<path class="st16" d="M1503.15,2173.68c-0.55,0.95-1.78,1.28-2.73,0.73l-67.77-39.13c-0.95-0.55-1.28-1.78-0.73-2.73l0.22-0.39
						c0.55-0.95,1.78-1.28,2.73-0.73l67.77,39.13c0.95,0.55,1.28,1.78,0.73,2.73L1503.15,2173.68z"/>
				</g>
				<g>
					<g>
						<line class="st9" x1="1504.68" y1="2123.95" x2="1477.66" y2="2108.35"/>
						<circle class="st10" cx="1472.11" cy="2105.02" r="2.22"/>
					</g>
					<g>
						<line class="st9" x1="1504.68" y1="2113.95" x2="1477.66" y2="2098.35"/>
						<circle class="st10" cx="1472.11" cy="2095.01" r="2.22"/>
					</g>
					<g>
						<line class="st9" x1="1504.68" y1="2102.83" x2="1477.66" y2="2087.23"/>
						<circle class="st10" cx="1472.11" cy="2083.9" r="2.22"/>
					</g>
					<g>
						<line class="st9" x1="1462.44" y1="2099.49" x2="1435.42" y2="2083.9"/>
						<circle class="st10" cx="1429.86" cy="2080.56" r="2.22"/>
					</g>
					<g>
						<line class="st9" x1="1504.68" y1="2133.96" x2="1477.66" y2="2118.36"/>
						<circle class="st10" cx="1472.11" cy="2115.02" r="2.22"/>
					</g>
					<g>
						<line class="st9" x1="1462.44" y1="2109.5" x2="1435.42" y2="2093.9"/>
						<circle class="st10" cx="1429.86" cy="2090.57" r="2.22"/>
					</g>
					<g>
						<line class="st9" x1="1462.44" y1="2089.49" x2="1435.42" y2="2073.89"/>
						<circle class="st10" cx="1429.86" cy="2070.56" r="2.22"/>
					</g>
					<g>
						<line class="st9" x1="1462.44" y1="2078.37" x2="1435.42" y2="2062.77"/>
						<circle class="st10" cx="1429.86" cy="2059.44" r="2.22"/>
					</g>
				</g>
				<circle class="st11" cx="1432.73" cy="2048.02" r="3.89"/>
				<circle class="st12" cx="1443.18" cy="2054.16" r="3.89"/>
				<line class="st13" x1="1584.62" y1="2144.65" x2="1603.88" y2="2133.53"/>
				<line class="st13" x1="1584.62" y1="2140.2" x2="1603.88" y2="2129.08"/>
				<line class="st13" x1="1584.62" y1="2135.75" x2="1603.88" y2="2124.64"/>
				<line class="st13" x1="1584.62" y1="2131.31" x2="1603.88" y2="2120.19"/>
				<line class="st13" x1="1584.62" y1="2126.86" x2="1603.88" y2="2115.74"/>
			</g>
			<g>
				<polygon class="st14" points="1651.15,2024.78 1747.43,2080.36 1843.7,2024.78 1747.43,1969.2 				"/>
				<polygon class="st15" points="1747.43,2191.53 1747.43,2080.36 1843.7,2024.78 1843.7,2135.94 				"/>
				<polygon class="st14" points="1747.41,2191.54 1747.41,2080.38 1651.14,2024.8 1651.14,2135.96 				"/>
				<polyline class="st7" points="1651.15,2024.78 1747.43,2080.36 1747.43,2191.53 1747.43,2080.36 1843.7,2024.78 				"/>
				<polygon class="st7" points="1651.15,2024.78 1651.15,2135.94 1747.43,2191.53 1843.7,2135.94 1843.7,2024.78 1747.43,1969.2 
									"/>
				<g>
					<path class="st16" d="M1734.38,2145.64c-0.55,0.95-1.78,1.28-2.73,0.73l-67.77-39.13c-0.95-0.55-1.28-1.78-0.73-2.73l0.22-0.39
						c0.55-0.95,1.78-1.28,2.73-0.73l67.77,39.13c0.95,0.55,1.28,1.78,0.73,2.73L1734.38,2145.64z"/>
				</g>
				<g>
					<path class="st16" d="M1734.38,2158.98c-0.55,0.95-1.78,1.28-2.73,0.73l-67.77-39.13c-0.95-0.55-1.28-1.78-0.73-2.73l0.22-0.39
						c0.55-0.95,1.78-1.28,2.73-0.73l67.77,39.13c0.95,0.55,1.28,1.78,0.73,2.73L1734.38,2158.98z"/>
				</g>
				<g>
					<path class="st16" d="M1734.38,2172.32c-0.55,0.95-1.78,1.28-2.73,0.73l-67.77-39.13c-0.95-0.55-1.28-1.78-0.73-2.73l0.22-0.39
						c0.55-0.95,1.78-1.28,2.73-0.73l67.77,39.13c0.95,0.55,1.28,1.78,0.73,2.73L1734.38,2172.32z"/>
				</g>
				<g>
					<g>
						<line class="st9" x1="1735.91" y1="2122.59" x2="1708.89" y2="2106.99"/>
						<circle class="st10" cx="1703.33" cy="2103.65" r="2.22"/>
					</g>
					<g>
						<line class="st9" x1="1735.91" y1="2112.58" x2="1708.89" y2="2096.98"/>
						<circle class="st10" cx="1703.33" cy="2093.65" r="2.22"/>
					</g>
					<g>
						<line class="st9" x1="1735.91" y1="2101.47" x2="1708.89" y2="2085.87"/>
						<circle class="st10" cx="1703.33" cy="2082.53" r="2.22"/>
					</g>
					<g>
						<line class="st9" x1="1693.67" y1="2098.13" x2="1666.65" y2="2082.53"/>
						<circle class="st10" cx="1661.09" cy="2079.2" r="2.22"/>
					</g>
					<g>
						<line class="st9" x1="1735.91" y1="2132.59" x2="1708.89" y2="2116.99"/>
						<circle class="st10" cx="1703.33" cy="2113.66" r="2.22"/>
					</g>
					<g>
						<line class="st9" x1="1693.67" y1="2108.14" x2="1666.65" y2="2092.54"/>
						<circle class="st10" cx="1661.09" cy="2089.2" r="2.22"/>
					</g>
					<g>
						<line class="st9" x1="1693.67" y1="2088.13" x2="1666.65" y2="2072.53"/>
						<circle class="st10" cx="1661.09" cy="2069.19" r="2.22"/>
					</g>
					<g>
						<line class="st9" x1="1693.67" y1="2077.01" x2="1666.65" y2="2061.41"/>
						<circle class="st10" cx="1661.09" cy="2058.08" r="2.22"/>
					</g>
				</g>
				<circle class="st11" cx="1663.95" cy="2046.66" r="3.89"/>
				<circle class="st12" cx="1674.41" cy="2052.8" r="3.89"/>
				<line class="st13" x1="1815.85" y1="2143.28" x2="1835.1" y2="2132.17"/>
				<line class="st13" x1="1815.85" y1="2138.84" x2="1835.1" y2="2127.72"/>
				<line class="st13" x1="1815.85" y1="2134.39" x2="1835.1" y2="2123.27"/>
				<line class="st13" x1="1815.85" y1="2129.94" x2="1835.1" y2="2118.83"/>
				<line class="st13" x1="1815.85" y1="2125.5" x2="1835.1" y2="2114.38"/>
			</g>
			<g>
				<polygon class="st14" points="1535.55,2093.16 1631.82,2148.74 1728.09,2093.16 1631.82,2037.57 				"/>
				<polygon class="st15" points="1631.82,2259.9 1631.82,2148.74 1728.09,2093.16 1728.09,2204.32 				"/>
				<polygon class="st14" points="1631.81,2259.92 1631.81,2148.75 1535.54,2093.17 1535.54,2204.34 				"/>
				<polyline class="st7" points="1535.55,2093.16 1631.82,2148.74 1631.82,2259.9 1631.82,2148.74 1728.09,2093.16 				"/>
				<polygon class="st7" points="1535.55,2093.16 1535.55,2204.32 1631.82,2259.9 1728.09,2204.32 1728.09,2093.16 1631.82,2037.57 
									"/>
				<g>
					<path class="st16" d="M1618.77,2214.02c-0.55,0.95-1.78,1.28-2.73,0.73l-67.77-39.13c-0.95-0.55-1.28-1.78-0.73-2.73l0.22-0.39
						c0.55-0.95,1.78-1.28,2.73-0.73l67.77,39.13c0.95,0.55,1.28,1.78,0.73,2.73L1618.77,2214.02z"/>
				</g>
				<g>
					<path class="st16" d="M1618.77,2227.36c-0.55,0.95-1.78,1.28-2.73,0.73l-67.77-39.13c-0.95-0.55-1.28-1.78-0.73-2.73l0.22-0.39
						c0.55-0.95,1.78-1.28,2.73-0.73l67.77,39.13c0.95,0.55,1.28,1.78,0.73,2.73L1618.77,2227.36z"/>
				</g>
				<g>
					<path class="st16" d="M1618.77,2240.7c-0.55,0.95-1.78,1.28-2.73,0.73l-67.77-39.13c-0.95-0.55-1.28-1.78-0.73-2.73l0.22-0.39
						c0.55-0.95,1.78-1.28,2.73-0.73l67.77,39.13c0.95,0.55,1.28,1.78,0.73,2.73L1618.77,2240.7z"/>
				</g>
				<g>
					<g>
						<line class="st9" x1="1620.3" y1="2190.96" x2="1593.29" y2="2175.36"/>
						<circle class="st10" cx="1587.73" cy="2172.03" r="2.22"/>
					</g>
					<g>
						<line class="st9" x1="1620.3" y1="2180.96" x2="1593.29" y2="2165.36"/>
						<circle class="st10" cx="1587.73" cy="2162.02" r="2.22"/>
					</g>
					<g>
						<line class="st9" x1="1620.3" y1="2169.84" x2="1593.29" y2="2154.24"/>
						<circle class="st10" cx="1587.73" cy="2150.91" r="2.22"/>
					</g>
					<g>
						<line class="st9" x1="1578.06" y1="2166.51" x2="1551.04" y2="2150.91"/>
						<circle class="st10" cx="1545.48" cy="2147.57" r="2.22"/>
					</g>
					<g>
						<line class="st9" x1="1620.3" y1="2200.97" x2="1593.29" y2="2185.37"/>
						<circle class="st10" cx="1587.73" cy="2182.03" r="2.22"/>
					</g>
					<g>
						<line class="st9" x1="1578.06" y1="2176.51" x2="1551.04" y2="2160.91"/>
						<circle class="st10" cx="1545.48" cy="2157.58" r="2.22"/>
					</g>
					<g>
						<line class="st9" x1="1578.06" y1="2156.5" x2="1551.04" y2="2140.9"/>
						<circle class="st10" cx="1545.48" cy="2137.57" r="2.22"/>
					</g>
					<g>
						<line class="st9" x1="1578.06" y1="2145.38" x2="1551.04" y2="2129.78"/>
						<circle class="st10" cx="1545.48" cy="2126.45" r="2.22"/>
					</g>
				</g>
				<circle class="st11" cx="1548.35" cy="2115.03" r="3.89"/>
				<circle class="st12" cx="1558.8" cy="2121.17" r="3.89"/>
				<line class="st13" x1="1700.24" y1="2211.66" x2="1719.5" y2="2200.54"/>
				<line class="st13" x1="1700.24" y1="2207.21" x2="1719.5" y2="2196.09"/>
				<line class="st13" x1="1700.24" y1="2202.76" x2="1719.5" y2="2191.65"/>
				<line class="st13" x1="1700.24" y1="2198.32" x2="1719.5" y2="2187.2"/>
				<line class="st13" x1="1700.24" y1="2193.87" x2="1719.5" y2="2182.75"/>
			</g>
			<g>
				<polygon class="st14" points="1766.77,2091.79 1863.04,2147.37 1959.31,2091.79 1863.04,2036.21 				"/>
				<polygon class="st15" points="1863.04,2258.54 1863.04,2147.37 1959.31,2091.79 1959.31,2202.96 				"/>
				<polygon class="st14" points="1863.03,2258.55 1863.03,2147.39 1766.75,2091.81 1766.75,2202.97 				"/>
				<polyline class="st7" points="1766.77,2091.79 1863.04,2147.37 1863.04,2258.54 1863.04,2147.37 1959.31,2091.79 				"/>
				<polygon class="st7" points="1766.77,2091.79 1766.77,2202.96 1863.04,2258.54 1959.31,2202.96 1959.31,2091.79 
					1863.04,2036.21 				"/>
				<g>
					<path class="st16" d="M1849.99,2212.65c-0.55,0.95-1.78,1.28-2.73,0.73l-67.77-39.13c-0.95-0.55-1.28-1.78-0.73-2.73l0.22-0.39
						c0.55-0.95,1.78-1.28,2.73-0.73l67.77,39.13c0.95,0.55,1.28,1.78,0.73,2.73L1849.99,2212.65z"/>
				</g>
				<g>
					<path class="st16" d="M1849.99,2225.99c-0.55,0.95-1.78,1.28-2.73,0.73l-67.77-39.13c-0.95-0.55-1.28-1.78-0.73-2.73l0.22-0.39
						c0.55-0.95,1.78-1.28,2.73-0.73l67.77,39.13c0.95,0.55,1.28,1.78,0.73,2.73L1849.99,2225.99z"/>
				</g>
				<g>
					<path class="st16" d="M1849.99,2239.33c-0.55,0.95-1.78,1.28-2.73,0.73l-67.77-39.13c-0.95-0.55-1.28-1.78-0.73-2.73l0.22-0.39
						c0.55-0.95,1.78-1.28,2.73-0.73l67.77,39.13c0.95,0.55,1.28,1.78,0.73,2.73L1849.99,2239.33z"/>
				</g>
				<g>
					<g>
						<line class="st9" x1="1851.52" y1="2189.6" x2="1824.5" y2="2174"/>
						<circle class="st10" cx="1818.94" cy="2170.66" r="2.22"/>
					</g>
					<g>
						<line class="st9" x1="1851.52" y1="2179.59" x2="1824.5" y2="2163.99"/>
						<circle class="st10" cx="1818.94" cy="2160.66" r="2.22"/>
					</g>
					<g>
						<line class="st9" x1="1851.52" y1="2168.48" x2="1824.5" y2="2152.88"/>
						<circle class="st10" cx="1818.94" cy="2149.54" r="2.22"/>
					</g>
					<g>
						<line class="st9" x1="1809.28" y1="2165.14" x2="1782.26" y2="2149.54"/>
						<circle class="st10" cx="1776.7" cy="2146.21" r="2.22"/>
					</g>
					<g>
						<line class="st9" x1="1851.52" y1="2199.6" x2="1824.5" y2="2184"/>
						<circle class="st10" cx="1818.94" cy="2180.67" r="2.22"/>
					</g>
					<g>
						<line class="st9" x1="1809.28" y1="2175.15" x2="1782.26" y2="2159.55"/>
						<circle class="st10" cx="1776.7" cy="2156.21" r="2.22"/>
					</g>
					<g>
						<line class="st9" x1="1809.28" y1="2155.14" x2="1782.26" y2="2139.54"/>
						<circle class="st10" cx="1776.7" cy="2136.2" r="2.22"/>
					</g>
					<g>
						<line class="st9" x1="1809.28" y1="2144.02" x2="1782.26" y2="2128.42"/>
						<circle class="st10" cx="1776.7" cy="2125.09" r="2.22"/>
					</g>
				</g>
				<circle class="st11" cx="1779.56" cy="2113.67" r="3.89"/>
				<circle class="st12" cx="1790.02" cy="2119.81" r="3.89"/>
				<line class="st13" x1="1931.46" y1="2210.29" x2="1950.72" y2="2199.18"/>
				<line class="st13" x1="1931.46" y1="2205.85" x2="1950.72" y2="2194.73"/>
				<line class="st13" x1="1931.46" y1="2201.4" x2="1950.72" y2="2190.28"/>
				<line class="st13" x1="1931.46" y1="2196.95" x2="1950.72" y2="2185.84"/>
				<line class="st13" x1="1931.46" y1="2192.51" x2="1950.72" y2="2181.39"/>
			</g>
			<g>
				<polygon class="st14" points="1651.15,2160.17 1747.43,2215.75 1843.7,2160.17 1747.43,2104.58 				"/>
				<polygon class="st15" points="1747.43,2326.91 1747.43,2215.75 1843.7,2160.17 1843.7,2271.33 				"/>
				<polygon class="st14" points="1747.41,2326.93 1747.41,2215.76 1651.14,2160.18 1651.14,2271.35 				"/>
				<polyline class="st7" points="1651.15,2160.17 1747.43,2215.75 1747.43,2326.91 1747.43,2215.75 1843.7,2160.17 				"/>
				<polygon class="st7" points="1651.15,2160.17 1651.15,2271.33 1747.43,2326.91 1843.7,2271.33 1843.7,2160.17 1747.43,2104.58 
									"/>
				<g>
					<path class="st16" d="M1734.38,2281.03c-0.55,0.95-1.78,1.28-2.73,0.73l-67.77-39.13c-0.95-0.55-1.28-1.78-0.73-2.73l0.22-0.39
						c0.55-0.95,1.78-1.28,2.73-0.73l67.77,39.13c0.95,0.55,1.28,1.78,0.73,2.73L1734.38,2281.03z"/>
				</g>
				<g>
					<path class="st16" d="M1734.38,2294.37c-0.55,0.95-1.78,1.28-2.73,0.73l-67.77-39.13c-0.95-0.55-1.28-1.78-0.73-2.73l0.22-0.39
						c0.55-0.95,1.78-1.28,2.73-0.73l67.77,39.13c0.95,0.55,1.28,1.78,0.73,2.73L1734.38,2294.37z"/>
				</g>
				<g>
					<path class="st16" d="M1734.38,2307.71c-0.55,0.95-1.78,1.28-2.73,0.73l-67.77-39.13c-0.95-0.55-1.28-1.78-0.73-2.73l0.22-0.39
						c0.55-0.95,1.78-1.28,2.73-0.73l67.77,39.13c0.95,0.55,1.28,1.78,0.73,2.73L1734.38,2307.71z"/>
				</g>
				<g>
					<g>
						<line class="st9" x1="1735.91" y1="2257.97" x2="1708.89" y2="2242.37"/>
						<circle class="st10" cx="1703.33" cy="2239.04" r="2.22"/>
					</g>
					<g>
						<line class="st9" x1="1735.91" y1="2247.97" x2="1708.89" y2="2232.37"/>
						<circle class="st10" cx="1703.33" cy="2229.03" r="2.22"/>
					</g>
					<g>
						<line class="st9" x1="1735.91" y1="2236.85" x2="1708.89" y2="2221.25"/>
						<circle class="st10" cx="1703.33" cy="2217.92" r="2.22"/>
					</g>
					<g>
						<line class="st9" x1="1693.67" y1="2233.52" x2="1666.65" y2="2217.92"/>
						<circle class="st10" cx="1661.09" cy="2214.58" r="2.22"/>
					</g>
					<g>
						<line class="st9" x1="1735.91" y1="2267.98" x2="1708.89" y2="2252.38"/>
						<circle class="st10" cx="1703.33" cy="2249.04" r="2.22"/>
					</g>
					<g>
						<line class="st9" x1="1693.67" y1="2243.52" x2="1666.65" y2="2227.92"/>
						<circle class="st10" cx="1661.09" cy="2224.59" r="2.22"/>
					</g>
					<g>
						<line class="st9" x1="1693.67" y1="2223.51" x2="1666.65" y2="2207.91"/>
						<circle class="st10" cx="1661.09" cy="2204.58" r="2.22"/>
					</g>
					<g>
						<line class="st9" x1="1693.67" y1="2212.4" x2="1666.65" y2="2196.8"/>
						<circle class="st10" cx="1661.09" cy="2193.46" r="2.22"/>
					</g>
				</g>
				<circle class="st11" cx="1663.95" cy="2182.04" r="3.89"/>
				<circle class="st12" cx="1674.41" cy="2188.18" r="3.89"/>
				<line class="st13" x1="1815.85" y1="2278.67" x2="1835.1" y2="2267.55"/>
				<line class="st13" x1="1815.85" y1="2274.22" x2="1835.1" y2="2263.1"/>
				<line class="st13" x1="1815.85" y1="2269.77" x2="1835.1" y2="2258.66"/>
				<line class="st13" x1="1815.85" y1="2265.33" x2="1835.1" y2="2254.21"/>
				<line class="st13" x1="1815.85" y1="2260.88" x2="1835.1" y2="2249.76"/>
			</g>
		</g>
		<polyline class="st4" points="1362.38,1956.88 1747.36,2179.16 1747.37,2179.16 2132.36,1956.88 1747.36,1734.6 1362.37,1956.88 
					"/>
		<polyline class="st4" points="1747.38,2360.35 2132.37,2138.08 2132.37,1956.88 2132.36,1956.88 1747.37,2179.16 1747.37,2179.16 
			1747.37,2360.35 		"/>
		<polyline class="st4" points="1362.38,1956.88 1362.38,2138.08 1362.38,2138.08 1747.37,2360.35 1747.37,2179.16 1747.36,2179.16 
			1362.38,1956.88 		"/>
		<line class="st2" x1="1747.37" y1="2360.35" x2="1747.37" y2="2179.16"/>
		<line class="st3" x1="1747.37" y1="2179.16" x2="2132.36" y2="1956.88"/>
		<line class="st2" x1="1747.36" y1="2179.16" x2="1362.38" y2="1956.88"/>
	</g>
	<path class="st17" d="M3783.53,2586.24c0,337.79-514,335.79-514,0c0-207.79,0-414.11,0-752.21s-504.54-338.1-504.54,0"/>
	<path class="st17" d="M2766.4,2484.42c0,337.79-514,335.79-514,0c0-207.79,0-414.11,0-752.21s-504.54-338.1-504.54,0"/>
</g>
</svg>
