<?xml version="1.0" encoding="utf-8"?>
<!-- Generator: Adobe Illustrator 18.1.0, SVG Export Plug-In . SVG Version: 6.00 Build 0)  -->
<svg version="1.1" id="Layer_1" xmlns="http://www.w3.org/2000/svg" xmlns:xlink="http://www.w3.org/1999/xlink" x="0px" y="0px"
	 width="678.5px" height="208px" viewBox="0 0 678.5 208" style="enable-background:new 0 0 678.5 208;" xml:space="preserve">
<style type="text/css">
	.st0{fill:#FFFFFF;}
	.st1{fill:#2E4153;}
</style>
<g>
	<path id="rect3757_1_" inkscape:connector-curvature="0" class="st0" d="M63.73,39.53c-8.84,0-14.4,2.25-16.74,6.75
		c-1.17,2.34-1.94,4.42-2.27,6.25c-0.17,1.83-0.25,4.69-0.25,8.53v138.53h42.79v-43.21c6.17,7.67,16.1,11.51,29.78,11.51
		c13.68,0,26.51-6.42,38.52-19.26c12.18-12.84,18.27-27.76,18.27-44.78c0-17.01-6.09-31.97-18.27-44.81
		c-12.18-12.84-25.09-19.26-38.77-19.26c-13.51,0-23.44,4.33-29.78,13.01c-0.5-4.34-2.34-7.57-5.51-9.74
		C78.49,40.72,72.57,39.53,63.73,39.53z M109.28,82.57c6.5,0,11.74,2.25,15.74,6.75c4,4.34,6.01,9.28,6.01,14.78
		c0,5.5-2.17,10.41-6.5,14.75c-4.17,4.34-9.36,6.5-15.53,6.5c-6,0-10.99-2.17-15-6.5c-3.84-4.5-5.76-9.41-5.76-14.75
		c0-5.34,1.92-10.28,5.76-14.78C97.84,84.82,102.95,82.57,109.28,82.57z"/>
	<path id="rect4424_1_" class="st1" d="M22.5,7.41c-7.73,0-14,6.27-14,14v15.74v138.74v9.7c0,7.73,6.27,14,14,14h13.9h8.07V61.07
		c0-3.84,0.08-6.69,0.25-8.53c0.33-1.83,1.11-3.92,2.27-6.25c2.34-4.5,7.9-6.75,16.74-6.75c8.84,0,14.77,1.18,17.77,3.52
		c3.17,2.17,5.01,5.4,5.51,9.74c6.34-8.67,16.27-13.01,29.78-13.01c13.68,0,26.6,6.42,38.77,19.26
		c12.18,12.84,18.27,27.8,18.27,44.81c0,17.01-6.09,31.93-18.27,44.78c-12.01,12.84-24.85,19.26-38.52,19.26
		c-13.68,0-23.61-3.84-29.78-11.51v43.21h80.85h18.59c7.73,0,14-6.27,14-14v-11.41V37.65V21.41c0-7.73-6.27-14-14-14h-18.98H44.78
		H22.5z M109.28,82.57c-6.34,0-11.45,2.25-15.28,6.75c-3.84,4.5-5.76,9.45-5.76,14.78c0,5.34,1.92,10.24,5.76,14.75
		c4,4.34,8.99,6.5,15,6.5c6.17,0,11.36-2.17,15.53-6.5c4.34-4.34,6.5-9.24,6.5-14.75c0-5.5-2-10.45-6.01-14.78
		C121.02,84.82,115.79,82.57,109.28,82.57z"/>
</g>
<g>
	<path class="st1" d="M230.48,162.09V82.08c0-2.1,0.07-3.65,0.21-4.66c0.14-1,0.52-2.14,1.16-3.42c1.28-2.47,4.34-3.7,9.18-3.7
		c4.84,0,8.1,0.62,9.79,1.85c1.69,1.23,2.67,3.04,2.95,5.41c3.47-4.75,8.93-7.12,16.37-7.12c7.44,0,14.5,3.52,21.17,10.55
		c6.67,7.03,10,15.21,10,24.52c0,9.32-3.31,17.49-9.93,24.52c-6.62,7.03-13.68,10.55-21.17,10.55c-7.49,0-12.92-2.1-16.3-6.3v27.67
		c0,2.1-0.07,3.65-0.21,4.66c-0.14,1-0.55,2.17-1.23,3.49c-0.69,1.32-1.85,2.26-3.49,2.81c-1.64,0.55-3.88,0.82-6.71,0.82
		c-2.83,0-5.09-0.27-6.78-0.82c-1.69-0.55-2.88-1.46-3.56-2.74c-0.69-1.28-1.1-2.42-1.23-3.42
		C230.55,165.74,230.48,164.19,230.48,162.09z M257.61,97.56c-2.1,2.47-3.15,5.16-3.15,8.08c0,2.92,1.07,5.6,3.22,8.01
		c2.14,2.42,4.88,3.63,8.22,3.63c3.33,0,6.17-1.19,8.49-3.56c2.33-2.37,3.49-5.07,3.49-8.08s-1.1-5.73-3.29-8.15
		c-2.19-2.42-5.05-3.63-8.56-3.63C262.51,93.87,259.71,95.1,257.61,97.56z"/>
	<path class="st1" d="M359.26,71.12c1.73,0.55,3.17,1.49,4.32,2.81c1.14,1.32,1.71,3.45,1.71,6.37c0,2.92-0.87,6.12-2.6,9.59
		c-1.74,3.47-4.25,5.21-7.54,5.21c-1.64,0-3.22-0.36-4.73-1.1c-1.51-0.73-3.49-1.1-5.96-1.1c-2.47,0-4.77,0.87-6.92,2.6
		c-2.15,1.74-3.22,3.84-3.22,6.3v28.77c0,2.1-0.07,3.68-0.21,4.73c-0.14,1.05-0.57,2.26-1.3,3.63c-1.37,2.38-4.93,3.56-10.69,3.56
		c-4.38,0-7.54-0.77-9.45-2.33c-1.46-1.28-2.28-3.24-2.47-5.89c0-0.91,0-2.24,0-3.97V82.22c0-2.1,0.07-3.68,0.21-4.73
		c0.14-1.05,0.52-2.21,1.16-3.49c1.28-2.47,4.84-3.7,10.69-3.7c5.48,0,8.91,1.05,10.27,3.15c1,1.46,1.51,2.97,1.51,4.52
		c0.46-0.64,1.12-1.42,1.99-2.33c0.87-0.91,2.72-2.15,5.55-3.7c2.83-1.55,5.32-2.33,7.47-2.33c2.15,0,3.95,0.12,5.41,0.34
		C355.92,70.19,357.52,70.58,359.26,71.12z"/>
	<path class="st1" d="M395.36,56.94c-0.69,1.33-1.9,2.26-3.63,2.81c-1.74,0.55-4.04,0.82-6.92,0.82s-5.18-0.27-6.92-0.82
		c-1.74-0.55-2.95-1.51-3.63-2.88c-0.69-1.37-1.1-2.58-1.23-3.63c-0.14-1.05-0.21-2.62-0.21-4.73c0-2.1,0.07-3.68,0.21-4.73
		c0.14-1.05,0.52-2.21,1.16-3.49c1.28-2.47,4.84-3.7,10.69-3.7c5.75,0,9.22,1.23,10.41,3.7c0.73,1.37,1.16,2.58,1.3,3.63
		c0.14,1.05,0.21,2.63,0.21,4.73c0,2.1-0.07,3.68-0.21,4.73C396.45,54.43,396.04,55.62,395.36,56.94z M372.82,82.36
		c0-2.1,0.07-3.68,0.21-4.73c0.14-1.05,0.52-2.26,1.16-3.63c1.28-2.37,4.84-3.56,10.69-3.56c4.38,0,7.49,0.78,9.32,2.33
		c1.55,1.28,2.37,3.24,2.47,5.89c0.09,0.91,0.14,2.24,0.14,3.97v47.95c0,2.1-0.07,3.68-0.21,4.73c-0.14,1.05-0.57,2.26-1.3,3.63
		c-1.19,2.38-4.71,3.56-10.55,3.56c-5.75,0-9.27-1.23-10.55-3.7c-0.64-1.37-1.03-2.56-1.16-3.56c-0.14-1-0.21-2.6-0.21-4.79V82.36z"
		/>
	<path class="st1" d="M449.67,94.55L440.77,94v18.91c0,2.47,0.39,4.25,1.16,5.34c0.78,1.1,2.24,1.64,4.38,1.64
		c2.14,0,3.79,0.07,4.93,0.21c1.14,0.14,2.35,0.57,3.63,1.3c2.1,1.19,3.15,4.25,3.15,9.18c0,5.75-1.28,9.27-3.84,10.55
		c-1.37,0.64-2.58,1.03-3.63,1.16c-1.05,0.14-2.58,0.21-4.59,0.21c-9.5,0-16.71-2.15-21.65-6.44c-4.93-4.29-7.4-11.55-7.4-21.78V94
		c-1.74,0.27-3.61,0.41-5.62,0.41c-2.01,0-3.68-0.77-5-2.33c-1.32-1.55-1.99-4.2-1.99-7.95c0-3.74,0.23-6.46,0.69-8.15
		c0.46-1.69,1.1-2.9,1.92-3.63c1.46-1.19,3.29-1.78,5.48-1.78l4.52,0.55V57.01c0-2.1,0.07-3.65,0.21-4.66c0.14-1,0.57-2.1,1.3-3.29
		c1.19-2.28,4.7-3.42,10.55-3.42c6.21,0,9.91,1.69,11.1,5.07c0.46,1.46,0.69,3.79,0.69,6.99v13.43c4.02-0.36,7.06-0.55,9.11-0.55
		s3.61,0.07,4.66,0.21c1.05,0.14,2.26,0.57,3.63,1.3c2.37,1.19,3.56,4.71,3.56,10.55c0,5.75-1.23,9.27-3.7,10.55
		c-1.37,0.64-2.58,1.03-3.63,1.16C453.35,94.48,451.77,94.55,449.67,94.55z"/>
	<path class="st1" d="M501.32,142.23c-9.23,0-16.88-3.49-22.95-10.48c-6.08-6.99-9.11-15.5-9.11-25.55V82.22
		c0-2.19,0.07-3.79,0.21-4.8c0.14-1,0.52-2.19,1.16-3.56c1.28-2.47,4.84-3.7,10.69-3.7c6.39,0,10.14,1.74,11.23,5.21
		c0.55,1.46,0.82,3.79,0.82,6.99v23.98c0,3.75,1.07,6.67,3.22,8.77c2.14,2.1,5.02,3.15,8.63,3.15c3.61,0,6.53-1.1,8.77-3.29
		c2.24-2.19,3.36-5.07,3.36-8.63V82.08c0-2.1,0.07-3.68,0.21-4.73c0.14-1.05,0.57-2.26,1.3-3.63c1.19-2.37,4.7-3.56,10.55-3.56
		c5.75,0,9.27,1.23,10.55,3.7c0.64,1.37,1.03,2.58,1.17,3.63c0.14,1.05,0.21,2.63,0.21,4.73v48.5c0,2.01-0.07,3.54-0.21,4.59
		c-0.14,1.05-0.57,2.22-1.3,3.49c-1.37,2.38-4.89,3.56-10.55,3.56c-5.57,0-9-1.1-10.28-3.29c-0.91-1.55-1.37-3.43-1.37-5.62
		c-0.37,0.64-1.19,1.55-2.47,2.74c-1.28,1.19-2.51,2.19-3.7,3.01C508.35,141.22,504.97,142.23,501.32,142.23z"/>
	<path class="st1" d="M592.43,70.3c9.13,0,16.74,3.49,22.81,10.48c6.07,6.99,9.11,15.5,9.11,25.55v24.11c0,2.1-0.07,3.68-0.21,4.73
		c-0.14,1.05-0.53,2.22-1.17,3.49c-1.28,2.47-4.84,3.7-10.69,3.7c-6.49,0-10.23-1.69-11.23-5.07c-0.55-1.55-0.82-3.88-0.82-6.99
		v-24.11c0-3.74-1.07-6.67-3.22-8.77c-2.15-2.1-5.02-3.15-8.63-3.15c-3.61,0-6.53,1.1-8.77,3.29c-2.24,2.19-3.36,5.07-3.36,8.63
		v24.25c0,2.1-0.07,3.68-0.21,4.73c-0.14,1.05-0.57,2.22-1.3,3.49c-1.19,2.47-4.71,3.7-10.55,3.7c-5.75,0-9.27-1.23-10.55-3.7
		c-0.64-1.37-1.03-2.58-1.16-3.63c-0.14-1.05-0.21-2.62-0.21-4.73v-48.5c0-2.01,0.07-3.54,0.21-4.59c0.14-1.05,0.57-2.21,1.3-3.49
		c1.28-2.28,4.79-3.43,10.55-3.43c5.57,0,9,1.05,10.27,3.15c0.91,1.55,1.37,3.42,1.37,5.62c0.36-0.64,1.19-1.55,2.47-2.74
		c1.28-1.19,2.51-2.15,3.7-2.88C585.25,71.35,588.68,70.3,592.43,70.3z"/>
	<path class="st1" d="M635.31,48.38c0-2.1,0.07-3.68,0.21-4.73c0.14-1.05,0.52-2.26,1.16-3.63c1.28-2.47,4.84-3.7,10.69-3.7
		c5.57,0,9.04,1.23,10.41,3.7c0.73,1.37,1.16,2.6,1.3,3.7c0.14,1.1,0.21,2.69,0.21,4.79v63.43c0,3.29,0.27,5.37,0.82,6.23
		c0.55,0.87,1.76,1.3,3.63,1.3c1.87,0,3.13,0.07,3.77,0.21c0.64,0.14,1.42,0.53,2.33,1.16c1.83,1.19,2.74,4.43,2.74,9.73
		c0,5.75-0.91,9.27-2.74,10.55c-2.38,1.64-8.04,1.92-16.99,0.82c-7.03-0.91-11.6-3.24-13.7-6.99c-2.56-4.47-3.84-11.6-3.84-21.37
		V48.38z"/>
</g>
<g>
	<path class="st1" d="M340.25,191.5v-22.18h13.54v2.66h-10.43v6.59h9.28v2.59h-9.28v7.68h11.23v2.66H340.25z"/>
	<path class="st1" d="M358.33,175.34c0.68-0.17,1.59-0.35,2.72-0.54c1.13-0.19,2.43-0.29,3.9-0.29c1.32,0,2.42,0.19,3.3,0.56
		c0.87,0.37,1.57,0.9,2.1,1.57c0.52,0.67,0.89,1.48,1.1,2.42c0.21,0.94,0.32,1.97,0.32,3.1v9.34h-2.98v-8.7
		c0-1.02-0.07-1.9-0.21-2.62c-0.14-0.73-0.37-1.31-0.69-1.76c-0.32-0.45-0.75-0.77-1.28-0.98c-0.53-0.2-1.19-0.3-1.98-0.3
		c-0.32,0-0.65,0.01-0.99,0.03c-0.34,0.02-0.67,0.05-0.98,0.08c-0.31,0.03-0.59,0.07-0.83,0.11c-0.25,0.04-0.42,0.08-0.53,0.1v14.05
		h-2.98V175.34z"/>
	<path class="st1" d="M379.48,174.86h6.3v2.5h-6.3v7.68c0,0.83,0.06,1.52,0.19,2.06s0.32,0.97,0.58,1.28
		c0.26,0.31,0.58,0.53,0.96,0.66s0.83,0.19,1.34,0.19c0.9,0,1.62-0.1,2.16-0.3c0.54-0.2,0.92-0.35,1.14-0.43l0.58,2.46
		c-0.3,0.15-0.82,0.34-1.57,0.56s-1.6,0.34-2.56,0.34c-1.13,0-2.06-0.14-2.8-0.43c-0.74-0.29-1.33-0.72-1.78-1.3
		s-0.76-1.29-0.94-2.13c-0.18-0.84-0.27-1.82-0.27-2.93v-14.85l2.98-0.51V174.86z"/>
	<path class="st1" d="M388.32,183.21c0-1.47,0.21-2.76,0.64-3.86c0.43-1.1,0.99-2.01,1.7-2.74c0.7-0.73,1.51-1.27,2.43-1.63
		c0.92-0.36,1.86-0.54,2.82-0.54c2.24,0,3.96,0.7,5.15,2.1c1.19,1.4,1.79,3.53,1.79,6.38c0,0.13,0,0.29,0,0.5
		c0,0.2-0.01,0.39-0.03,0.56h-11.39c0.13,1.73,0.63,3.04,1.5,3.94c0.87,0.9,2.24,1.34,4.1,1.34c1.04,0,1.92-0.09,2.64-0.27
		c0.71-0.18,1.25-0.36,1.62-0.53l0.42,2.5c-0.36,0.19-1,0.4-1.9,0.61c-0.91,0.21-1.94,0.32-3.09,0.32c-1.45,0-2.7-0.22-3.76-0.66
		s-1.93-1.04-2.61-1.81c-0.68-0.77-1.19-1.68-1.52-2.74S388.32,184.47,388.32,183.21z M399.74,181.58c0.02-1.34-0.31-2.45-1.01-3.31
		c-0.69-0.86-1.65-1.3-2.86-1.3c-0.68,0-1.29,0.13-1.81,0.4c-0.52,0.27-0.97,0.61-1.33,1.04c-0.36,0.43-0.65,0.92-0.85,1.47
		c-0.2,0.56-0.34,1.12-0.4,1.7H399.74z"/>
	<path class="st1" d="M413.28,174.51c0.26,0,0.55,0.02,0.88,0.05c0.33,0.03,0.66,0.07,0.98,0.13c0.32,0.05,0.61,0.11,0.88,0.16
		c0.27,0.05,0.46,0.1,0.59,0.14l-0.51,2.59c-0.23-0.08-0.62-0.19-1.17-0.3c-0.54-0.12-1.24-0.18-2.1-0.18
		c-0.55,0-1.1,0.06-1.65,0.18c-0.54,0.12-0.9,0.2-1.07,0.24v13.98h-2.98v-15.94c0.7-0.26,1.58-0.5,2.62-0.72
		C410.8,174.62,411.97,174.51,413.28,174.51z"/>
	<path class="st1" d="M434.14,183.21c0,1.26-0.17,2.42-0.5,3.49s-0.82,1.98-1.46,2.75c-0.64,0.77-1.42,1.37-2.35,1.79
		c-0.93,0.43-1.99,0.64-3.18,0.64c-0.96,0-1.81-0.13-2.54-0.38c-0.74-0.26-1.29-0.5-1.65-0.74v6.66h-2.98v-22.05
		c0.7-0.17,1.58-0.36,2.64-0.56c1.06-0.2,2.28-0.3,3.66-0.3c1.28,0,2.43,0.2,3.46,0.61c1.02,0.41,1.9,0.98,2.62,1.73
		c0.72,0.75,1.28,1.66,1.68,2.74C433.94,180.66,434.14,181.87,434.14,183.21z M431.04,183.21c0-1.94-0.48-3.43-1.44-4.48
		c-0.96-1.04-2.24-1.57-3.84-1.57c-0.9,0-1.59,0.03-2.1,0.1c-0.5,0.06-0.9,0.14-1.2,0.22v10.5c0.36,0.3,0.88,0.59,1.57,0.86
		s1.43,0.42,2.24,0.42c0.85,0,1.58-0.15,2.19-0.46c0.61-0.31,1.1-0.74,1.49-1.28c0.38-0.54,0.66-1.18,0.83-1.92
		C430.95,184.86,431.04,184.07,431.04,183.21z"/>
	<path class="st1" d="M444.47,174.51c0.26,0,0.55,0.02,0.88,0.05c0.33,0.03,0.66,0.07,0.98,0.13c0.32,0.05,0.61,0.11,0.88,0.16
		c0.27,0.05,0.46,0.1,0.59,0.14l-0.51,2.59c-0.23-0.08-0.62-0.19-1.17-0.3c-0.54-0.12-1.24-0.18-2.1-0.18
		c-0.55,0-1.1,0.06-1.65,0.18c-0.54,0.12-0.9,0.2-1.07,0.24v13.98h-2.98v-15.94c0.7-0.26,1.58-0.5,2.62-0.72
		C442,174.62,443.17,174.51,444.47,174.51z"/>
	<path class="st1" d="M452.15,171.85c-0.53,0-0.99-0.18-1.36-0.53c-0.37-0.35-0.56-0.83-0.56-1.42c0-0.6,0.19-1.07,0.56-1.42
		s0.83-0.53,1.36-0.53c0.53,0,0.99,0.18,1.36,0.53s0.56,0.83,0.56,1.42c0,0.6-0.19,1.07-0.56,1.42
		C453.14,171.68,452.69,171.85,452.15,171.85z M453.66,191.5h-2.98v-16.64h2.98V191.5z"/>
	<path class="st1" d="M462.65,189.36c1.22,0,2.12-0.16,2.7-0.48s0.88-0.83,0.88-1.54c0-0.72-0.29-1.3-0.86-1.73
		c-0.58-0.43-1.53-0.91-2.85-1.44c-0.64-0.26-1.25-0.52-1.84-0.78s-1.09-0.58-1.52-0.94c-0.43-0.36-0.77-0.8-1.02-1.31
		c-0.26-0.51-0.38-1.14-0.38-1.89c0-1.47,0.54-2.64,1.63-3.5c1.09-0.86,2.57-1.3,4.45-1.3c0.47,0,0.94,0.03,1.41,0.08
		c0.47,0.05,0.91,0.12,1.31,0.19c0.41,0.08,0.76,0.16,1.07,0.24c0.31,0.09,0.55,0.16,0.72,0.22l-0.54,2.56
		c-0.32-0.17-0.82-0.35-1.5-0.53c-0.68-0.18-1.5-0.27-2.46-0.27c-0.83,0-1.56,0.17-2.18,0.5c-0.62,0.33-0.93,0.85-0.93,1.55
		c0,0.36,0.07,0.68,0.21,0.96s0.35,0.53,0.64,0.75c0.29,0.22,0.64,0.43,1.07,0.62c0.43,0.19,0.94,0.4,1.54,0.61
		c0.79,0.3,1.49,0.59,2.11,0.88c0.62,0.29,1.15,0.62,1.58,1.01c0.44,0.38,0.77,0.85,1.01,1.39c0.23,0.54,0.35,1.21,0.35,2
		c0,1.54-0.57,2.7-1.71,3.49c-1.14,0.79-2.77,1.18-4.88,1.18c-1.47,0-2.62-0.12-3.46-0.37s-1.4-0.43-1.7-0.56l0.54-2.56
		c0.34,0.13,0.88,0.32,1.63,0.58C460.42,189.23,461.41,189.36,462.65,189.36z"/>
	<path class="st1" d="M472.12,183.21c0-1.47,0.21-2.76,0.64-3.86c0.43-1.1,0.99-2.01,1.7-2.74c0.7-0.73,1.51-1.27,2.43-1.63
		c0.92-0.36,1.86-0.54,2.82-0.54c2.24,0,3.96,0.7,5.15,2.1c1.19,1.4,1.79,3.53,1.79,6.38c0,0.13,0,0.29,0,0.5
		c0,0.2-0.01,0.39-0.03,0.56h-11.39c0.13,1.73,0.63,3.04,1.5,3.94c0.87,0.9,2.24,1.34,4.1,1.34c1.04,0,1.92-0.09,2.64-0.27
		c0.71-0.18,1.25-0.36,1.62-0.53l0.42,2.5c-0.36,0.19-1,0.4-1.9,0.61c-0.91,0.21-1.94,0.32-3.09,0.32c-1.45,0-2.7-0.22-3.76-0.66
		s-1.93-1.04-2.61-1.81c-0.68-0.77-1.19-1.68-1.52-2.74S472.12,184.47,472.12,183.21z M483.55,181.58c0.02-1.34-0.31-2.45-1.01-3.31
		c-0.69-0.86-1.65-1.3-2.86-1.3c-0.68,0-1.29,0.13-1.81,0.4c-0.52,0.27-0.97,0.61-1.33,1.04c-0.36,0.43-0.65,0.92-0.85,1.47
		c-0.2,0.56-0.34,1.12-0.4,1.7H483.55z"/>
	<path class="st1" d="M516.44,169.32c-0.81,2.35-1.58,4.52-2.32,6.51c-0.74,2-1.46,3.89-2.16,5.68s-1.4,3.5-2.1,5.14
		c-0.69,1.63-1.4,3.25-2.13,4.85h-2.91c-0.73-1.6-1.43-3.22-2.13-4.85c-0.69-1.63-1.4-3.34-2.11-5.14
		c-0.72-1.79-1.45-3.69-2.19-5.68c-0.75-1.99-1.51-4.17-2.3-6.51h3.42c1.15,3.37,2.28,6.61,3.39,9.73c1.11,3.12,2.25,6.04,3.42,8.77
		c1.17-2.71,2.31-5.63,3.42-8.75c1.11-3.13,2.23-6.37,3.36-9.74H516.44z"/>
	<path class="st1" d="M525.4,169.1c3.12,0,5.51,0.59,7.18,1.78c1.67,1.18,2.51,2.95,2.51,5.3c0,1.28-0.23,2.37-0.69,3.28
		c-0.46,0.91-1.12,1.64-1.98,2.21c-0.86,0.57-1.92,0.98-3.15,1.23s-2.63,0.38-4.19,0.38h-2.46v8.22h-3.1v-21.86
		c0.88-0.21,1.85-0.36,2.93-0.43C523.52,169.14,524.5,169.1,525.4,169.1z M525.66,171.82c-1.32,0-2.34,0.03-3.04,0.1v8.7h2.34
		c1.07,0,2.03-0.07,2.88-0.21c0.85-0.14,1.57-0.37,2.16-0.7c0.59-0.33,1.04-0.78,1.36-1.36c0.32-0.58,0.48-1.31,0.48-2.21
		c0-0.85-0.17-1.56-0.5-2.11c-0.33-0.55-0.78-1-1.34-1.33c-0.57-0.33-1.22-0.56-1.97-0.69
		C527.28,171.88,526.49,171.82,525.66,171.82z"/>
	<path class="st1" d="M554.17,191.5c-0.47-0.79-1.01-1.67-1.62-2.66s-1.26-2-1.97-3.06s-1.44-2.13-2.19-3.22
		c-0.76-1.09-1.51-2.14-2.26-3.15c-0.75-1.01-1.47-1.97-2.18-2.86s-1.36-1.69-1.95-2.37v17.31h-3.04v-22.18h2.46
		c1,1.07,2.07,2.31,3.22,3.73c1.14,1.42,2.27,2.88,3.39,4.38s2.18,2.98,3.17,4.43s1.83,2.74,2.51,3.87v-16.42h3.04v22.18H554.17z"/>
	<path class="st1" d="M574.81,189.29c3.24,0,4.86-1.11,4.86-3.33c0-0.68-0.14-1.26-0.43-1.74s-0.68-0.9-1.17-1.25
		c-0.49-0.35-1.05-0.66-1.68-0.91c-0.63-0.26-1.3-0.51-2-0.77c-0.81-0.28-1.58-0.59-2.3-0.94c-0.72-0.35-1.35-0.77-1.89-1.25
		s-0.96-1.05-1.26-1.71c-0.31-0.66-0.46-1.46-0.46-2.4c0-1.94,0.66-3.46,1.98-4.54c1.32-1.09,3.15-1.63,5.47-1.63
		c1.34,0,2.56,0.14,3.66,0.43c1.1,0.29,1.9,0.6,2.42,0.94l-0.99,2.53c-0.45-0.28-1.12-0.55-2-0.82c-0.89-0.27-1.92-0.4-3.09-0.4
		c-0.6,0-1.15,0.06-1.66,0.19c-0.51,0.13-0.96,0.32-1.34,0.58c-0.38,0.26-0.69,0.58-0.91,0.98c-0.22,0.4-0.34,0.86-0.34,1.39
		c0,0.6,0.12,1.1,0.35,1.5c0.23,0.41,0.56,0.76,0.99,1.07c0.43,0.31,0.92,0.59,1.49,0.85s1.19,0.51,1.87,0.77
		c0.96,0.38,1.84,0.77,2.64,1.15c0.8,0.38,1.49,0.84,2.08,1.38c0.59,0.53,1.04,1.17,1.36,1.9c0.32,0.74,0.48,1.63,0.48,2.67
		c0,1.94-0.71,3.44-2.13,4.48c-1.42,1.05-3.42,1.57-6,1.57c-0.88,0-1.68-0.06-2.42-0.18c-0.74-0.12-1.39-0.26-1.97-0.42
		c-0.58-0.16-1.07-0.33-1.49-0.51c-0.42-0.18-0.74-0.34-0.98-0.46l0.93-2.56c0.49,0.28,1.24,0.59,2.24,0.93
		C572.13,189.12,573.36,189.29,574.81,189.29z"/>
	<path class="st1" d="M585.56,183.21c0-1.47,0.21-2.76,0.64-3.86c0.43-1.1,0.99-2.01,1.7-2.74c0.7-0.73,1.51-1.27,2.43-1.63
		c0.92-0.36,1.86-0.54,2.82-0.54c2.24,0,3.96,0.7,5.15,2.1c1.19,1.4,1.79,3.53,1.79,6.38c0,0.13,0,0.29,0,0.5
		c0,0.2-0.01,0.39-0.03,0.56h-11.39c0.13,1.73,0.63,3.04,1.5,3.94c0.87,0.9,2.24,1.34,4.1,1.34c1.04,0,1.92-0.09,2.64-0.27
		c0.71-0.18,1.25-0.36,1.62-0.53l0.42,2.5c-0.36,0.19-1,0.4-1.9,0.61c-0.91,0.21-1.94,0.32-3.09,0.32c-1.45,0-2.7-0.22-3.76-0.66
		s-1.93-1.04-2.61-1.81c-0.68-0.77-1.19-1.68-1.52-2.74S585.56,184.47,585.56,183.21z M596.98,181.58c0.02-1.34-0.31-2.45-1.01-3.31
		c-0.69-0.86-1.65-1.3-2.86-1.3c-0.68,0-1.29,0.13-1.81,0.4c-0.52,0.27-0.97,0.61-1.33,1.04c-0.36,0.43-0.65,0.92-0.85,1.47
		c-0.2,0.56-0.34,1.12-0.4,1.7H596.98z"/>
	<path class="st1" d="M610.52,174.51c0.26,0,0.55,0.02,0.88,0.05c0.33,0.03,0.66,0.07,0.98,0.13c0.32,0.05,0.61,0.11,0.88,0.16
		c0.27,0.05,0.46,0.1,0.59,0.14l-0.51,2.59c-0.23-0.08-0.62-0.19-1.17-0.3c-0.54-0.12-1.24-0.18-2.1-0.18
		c-0.55,0-1.1,0.06-1.65,0.18c-0.54,0.12-0.9,0.2-1.07,0.24v13.98h-2.98v-15.94c0.7-0.26,1.58-0.5,2.62-0.72
		C608.04,174.62,609.22,174.51,610.52,174.51z"/>
	<path class="st1" d="M630.39,174.86c-0.83,3.12-1.81,6.1-2.93,8.96c-1.12,2.86-2.2,5.42-3.25,7.68h-2.69
		c-1.05-2.26-2.13-4.82-3.25-7.68c-1.12-2.86-2.1-5.84-2.93-8.96h3.2c0.26,1.05,0.56,2.16,0.91,3.34s0.72,2.36,1.12,3.52
		c0.39,1.16,0.79,2.29,1.2,3.38c0.4,1.09,0.79,2.06,1.15,2.91c0.36-0.85,0.75-1.82,1.15-2.91s0.8-2.21,1.2-3.38
		c0.39-1.16,0.77-2.34,1.12-3.52c0.35-1.18,0.66-2.3,0.91-3.34H630.39z"/>
	<path class="st1" d="M632.09,183.21c0-1.47,0.21-2.76,0.64-3.86c0.43-1.1,0.99-2.01,1.7-2.74c0.7-0.73,1.51-1.27,2.43-1.63
		c0.92-0.36,1.86-0.54,2.82-0.54c2.24,0,3.96,0.7,5.15,2.1c1.19,1.4,1.79,3.53,1.79,6.38c0,0.13,0,0.29,0,0.5
		c0,0.2-0.01,0.39-0.03,0.56h-11.39c0.13,1.73,0.63,3.04,1.5,3.94c0.87,0.9,2.24,1.34,4.1,1.34c1.04,0,1.92-0.09,2.64-0.27
		c0.71-0.18,1.25-0.36,1.62-0.53l0.42,2.5c-0.36,0.19-1,0.4-1.9,0.61c-0.91,0.21-1.94,0.32-3.09,0.32c-1.45,0-2.7-0.22-3.76-0.66
		s-1.93-1.04-2.61-1.81c-0.68-0.77-1.19-1.68-1.52-2.74S632.09,184.47,632.09,183.21z M643.51,181.58c0.02-1.34-0.31-2.45-1.01-3.31
		c-0.69-0.86-1.65-1.3-2.86-1.3c-0.68,0-1.29,0.13-1.81,0.4c-0.52,0.27-0.97,0.61-1.33,1.04c-0.36,0.43-0.65,0.92-0.85,1.47
		c-0.2,0.56-0.34,1.12-0.4,1.7H643.51z"/>
	<path class="st1" d="M657.05,174.51c0.26,0,0.55,0.02,0.88,0.05c0.33,0.03,0.66,0.07,0.98,0.13c0.32,0.05,0.61,0.11,0.88,0.16
		c0.27,0.05,0.46,0.1,0.59,0.14l-0.51,2.59c-0.23-0.08-0.62-0.19-1.17-0.3c-0.54-0.12-1.24-0.18-2.1-0.18
		c-0.55,0-1.1,0.06-1.65,0.18c-0.54,0.12-0.9,0.2-1.07,0.24v13.98h-2.98v-15.94c0.7-0.26,1.58-0.5,2.62-0.72
		C654.57,174.62,655.75,174.51,657.05,174.51z"/>
</g>
<g>
</g>
<g>
</g>
<g>
</g>
<g>
</g>
<g>
</g>
<g>
</g>
<g>
</g>
<g>
</g>
<g>
</g>
<g>
</g>
<g>
</g>
<g>
</g>
<g>
</g>
<g>
</g>
<g>
</g>
<g>
</g>
</svg>
