<?xml version="1.0" encoding="UTF-8" standalone="no"?>
<!-- Generator: Adobe Illustrator 18.1.0, SVG Export Plug-In . SVG Version: 6.00 Build 0)  -->

<svg
   xmlns:dc="http://purl.org/dc/elements/1.1/"
   xmlns:cc="http://creativecommons.org/ns#"
   xmlns:rdf="http://www.w3.org/1999/02/22-rdf-syntax-ns#"
   xmlns:svg="http://www.w3.org/2000/svg"
   xmlns="http://www.w3.org/2000/svg"
   xmlns:sodipodi="http://sodipodi.sourceforge.net/DTD/sodipodi-0.dtd"
   xmlns:inkscape="http://www.inkscape.org/namespaces/inkscape"
   version="1.1"
   id="Layer_1"
   x="0px"
   y="0px"
   width="452.10001"
   height="171.10001"
   viewBox="0 0 452.10001 171.10001"
   xml:space="preserve"
   inkscape:version="0.91 r13725"
   sodipodi:docname="logo4.svg"><metadata
     id="metadata101"><rdf:RDF><cc:Work
         rdf:about=""><dc:format>image/svg+xml</dc:format><dc:type
           rdf:resource="http://purl.org/dc/dcmitype/StillImage" /><dc:title></dc:title></cc:Work></rdf:RDF></metadata><defs
     id="defs99" /><sodipodi:namedview
     pagecolor="#2d2d2d"
     bordercolor="#666666"
     borderopacity="1"
     objecttolerance="10"
     gridtolerance="10"
     guidetolerance="10"
     inkscape:pageopacity="0"
     inkscape:pageshadow="2"
     inkscape:window-width="1482"
     inkscape:window-height="886"
     id="namedview97"
     showgrid="false"
     fit-margin-top="5"
     fit-margin-left="5"
     fit-margin-bottom="5"
     fit-margin-right="5"
     inkscape:zoom="0.55563744"
     inkscape:cx="-113.89645"
     inkscape:cy="98.42"
     inkscape:window-x="0"
     inkscape:window-y="27"
     inkscape:window-maximized="0"
     inkscape:current-layer="Layer_1" /><style
     type="text/css"
     id="style3">
	.st0{fill:#FFFFFF;}
	.st1{fill:#2E4153;}
</style><g
     id="g9"
     style="fill:#ffffff;fill-opacity:1"
     transform="translate(-225.48,-31.32)"><path
       class="st1"
       d="m 230.48,162.09 0,-80.01 c 0,-2.1 0.07,-3.65 0.21,-4.66 0.14,-1 0.52,-2.14 1.16,-3.42 1.28,-2.47 4.34,-3.7 9.18,-3.7 4.84,0 8.1,0.62 9.79,1.85 1.69,1.23 2.67,3.04 2.95,5.41 3.47,-4.75 8.93,-7.12 16.37,-7.12 7.44,0 14.5,3.52 21.17,10.55 6.67,7.03 10,15.21 10,24.52 0,9.32 -3.31,17.49 -9.93,24.52 -6.62,7.03 -13.68,10.55 -21.17,10.55 -7.49,0 -12.92,-2.1 -16.3,-6.3 l 0,27.67 c 0,2.1 -0.07,3.65 -0.21,4.66 -0.14,1 -0.55,2.17 -1.23,3.49 -0.69,1.32 -1.85,2.26 -3.49,2.81 -1.64,0.55 -3.88,0.82 -6.71,0.82 -2.83,0 -5.09,-0.27 -6.78,-0.82 -1.69,-0.55 -2.88,-1.46 -3.56,-2.74 -0.69,-1.28 -1.1,-2.42 -1.23,-3.42 -0.15,-1.01 -0.22,-2.56 -0.22,-4.66 z m 27.13,-64.53 c -2.1,2.47 -3.15,5.16 -3.15,8.08 0,2.92 1.07,5.6 3.22,8.01 2.14,2.42 4.88,3.63 8.22,3.63 3.33,0 6.17,-1.19 8.49,-3.56 2.33,-2.37 3.49,-5.07 3.49,-8.08 0,-3.01 -1.1,-5.73 -3.29,-8.15 -2.19,-2.42 -5.05,-3.63 -8.56,-3.63 -3.52,0.01 -6.32,1.24 -8.42,3.7 z"
       id="path11"
       style="fill:#ffffff;fill-opacity:1"
       inkscape:connector-curvature="0" /><path
       class="st1"
       d="m 359.26,71.12 c 1.73,0.55 3.17,1.49 4.32,2.81 1.14,1.32 1.71,3.45 1.71,6.37 0,2.92 -0.87,6.12 -2.6,9.59 -1.74,3.47 -4.25,5.21 -7.54,5.21 -1.64,0 -3.22,-0.36 -4.73,-1.1 -1.51,-0.73 -3.49,-1.1 -5.96,-1.1 -2.47,0 -4.77,0.87 -6.92,2.6 -2.15,1.74 -3.22,3.84 -3.22,6.3 l 0,28.77 c 0,2.1 -0.07,3.68 -0.21,4.73 -0.14,1.05 -0.57,2.26 -1.3,3.63 -1.37,2.38 -4.93,3.56 -10.69,3.56 -4.38,0 -7.54,-0.77 -9.45,-2.33 -1.46,-1.28 -2.28,-3.24 -2.47,-5.89 0,-0.91 0,-2.24 0,-3.97 l 0,-48.08 c 0,-2.1 0.07,-3.68 0.21,-4.73 0.14,-1.05 0.52,-2.21 1.16,-3.49 1.28,-2.47 4.84,-3.7 10.69,-3.7 5.48,0 8.91,1.05 10.27,3.15 1,1.46 1.51,2.97 1.51,4.52 0.46,-0.64 1.12,-1.42 1.99,-2.33 0.87,-0.91 2.72,-2.15 5.55,-3.7 2.83,-1.55 5.32,-2.33 7.47,-2.33 2.15,0 3.95,0.12 5.41,0.34 1.46,0.24 3.06,0.63 4.8,1.17 z"
       id="path13"
       style="fill:#ffffff;fill-opacity:1"
       inkscape:connector-curvature="0" /><path
       class="st1"
       d="m 395.36,56.94 c -0.69,1.33 -1.9,2.26 -3.63,2.81 -1.74,0.55 -4.04,0.82 -6.92,0.82 -2.88,0 -5.18,-0.27 -6.92,-0.82 -1.74,-0.55 -2.95,-1.51 -3.63,-2.88 -0.69,-1.37 -1.1,-2.58 -1.23,-3.63 -0.14,-1.05 -0.21,-2.62 -0.21,-4.73 0,-2.1 0.07,-3.68 0.21,-4.73 0.14,-1.05 0.52,-2.21 1.16,-3.49 1.28,-2.47 4.84,-3.7 10.69,-3.7 5.75,0 9.22,1.23 10.41,3.7 0.73,1.37 1.16,2.58 1.3,3.63 0.14,1.05 0.21,2.63 0.21,4.73 0,2.1 -0.07,3.68 -0.21,4.73 -0.14,1.05 -0.55,2.24 -1.23,3.56 z m -22.54,25.42 c 0,-2.1 0.07,-3.68 0.21,-4.73 0.14,-1.05 0.52,-2.26 1.16,-3.63 1.28,-2.37 4.84,-3.56 10.69,-3.56 4.38,0 7.49,0.78 9.32,2.33 1.55,1.28 2.37,3.24 2.47,5.89 0.09,0.91 0.14,2.24 0.14,3.97 l 0,47.95 c 0,2.1 -0.07,3.68 -0.21,4.73 -0.14,1.05 -0.57,2.26 -1.3,3.63 -1.19,2.38 -4.71,3.56 -10.55,3.56 -5.75,0 -9.27,-1.23 -10.55,-3.7 -0.64,-1.37 -1.03,-2.56 -1.16,-3.56 -0.14,-1 -0.21,-2.6 -0.21,-4.79 l 0,-48.09 z"
       id="path15"
       style="fill:#ffffff;fill-opacity:1"
       inkscape:connector-curvature="0" /><path
       class="st1"
       d="m 449.67,94.55 -8.9,-0.55 0,18.91 c 0,2.47 0.39,4.25 1.16,5.34 0.78,1.1 2.24,1.64 4.38,1.64 2.14,0 3.79,0.07 4.93,0.21 1.14,0.14 2.35,0.57 3.63,1.3 2.1,1.19 3.15,4.25 3.15,9.18 0,5.75 -1.28,9.27 -3.84,10.55 -1.37,0.64 -2.58,1.03 -3.63,1.16 -1.05,0.14 -2.58,0.21 -4.59,0.21 -9.5,0 -16.71,-2.15 -21.65,-6.44 -4.93,-4.29 -7.4,-11.55 -7.4,-21.78 l 0,-20.28 c -1.74,0.27 -3.61,0.41 -5.62,0.41 -2.01,0 -3.68,-0.77 -5,-2.33 -1.32,-1.55 -1.99,-4.2 -1.99,-7.95 0,-3.74 0.23,-6.46 0.69,-8.15 0.46,-1.69 1.1,-2.9 1.92,-3.63 1.46,-1.19 3.29,-1.78 5.48,-1.78 l 4.52,0.55 0,-14.11 c 0,-2.1 0.07,-3.65 0.21,-4.66 0.14,-1 0.57,-2.1 1.3,-3.29 1.19,-2.28 4.7,-3.42 10.55,-3.42 6.21,0 9.91,1.69 11.1,5.07 0.46,1.46 0.69,3.79 0.69,6.99 l 0,13.43 c 4.02,-0.36 7.06,-0.55 9.11,-0.55 2.05,0 3.61,0.07 4.66,0.21 1.05,0.14 2.26,0.57 3.63,1.3 2.37,1.19 3.56,4.71 3.56,10.55 0,5.75 -1.23,9.27 -3.7,10.55 -1.37,0.64 -2.58,1.03 -3.63,1.16 -1.04,0.13 -2.62,0.2 -4.72,0.2 z"
       id="path17"
       style="fill:#ffffff;fill-opacity:1"
       inkscape:connector-curvature="0" /><path
       class="st1"
       d="m 501.32,142.23 c -9.23,0 -16.88,-3.49 -22.95,-10.48 -6.08,-6.99 -9.11,-15.5 -9.11,-25.55 l 0,-23.98 c 0,-2.19 0.07,-3.79 0.21,-4.8 0.14,-1 0.52,-2.19 1.16,-3.56 1.28,-2.47 4.84,-3.7 10.69,-3.7 6.39,0 10.14,1.74 11.23,5.21 0.55,1.46 0.82,3.79 0.82,6.99 l 0,23.98 c 0,3.75 1.07,6.67 3.22,8.77 2.14,2.1 5.02,3.15 8.63,3.15 3.61,0 6.53,-1.1 8.77,-3.29 2.24,-2.19 3.36,-5.07 3.36,-8.63 l 0,-24.26 c 0,-2.1 0.07,-3.68 0.21,-4.73 0.14,-1.05 0.57,-2.26 1.3,-3.63 1.19,-2.37 4.7,-3.56 10.55,-3.56 5.75,0 9.27,1.23 10.55,3.7 0.64,1.37 1.03,2.58 1.17,3.63 0.14,1.05 0.21,2.63 0.21,4.73 l 0,48.5 c 0,2.01 -0.07,3.54 -0.21,4.59 -0.14,1.05 -0.57,2.22 -1.3,3.49 -1.37,2.38 -4.89,3.56 -10.55,3.56 -5.57,0 -9,-1.1 -10.28,-3.29 -0.91,-1.55 -1.37,-3.43 -1.37,-5.62 -0.37,0.64 -1.19,1.55 -2.47,2.74 -1.28,1.19 -2.51,2.19 -3.7,3.01 -3.11,2.02 -6.49,3.03 -10.14,3.03 z"
       id="path19"
       style="fill:#ffffff;fill-opacity:1"
       inkscape:connector-curvature="0" /><path
       class="st1"
       d="m 592.43,70.3 c 9.13,0 16.74,3.49 22.81,10.48 6.07,6.99 9.11,15.5 9.11,25.55 l 0,24.11 c 0,2.1 -0.07,3.68 -0.21,4.73 -0.14,1.05 -0.53,2.22 -1.17,3.49 -1.28,2.47 -4.84,3.7 -10.69,3.7 -6.49,0 -10.23,-1.69 -11.23,-5.07 -0.55,-1.55 -0.82,-3.88 -0.82,-6.99 l 0,-24.11 c 0,-3.74 -1.07,-6.67 -3.22,-8.77 -2.15,-2.1 -5.02,-3.15 -8.63,-3.15 -3.61,0 -6.53,1.1 -8.77,3.29 -2.24,2.19 -3.36,5.07 -3.36,8.63 l 0,24.25 c 0,2.1 -0.07,3.68 -0.21,4.73 -0.14,1.05 -0.57,2.22 -1.3,3.49 -1.19,2.47 -4.71,3.7 -10.55,3.7 -5.75,0 -9.27,-1.23 -10.55,-3.7 -0.64,-1.37 -1.03,-2.58 -1.16,-3.63 -0.14,-1.05 -0.21,-2.62 -0.21,-4.73 l 0,-48.5 c 0,-2.01 0.07,-3.54 0.21,-4.59 0.14,-1.05 0.57,-2.21 1.3,-3.49 1.28,-2.28 4.79,-3.43 10.55,-3.43 5.57,0 9,1.05 10.27,3.15 0.91,1.55 1.37,3.42 1.37,5.62 0.36,-0.64 1.19,-1.55 2.47,-2.74 1.28,-1.19 2.51,-2.15 3.7,-2.88 3.11,-2.09 6.54,-3.14 10.29,-3.14 z"
       id="path21"
       style="fill:#ffffff;fill-opacity:1"
       inkscape:connector-curvature="0" /><path
       class="st1"
       d="m 635.31,48.38 c 0,-2.1 0.07,-3.68 0.21,-4.73 0.14,-1.05 0.52,-2.26 1.16,-3.63 1.28,-2.47 4.84,-3.7 10.69,-3.7 5.57,0 9.04,1.23 10.41,3.7 0.73,1.37 1.16,2.6 1.3,3.7 0.14,1.1 0.21,2.69 0.21,4.79 l 0,63.43 c 0,3.29 0.27,5.37 0.82,6.23 0.55,0.87 1.76,1.3 3.63,1.3 1.87,0 3.13,0.07 3.77,0.21 0.64,0.14 1.42,0.53 2.33,1.16 1.83,1.19 2.74,4.43 2.74,9.73 0,5.75 -0.91,9.27 -2.74,10.55 -2.38,1.64 -8.04,1.92 -16.99,0.82 -7.03,-0.91 -11.6,-3.24 -13.7,-6.99 -2.56,-4.47 -3.84,-11.6 -3.84,-21.37 l 0,-65.2 z"
       id="path23"
       style="fill:#ffffff;fill-opacity:1"
       inkscape:connector-curvature="0" /></g><g
     id="g25"
     style="fill:#ffffff;fill-opacity:1"
     transform="translate(-225.48,-31.32)"><path
       class="st1"
       d="m 340.25,191.5 0,-22.18 13.54,0 0,2.66 -10.43,0 0,6.59 9.28,0 0,2.59 -9.28,0 0,7.68 11.23,0 0,2.66 -14.34,0 z"
       id="path27"
       style="fill:#ffffff;fill-opacity:1"
       inkscape:connector-curvature="0" /><path
       class="st1"
       d="m 358.33,175.34 c 0.68,-0.17 1.59,-0.35 2.72,-0.54 1.13,-0.19 2.43,-0.29 3.9,-0.29 1.32,0 2.42,0.19 3.3,0.56 0.87,0.37 1.57,0.9 2.1,1.57 0.52,0.67 0.89,1.48 1.1,2.42 0.21,0.94 0.32,1.97 0.32,3.1 l 0,9.34 -2.98,0 0,-8.7 c 0,-1.02 -0.07,-1.9 -0.21,-2.62 -0.14,-0.73 -0.37,-1.31 -0.69,-1.76 -0.32,-0.45 -0.75,-0.77 -1.28,-0.98 -0.53,-0.2 -1.19,-0.3 -1.98,-0.3 -0.32,0 -0.65,0.01 -0.99,0.03 -0.34,0.02 -0.67,0.05 -0.98,0.08 -0.31,0.03 -0.59,0.07 -0.83,0.11 -0.25,0.04 -0.42,0.08 -0.53,0.1 l 0,14.05 -2.98,0 0,-16.17 z"
       id="path29"
       style="fill:#ffffff;fill-opacity:1"
       inkscape:connector-curvature="0" /><path
       class="st1"
       d="m 379.48,174.86 6.3,0 0,2.5 -6.3,0 0,7.68 c 0,0.83 0.06,1.52 0.19,2.06 0.13,0.54 0.32,0.97 0.58,1.28 0.26,0.31 0.58,0.53 0.96,0.66 0.38,0.13 0.83,0.19 1.34,0.19 0.9,0 1.62,-0.1 2.16,-0.3 0.54,-0.2 0.92,-0.35 1.14,-0.43 l 0.58,2.46 c -0.3,0.15 -0.82,0.34 -1.57,0.56 -0.75,0.22 -1.6,0.34 -2.56,0.34 -1.13,0 -2.06,-0.14 -2.8,-0.43 -0.74,-0.29 -1.33,-0.72 -1.78,-1.3 -0.45,-0.58 -0.76,-1.29 -0.94,-2.13 -0.18,-0.84 -0.27,-1.82 -0.27,-2.93 l 0,-14.85 2.98,-0.51 0,5.15 z"
       id="path31"
       style="fill:#ffffff;fill-opacity:1"
       inkscape:connector-curvature="0" /><path
       class="st1"
       d="m 388.32,183.21 c 0,-1.47 0.21,-2.76 0.64,-3.86 0.43,-1.1 0.99,-2.01 1.7,-2.74 0.7,-0.73 1.51,-1.27 2.43,-1.63 0.92,-0.36 1.86,-0.54 2.82,-0.54 2.24,0 3.96,0.7 5.15,2.1 1.19,1.4 1.79,3.53 1.79,6.38 0,0.13 0,0.29 0,0.5 0,0.2 -0.01,0.39 -0.03,0.56 l -11.39,0 c 0.13,1.73 0.63,3.04 1.5,3.94 0.87,0.9 2.24,1.34 4.1,1.34 1.04,0 1.92,-0.09 2.64,-0.27 0.71,-0.18 1.25,-0.36 1.62,-0.53 l 0.42,2.5 c -0.36,0.19 -1,0.4 -1.9,0.61 -0.91,0.21 -1.94,0.32 -3.09,0.32 -1.45,0 -2.7,-0.22 -3.76,-0.66 -1.06,-0.44 -1.93,-1.04 -2.61,-1.81 -0.68,-0.77 -1.19,-1.68 -1.52,-2.74 -0.33,-1.06 -0.51,-2.21 -0.51,-3.47 z m 11.42,-1.63 c 0.02,-1.34 -0.31,-2.45 -1.01,-3.31 -0.69,-0.86 -1.65,-1.3 -2.86,-1.3 -0.68,0 -1.29,0.13 -1.81,0.4 -0.52,0.27 -0.97,0.61 -1.33,1.04 -0.36,0.43 -0.65,0.92 -0.85,1.47 -0.2,0.56 -0.34,1.12 -0.4,1.7 l 8.26,0 z"
       id="path33"
       style="fill:#ffffff;fill-opacity:1"
       inkscape:connector-curvature="0" /><path
       class="st1"
       d="m 413.28,174.51 c 0.26,0 0.55,0.02 0.88,0.05 0.33,0.03 0.66,0.07 0.98,0.13 0.32,0.05 0.61,0.11 0.88,0.16 0.27,0.05 0.46,0.1 0.59,0.14 l -0.51,2.59 c -0.23,-0.08 -0.62,-0.19 -1.17,-0.3 -0.54,-0.12 -1.24,-0.18 -2.1,-0.18 -0.55,0 -1.1,0.06 -1.65,0.18 -0.54,0.12 -0.9,0.2 -1.07,0.24 l 0,13.98 -2.98,0 0,-15.94 c 0.7,-0.26 1.58,-0.5 2.62,-0.72 1.05,-0.22 2.22,-0.33 3.53,-0.33 z"
       id="path35"
       style="fill:#ffffff;fill-opacity:1"
       inkscape:connector-curvature="0" /><path
       class="st1"
       d="m 434.14,183.21 c 0,1.26 -0.17,2.42 -0.5,3.49 -0.33,1.07 -0.82,1.98 -1.46,2.75 -0.64,0.77 -1.42,1.37 -2.35,1.79 -0.93,0.43 -1.99,0.64 -3.18,0.64 -0.96,0 -1.81,-0.13 -2.54,-0.38 -0.74,-0.26 -1.29,-0.5 -1.65,-0.74 l 0,6.66 -2.98,0 0,-22.05 c 0.7,-0.17 1.58,-0.36 2.64,-0.56 1.06,-0.2 2.28,-0.3 3.66,-0.3 1.28,0 2.43,0.2 3.46,0.61 1.02,0.41 1.9,0.98 2.62,1.73 0.72,0.75 1.28,1.66 1.68,2.74 0.4,1.07 0.6,2.28 0.6,3.62 z m -3.1,0 c 0,-1.94 -0.48,-3.43 -1.44,-4.48 -0.96,-1.04 -2.24,-1.57 -3.84,-1.57 -0.9,0 -1.59,0.03 -2.1,0.1 -0.5,0.06 -0.9,0.14 -1.2,0.22 l 0,10.5 c 0.36,0.3 0.88,0.59 1.57,0.86 0.69,0.27 1.43,0.42 2.24,0.42 0.85,0 1.58,-0.15 2.19,-0.46 0.61,-0.31 1.1,-0.74 1.49,-1.28 0.38,-0.54 0.66,-1.18 0.83,-1.92 0.17,-0.74 0.26,-1.53 0.26,-2.39 z"
       id="path37"
       style="fill:#ffffff;fill-opacity:1"
       inkscape:connector-curvature="0" /><path
       class="st1"
       d="m 444.47,174.51 c 0.26,0 0.55,0.02 0.88,0.05 0.33,0.03 0.66,0.07 0.98,0.13 0.32,0.05 0.61,0.11 0.88,0.16 0.27,0.05 0.46,0.1 0.59,0.14 l -0.51,2.59 c -0.23,-0.08 -0.62,-0.19 -1.17,-0.3 -0.54,-0.12 -1.24,-0.18 -2.1,-0.18 -0.55,0 -1.1,0.06 -1.65,0.18 -0.54,0.12 -0.9,0.2 -1.07,0.24 l 0,13.98 -2.98,0 0,-15.94 c 0.7,-0.26 1.58,-0.5 2.62,-0.72 1.06,-0.22 2.23,-0.33 3.53,-0.33 z"
       id="path39"
       style="fill:#ffffff;fill-opacity:1"
       inkscape:connector-curvature="0" /><path
       class="st1"
       d="m 452.15,171.85 c -0.53,0 -0.99,-0.18 -1.36,-0.53 -0.37,-0.35 -0.56,-0.83 -0.56,-1.42 0,-0.6 0.19,-1.07 0.56,-1.42 0.37,-0.35 0.83,-0.53 1.36,-0.53 0.53,0 0.99,0.18 1.36,0.53 0.37,0.35 0.56,0.83 0.56,1.42 0,0.6 -0.19,1.07 -0.56,1.42 -0.37,0.36 -0.82,0.53 -1.36,0.53 z m 1.51,19.65 -2.98,0 0,-16.64 2.98,0 0,16.64 z"
       id="path41"
       style="fill:#ffffff;fill-opacity:1"
       inkscape:connector-curvature="0" /><path
       class="st1"
       d="m 462.65,189.36 c 1.22,0 2.12,-0.16 2.7,-0.48 0.58,-0.32 0.88,-0.83 0.88,-1.54 0,-0.72 -0.29,-1.3 -0.86,-1.73 -0.58,-0.43 -1.53,-0.91 -2.85,-1.44 -0.64,-0.26 -1.25,-0.52 -1.84,-0.78 -0.59,-0.26 -1.09,-0.58 -1.52,-0.94 -0.43,-0.36 -0.77,-0.8 -1.02,-1.31 -0.26,-0.51 -0.38,-1.14 -0.38,-1.89 0,-1.47 0.54,-2.64 1.63,-3.5 1.09,-0.86 2.57,-1.3 4.45,-1.3 0.47,0 0.94,0.03 1.41,0.08 0.47,0.05 0.91,0.12 1.31,0.19 0.41,0.08 0.76,0.16 1.07,0.24 0.31,0.09 0.55,0.16 0.72,0.22 l -0.54,2.56 c -0.32,-0.17 -0.82,-0.35 -1.5,-0.53 -0.68,-0.18 -1.5,-0.27 -2.46,-0.27 -0.83,0 -1.56,0.17 -2.18,0.5 -0.62,0.33 -0.93,0.85 -0.93,1.55 0,0.36 0.07,0.68 0.21,0.96 0.14,0.28 0.35,0.53 0.64,0.75 0.29,0.22 0.64,0.43 1.07,0.62 0.43,0.19 0.94,0.4 1.54,0.61 0.79,0.3 1.49,0.59 2.11,0.88 0.62,0.29 1.15,0.62 1.58,1.01 0.44,0.38 0.77,0.85 1.01,1.39 0.23,0.54 0.35,1.21 0.35,2 0,1.54 -0.57,2.7 -1.71,3.49 -1.14,0.79 -2.77,1.18 -4.88,1.18 -1.47,0 -2.62,-0.12 -3.46,-0.37 -0.84,-0.25 -1.4,-0.43 -1.7,-0.56 l 0.54,-2.56 c 0.34,0.13 0.88,0.32 1.63,0.58 0.75,0.26 1.74,0.39 2.98,0.39 z"
       id="path43"
       style="fill:#ffffff;fill-opacity:1"
       inkscape:connector-curvature="0" /><path
       class="st1"
       d="m 472.12,183.21 c 0,-1.47 0.21,-2.76 0.64,-3.86 0.43,-1.1 0.99,-2.01 1.7,-2.74 0.7,-0.73 1.51,-1.27 2.43,-1.63 0.92,-0.36 1.86,-0.54 2.82,-0.54 2.24,0 3.96,0.7 5.15,2.1 1.19,1.4 1.79,3.53 1.79,6.38 0,0.13 0,0.29 0,0.5 0,0.2 -0.01,0.39 -0.03,0.56 l -11.39,0 c 0.13,1.73 0.63,3.04 1.5,3.94 0.87,0.9 2.24,1.34 4.1,1.34 1.04,0 1.92,-0.09 2.64,-0.27 0.71,-0.18 1.25,-0.36 1.62,-0.53 l 0.42,2.5 c -0.36,0.19 -1,0.4 -1.9,0.61 -0.91,0.21 -1.94,0.32 -3.09,0.32 -1.45,0 -2.7,-0.22 -3.76,-0.66 -1.06,-0.44 -1.93,-1.04 -2.61,-1.81 -0.68,-0.77 -1.19,-1.68 -1.52,-2.74 -0.33,-1.06 -0.51,-2.21 -0.51,-3.47 z m 11.43,-1.63 c 0.02,-1.34 -0.31,-2.45 -1.01,-3.31 -0.69,-0.86 -1.65,-1.3 -2.86,-1.3 -0.68,0 -1.29,0.13 -1.81,0.4 -0.52,0.27 -0.97,0.61 -1.33,1.04 -0.36,0.43 -0.65,0.92 -0.85,1.47 -0.2,0.56 -0.34,1.12 -0.4,1.7 l 8.26,0 z"
       id="path45"
       style="fill:#ffffff;fill-opacity:1"
       inkscape:connector-curvature="0" /><path
       class="st1"
       d="m 516.44,169.32 c -0.81,2.35 -1.58,4.52 -2.32,6.51 -0.74,2 -1.46,3.89 -2.16,5.68 -0.7,1.79 -1.4,3.5 -2.1,5.14 -0.69,1.63 -1.4,3.25 -2.13,4.85 l -2.91,0 c -0.73,-1.6 -1.43,-3.22 -2.13,-4.85 -0.69,-1.63 -1.4,-3.34 -2.11,-5.14 -0.72,-1.79 -1.45,-3.69 -2.19,-5.68 -0.75,-1.99 -1.51,-4.17 -2.3,-6.51 l 3.42,0 c 1.15,3.37 2.28,6.61 3.39,9.73 1.11,3.12 2.25,6.04 3.42,8.77 1.17,-2.71 2.31,-5.63 3.42,-8.75 1.11,-3.13 2.23,-6.37 3.36,-9.74 l 3.34,0 z"
       id="path47"
       style="fill:#ffffff;fill-opacity:1"
       inkscape:connector-curvature="0" /><path
       class="st1"
       d="m 525.4,169.1 c 3.12,0 5.51,0.59 7.18,1.78 1.67,1.18 2.51,2.95 2.51,5.3 0,1.28 -0.23,2.37 -0.69,3.28 -0.46,0.91 -1.12,1.64 -1.98,2.21 -0.86,0.57 -1.92,0.98 -3.15,1.23 -1.23,0.25 -2.63,0.38 -4.19,0.38 l -2.46,0 0,8.22 -3.1,0 0,-21.86 c 0.88,-0.21 1.85,-0.36 2.93,-0.43 1.07,-0.07 2.05,-0.11 2.95,-0.11 z m 0.26,2.72 c -1.32,0 -2.34,0.03 -3.04,0.1 l 0,8.7 2.34,0 c 1.07,0 2.03,-0.07 2.88,-0.21 0.85,-0.14 1.57,-0.37 2.16,-0.7 0.59,-0.33 1.04,-0.78 1.36,-1.36 0.32,-0.58 0.48,-1.31 0.48,-2.21 0,-0.85 -0.17,-1.56 -0.5,-2.11 -0.33,-0.55 -0.78,-1 -1.34,-1.33 -0.57,-0.33 -1.22,-0.56 -1.97,-0.69 -0.75,-0.13 -1.54,-0.19 -2.37,-0.19 z"
       id="path49"
       style="fill:#ffffff;fill-opacity:1"
       inkscape:connector-curvature="0" /><path
       class="st1"
       d="m 554.17,191.5 c -0.47,-0.79 -1.01,-1.67 -1.62,-2.66 -0.61,-0.99 -1.26,-2 -1.97,-3.06 -0.71,-1.06 -1.44,-2.13 -2.19,-3.22 -0.76,-1.09 -1.51,-2.14 -2.26,-3.15 -0.75,-1.01 -1.47,-1.97 -2.18,-2.86 -0.71,-0.89 -1.36,-1.69 -1.95,-2.37 l 0,17.31 -3.04,0 0,-22.18 2.46,0 c 1,1.07 2.07,2.31 3.22,3.73 1.14,1.42 2.27,2.88 3.39,4.38 1.12,1.5 2.18,2.98 3.17,4.43 0.99,1.45 1.83,2.74 2.51,3.87 l 0,-16.42 3.04,0 0,22.18 -2.58,0 z"
       id="path51"
       style="fill:#ffffff;fill-opacity:1"
       inkscape:connector-curvature="0" /><path
       class="st1"
       d="m 574.81,189.29 c 3.24,0 4.86,-1.11 4.86,-3.33 0,-0.68 -0.14,-1.26 -0.43,-1.74 -0.29,-0.48 -0.68,-0.9 -1.17,-1.25 -0.49,-0.35 -1.05,-0.66 -1.68,-0.91 -0.63,-0.26 -1.3,-0.51 -2,-0.77 -0.81,-0.28 -1.58,-0.59 -2.3,-0.94 -0.72,-0.35 -1.35,-0.77 -1.89,-1.25 -0.54,-0.48 -0.96,-1.05 -1.26,-1.71 -0.31,-0.66 -0.46,-1.46 -0.46,-2.4 0,-1.94 0.66,-3.46 1.98,-4.54 1.32,-1.09 3.15,-1.63 5.47,-1.63 1.34,0 2.56,0.14 3.66,0.43 1.1,0.29 1.9,0.6 2.42,0.94 l -0.99,2.53 c -0.45,-0.28 -1.12,-0.55 -2,-0.82 -0.89,-0.27 -1.92,-0.4 -3.09,-0.4 -0.6,0 -1.15,0.06 -1.66,0.19 -0.51,0.13 -0.96,0.32 -1.34,0.58 -0.38,0.26 -0.69,0.58 -0.91,0.98 -0.22,0.4 -0.34,0.86 -0.34,1.39 0,0.6 0.12,1.1 0.35,1.5 0.23,0.41 0.56,0.76 0.99,1.07 0.43,0.31 0.92,0.59 1.49,0.85 0.57,0.26 1.19,0.51 1.87,0.77 0.96,0.38 1.84,0.77 2.64,1.15 0.8,0.38 1.49,0.84 2.08,1.38 0.59,0.53 1.04,1.17 1.36,1.9 0.32,0.74 0.48,1.63 0.48,2.67 0,1.94 -0.71,3.44 -2.13,4.48 -1.42,1.05 -3.42,1.57 -6,1.57 -0.88,0 -1.68,-0.06 -2.42,-0.18 -0.74,-0.12 -1.39,-0.26 -1.97,-0.42 -0.58,-0.16 -1.07,-0.33 -1.49,-0.51 -0.42,-0.18 -0.74,-0.34 -0.98,-0.46 l 0.93,-2.56 c 0.49,0.28 1.24,0.59 2.24,0.93 1.01,0.34 2.24,0.51 3.69,0.51 z"
       id="path53"
       style="fill:#ffffff;fill-opacity:1"
       inkscape:connector-curvature="0" /><path
       class="st1"
       d="m 585.56,183.21 c 0,-1.47 0.21,-2.76 0.64,-3.86 0.43,-1.1 0.99,-2.01 1.7,-2.74 0.7,-0.73 1.51,-1.27 2.43,-1.63 0.92,-0.36 1.86,-0.54 2.82,-0.54 2.24,0 3.96,0.7 5.15,2.1 1.19,1.4 1.79,3.53 1.79,6.38 0,0.13 0,0.29 0,0.5 0,0.2 -0.01,0.39 -0.03,0.56 l -11.39,0 c 0.13,1.73 0.63,3.04 1.5,3.94 0.87,0.9 2.24,1.34 4.1,1.34 1.04,0 1.92,-0.09 2.64,-0.27 0.71,-0.18 1.25,-0.36 1.62,-0.53 l 0.42,2.5 c -0.36,0.19 -1,0.4 -1.9,0.61 -0.91,0.21 -1.94,0.32 -3.09,0.32 -1.45,0 -2.7,-0.22 -3.76,-0.66 -1.06,-0.44 -1.93,-1.04 -2.61,-1.81 -0.68,-0.77 -1.19,-1.68 -1.52,-2.74 -0.33,-1.06 -0.51,-2.21 -0.51,-3.47 z m 11.42,-1.63 c 0.02,-1.34 -0.31,-2.45 -1.01,-3.31 -0.69,-0.86 -1.65,-1.3 -2.86,-1.3 -0.68,0 -1.29,0.13 -1.81,0.4 -0.52,0.27 -0.97,0.61 -1.33,1.04 -0.36,0.43 -0.65,0.92 -0.85,1.47 -0.2,0.56 -0.34,1.12 -0.4,1.7 l 8.26,0 z"
       id="path55"
       style="fill:#ffffff;fill-opacity:1"
       inkscape:connector-curvature="0" /><path
       class="st1"
       d="m 610.52,174.51 c 0.26,0 0.55,0.02 0.88,0.05 0.33,0.03 0.66,0.07 0.98,0.13 0.32,0.05 0.61,0.11 0.88,0.16 0.27,0.05 0.46,0.1 0.59,0.14 l -0.51,2.59 c -0.23,-0.08 -0.62,-0.19 -1.17,-0.3 -0.54,-0.12 -1.24,-0.18 -2.1,-0.18 -0.55,0 -1.1,0.06 -1.65,0.18 -0.54,0.12 -0.9,0.2 -1.07,0.24 l 0,13.98 -2.98,0 0,-15.94 c 0.7,-0.26 1.58,-0.5 2.62,-0.72 1.05,-0.22 2.23,-0.33 3.53,-0.33 z"
       id="path57"
       style="fill:#ffffff;fill-opacity:1"
       inkscape:connector-curvature="0" /><path
       class="st1"
       d="m 630.39,174.86 c -0.83,3.12 -1.81,6.1 -2.93,8.96 -1.12,2.86 -2.2,5.42 -3.25,7.68 l -2.69,0 c -1.05,-2.26 -2.13,-4.82 -3.25,-7.68 -1.12,-2.86 -2.1,-5.84 -2.93,-8.96 l 3.2,0 c 0.26,1.05 0.56,2.16 0.91,3.34 0.35,1.18 0.72,2.36 1.12,3.52 0.39,1.16 0.79,2.29 1.2,3.38 0.4,1.09 0.79,2.06 1.15,2.91 0.36,-0.85 0.75,-1.82 1.15,-2.91 0.4,-1.09 0.8,-2.21 1.2,-3.38 0.39,-1.16 0.77,-2.34 1.12,-3.52 0.35,-1.18 0.66,-2.3 0.91,-3.34 l 3.09,0 z"
       id="path59"
       style="fill:#ffffff;fill-opacity:1"
       inkscape:connector-curvature="0" /><path
       class="st1"
       d="m 632.09,183.21 c 0,-1.47 0.21,-2.76 0.64,-3.86 0.43,-1.1 0.99,-2.01 1.7,-2.74 0.7,-0.73 1.51,-1.27 2.43,-1.63 0.92,-0.36 1.86,-0.54 2.82,-0.54 2.24,0 3.96,0.7 5.15,2.1 1.19,1.4 1.79,3.53 1.79,6.38 0,0.13 0,0.29 0,0.5 0,0.2 -0.01,0.39 -0.03,0.56 l -11.39,0 c 0.13,1.73 0.63,3.04 1.5,3.94 0.87,0.9 2.24,1.34 4.1,1.34 1.04,0 1.92,-0.09 2.64,-0.27 0.71,-0.18 1.25,-0.36 1.62,-0.53 l 0.42,2.5 c -0.36,0.19 -1,0.4 -1.9,0.61 -0.91,0.21 -1.94,0.32 -3.09,0.32 -1.45,0 -2.7,-0.22 -3.76,-0.66 -1.06,-0.44 -1.93,-1.04 -2.61,-1.81 -0.68,-0.77 -1.19,-1.68 -1.52,-2.74 -0.33,-1.06 -0.51,-2.21 -0.51,-3.47 z m 11.42,-1.63 c 0.02,-1.34 -0.31,-2.45 -1.01,-3.31 -0.69,-0.86 -1.65,-1.3 -2.86,-1.3 -0.68,0 -1.29,0.13 -1.81,0.4 -0.52,0.27 -0.97,0.61 -1.33,1.04 -0.36,0.43 -0.65,0.92 -0.85,1.47 -0.2,0.56 -0.34,1.12 -0.4,1.7 l 8.26,0 z"
       id="path61"
       style="fill:#ffffff;fill-opacity:1"
       inkscape:connector-curvature="0" /><path
       class="st1"
       d="m 657.05,174.51 c 0.26,0 0.55,0.02 0.88,0.05 0.33,0.03 0.66,0.07 0.98,0.13 0.32,0.05 0.61,0.11 0.88,0.16 0.27,0.05 0.46,0.1 0.59,0.14 l -0.51,2.59 c -0.23,-0.08 -0.62,-0.19 -1.17,-0.3 -0.54,-0.12 -1.24,-0.18 -2.1,-0.18 -0.55,0 -1.1,0.06 -1.65,0.18 -0.54,0.12 -0.9,0.2 -1.07,0.24 l 0,13.98 -2.98,0 0,-15.94 c 0.7,-0.26 1.58,-0.5 2.62,-0.72 1.05,-0.22 2.23,-0.33 3.53,-0.33 z"
       id="path63"
       style="fill:#ffffff;fill-opacity:1"
       inkscape:connector-curvature="0" /></g><g
     id="g65"
     transform="translate(-225.48,-31.32)" /><g
     id="g67"
     transform="translate(-225.48,-31.32)" /><g
     id="g69"
     transform="translate(-225.48,-31.32)" /><g
     id="g71"
     transform="translate(-225.48,-31.32)" /><g
     id="g73"
     transform="translate(-225.48,-31.32)" /><g
     id="g75"
     transform="translate(-225.48,-31.32)" /><g
     id="g77"
     transform="translate(-225.48,-31.32)" /><g
     id="g79"
     transform="translate(-225.48,-31.32)" /><g
     id="g81"
     transform="translate(-225.48,-31.32)" /><g
     id="g83"
     transform="translate(-225.48,-31.32)" /><g
     id="g85"
     transform="translate(-225.48,-31.32)" /><g
     id="g87"
     transform="translate(-225.48,-31.32)" /><g
     id="g89"
     transform="translate(-225.48,-31.32)" /><g
     id="g91"
     transform="translate(-225.48,-31.32)" /><g
     id="g93"
     transform="translate(-225.48,-31.32)" /><g
     id="g95"
     transform="translate(-225.48,-31.32)" /></svg>