<?xml version="1.0" encoding="UTF-8" standalone="no"?>
<svg
   xmlns:dc="http://purl.org/dc/elements/1.1/"
   xmlns:cc="http://creativecommons.org/ns#"
   xmlns:rdf="http://www.w3.org/1999/02/22-rdf-syntax-ns#"
   xmlns:svg="http://www.w3.org/2000/svg"
   xmlns="http://www.w3.org/2000/svg"
   xml:space="preserve"
   style="enable-background:new 0 0 807 656;"
   viewBox="0 0 807 656"
   height="656px"
   width="807px"
   y="0px"
   x="0px"
   id="main"
   version="1.1"><metadata
     id="metadata839"><rdf:RDF><cc:Work
         rdf:about=""><dc:format>image/svg+xml</dc:format><dc:type
           rdf:resource="http://purl.org/dc/dcmitype/StillImage" /><dc:title></dc:title></cc:Work></rdf:RDF></metadata><defs
     id="defs837" /><style
     id="style3"
     type="text/css">
	.st0{opacity:0.1;fill:#CCCCCC;}
	.st1{fill:none;stroke:#FFFFFF;stroke-width:4;stroke-miterlimit:10;}
	.st2{fill:#FF0000;stroke:#FFFFFF;stroke-width:4;stroke-miterlimit:10;}
	.st3{fill:#2E4153;}
	.st4{fill:#293A49;}
	.st5{fill:none;stroke:#000000;stroke-width:4;stroke-miterlimit:10;}
	.st6{fill:#7E8284;}
	.st7{opacity:0.6;fill:none;stroke:#000000;stroke-width:4;stroke-linecap:round;stroke-miterlimit:10;}
	.st8{fill:#54B734;}
	.st9{fill:#64D0FF;}
	.st10{fill:#BF42F4;}
	.st11{opacity:0.5;fill:none;stroke:#000000;stroke-width:2;stroke-linecap:round;stroke-miterlimit:10;}
	.st12{fill:#404040;}
	.st13{fill:#2F2F2F;}
	.st14{fill:#10639B;}
</style><polyline
     style="fill:#2e4153;fill-opacity:1;opacity:0.4"
     id="polyline5"
     points="21.6,418.7 406.6,641 406.6,641 791.6,418.7 406.6,196.5 21.6,418.7 "
     class="st0" /><polyline
     style="fill:#2e4153;fill-opacity:1;opacity:0.4"
     id="polyline7"
     points="406.6,15.3 791.6,237.5 791.6,237.5 791.6,418.7 406.6,196.5 406.6,15.3 "
     class="st0" /><polyline
     style="fill:#2e4153;fill-opacity:1;opacity:0.4"
     id="polyline9"
     points="21.6,237.5 406.6,15.3 406.6,15.3 406.6,196.5 21.6,418.7 21.6,418.7 21.6,237.5 "
     class="st0" /><line
     style="stroke:#2e4153;stroke-opacity:1"
     id="line11"
     y2="15.3"
     x2="406.6"
     y1="196.5"
     x1="406.6"
     class="st1" /><line
     style="stroke:#2e4153;stroke-opacity:1"
     id="line13"
     y2="196.5"
     x2="406.6"
     y1="418.7"
     x1="791.6"
     class="st1" /><line
     style="stroke:#2e4153;stroke-opacity:1"
     id="line15"
     y2="196.5"
     x2="406.6"
     y1="418.7"
     x1="21.6"
     class="st2" /><g
     id="g17"><g
       id="g19"><polygon
         id="polygon21"
         points="311.4,108.4 407.6,164 503.9,108.4 407.6,52.9   "
         class="st3" /><polygon
         id="polygon23"
         points="407.6,275.2 407.6,164 503.9,108.4 503.9,219.6   "
         class="st4" /><polygon
         id="polygon25"
         points="407.6,275.2 407.6,164 311.4,108.5 311.4,219.6   "
         class="st3" /><polyline
         id="polyline27"
         points="311.4,108.4 407.6,164 407.6,275.2 407.6,164 503.9,108.4   "
         class="st5" /><polygon
         id="polygon29"
         points="311.4,108.4 311.4,219.6 407.6,275.2 503.9,219.6 503.9,108.4 407.6,52.9   "
         class="st5" /><g
         id="g31"><path
           id="path33"
           d="M394.6,229.3c-0.6,1-1.8,1.3-2.7,0.7l-67.8-39.1c-1-0.6-1.3-1.8-0.7-2.7l0.2-0.4c0.6-1,1.8-1.3,2.7-0.7     l67.8,39.1c1,0.6,1.3,1.8,0.7,2.7L394.6,229.3z"
           class="st6" /></g><g
         id="g35"><path
           id="path37"
           d="M394.6,242.6c-0.6,1-1.8,1.3-2.7,0.7l-67.8-39.1c-1-0.6-1.3-1.8-0.7-2.7l0.2-0.4c0.6-1,1.8-1.3,2.7-0.7     l67.8,39.1c1,0.6,1.3,1.8,0.7,2.7L394.6,242.6z"
           class="st6" /></g><g
         id="g39"><path
           id="path41"
           d="M394.6,256c-0.6,1-1.8,1.3-2.7,0.7l-67.8-39.1c-1-0.6-1.3-1.8-0.7-2.7l0.2-0.4c0.6-1,1.8-1.3,2.7-0.7     l67.8,39.1c1,0.6,1.3,1.8,0.7,2.7L394.6,256z"
           class="st6" /></g><g
         id="g43"><g
           id="g45"><line
             id="line47"
             y2="190.6"
             x2="369.1"
             y1="206.2"
             x1="396.1"
             class="st7" /><circle
             id="circle49"
             r="2.2"
             cy="187.3"
             cx="363.5"
             class="st8" /></g><g
           id="g51"><line
             id="line53"
             y2="180.6"
             x2="369.1"
             y1="196.2"
             x1="396.1"
             class="st7" /><circle
             id="circle55"
             r="2.2"
             cy="177.3"
             cx="363.5"
             class="st8" /></g><g
           id="g57"><line
             id="line59"
             y2="169.5"
             x2="369.1"
             y1="185.1"
             x1="396.1"
             class="st7" /><circle
             id="circle61"
             r="2.2"
             cy="166.2"
             cx="363.5"
             class="st8" /></g><g
           id="g63"><line
             id="line65"
             y2="166.2"
             x2="326.9"
             y1="181.8"
             x1="353.9"
             class="st7" /><circle
             id="circle67"
             r="2.2"
             cy="162.9"
             cx="321.3"
             class="st8" /></g><g
           id="g69"><line
             id="line71"
             y2="200.7"
             x2="369.1"
             y1="216.3"
             x1="396.1"
             class="st7" /><circle
             id="circle73"
             r="2.2"
             cy="197.3"
             cx="363.5"
             class="st8" /></g><g
           id="g75"><line
             id="line77"
             y2="176.2"
             x2="326.9"
             y1="191.8"
             x1="353.9"
             class="st7" /><circle
             id="circle79"
             r="2.2"
             cy="172.9"
             cx="321.3"
             class="st8" /></g><g
           id="g81"><line
             id="line83"
             y2="156.2"
             x2="326.9"
             y1="171.8"
             x1="353.9"
             class="st7" /><circle
             id="circle85"
             r="2.2"
             cy="152.9"
             cx="321.3"
             class="st8" /></g><g
           id="g87"><line
             id="line89"
             y2="145.1"
             x2="326.9"
             y1="160.7"
             x1="353.9"
             class="st7" /><circle
             id="circle91"
             r="2.2"
             cy="141.7"
             cx="321.3"
             class="st8" /></g></g><circle
         id="circle93"
         r="3.9"
         cy="130.3"
         cx="324.2"
         class="st9" /><circle
         id="circle95"
         r="3.9"
         cy="136.5"
         cx="334.6"
         class="st10" /><line
         id="line97"
         y2="215.8"
         x2="495.3"
         y1="226.9"
         x1="476.1"
         class="st11" /><line
         id="line99"
         y2="211.4"
         x2="495.3"
         y1="222.5"
         x1="476.1"
         class="st11" /><line
         id="line101"
         y2="206.9"
         x2="495.3"
         y1="218"
         x1="476.1"
         class="st11" /><line
         id="line103"
         y2="202.5"
         x2="495.3"
         y1="213.6"
         x1="476.1"
         class="st11" /><line
         id="line105"
         y2="198"
         x2="495.3"
         y1="209.2"
         x1="476.1"
         class="st11" /></g><g
       id="g107"><polygon
         id="polygon109"
         points="427,236.7 523.3,292.3 619.5,236.7 523.3,181.1   "
         class="st12" /><polygon
         id="polygon111"
         points="523.3,403.4 523.3,292.3 619.5,236.7 619.5,347.8   "
         class="st13" /><polygon
         id="polygon113"
         points="523.3,403.4 523.3,292.3 427,236.7 427,347.9   "
         class="st12" /><polyline
         id="polyline115"
         points="427,236.7 523.3,292.3 523.3,403.4 523.3,292.3 619.5,236.7   "
         class="st5" /><polygon
         id="polygon117"
         points="427,236.7 427,347.8 523.3,403.4 619.5,347.8 619.5,236.7 523.3,181.1   "
         class="st5" /><g
         id="g119"><path
           id="path121"
           d="M510.2,357.5c-0.6,1-1.8,1.3-2.7,0.7l-67.8-39.1c-1-0.5-1.3-1.8-0.7-2.7l0.2-0.4c0.6-1,1.8-1.3,2.7-0.7     l67.8,39.1c1,0.5,1.3,1.8,0.7,2.7L510.2,357.5z"
           class="st14" /></g><g
         id="g123"><path
           id="path125"
           d="M510.2,370.9c-0.6,1-1.8,1.3-2.7,0.7l-67.8-39.1c-1-0.6-1.3-1.8-0.7-2.7l0.2-0.4c0.6-1,1.8-1.3,2.7-0.7     l67.8,39.1c1,0.5,1.3,1.8,0.7,2.7L510.2,370.9z"
           class="st14" /></g><g
         id="g127"><path
           id="path129"
           d="M510.2,384.2c-0.6,1-1.8,1.3-2.7,0.7l-67.8-39.1c-1-0.6-1.3-1.8-0.7-2.7l0.2-0.4c0.6-1,1.8-1.3,2.7-0.7     l67.8,39.1c1,0.6,1.3,1.8,0.7,2.7L510.2,384.2z"
           class="st14" /></g><g
         id="g131"><g
           id="g133"><line
             id="line135"
             y2="318.9"
             x2="484.7"
             y1="334.5"
             x1="511.8"
             class="st7" /><circle
             id="circle137"
             r="2.2"
             cy="315.6"
             cx="479.2"
             class="st8" /></g><g
           id="g139"><line
             id="line141"
             y2="308.9"
             x2="484.7"
             y1="324.5"
             x1="511.8"
             class="st7" /><circle
             id="circle143"
             r="2.2"
             cy="305.5"
             cx="479.2"
             class="st8" /></g><g
           id="g145"><line
             id="line147"
             y2="297.8"
             x2="484.7"
             y1="313.4"
             x1="511.8"
             class="st7" /><circle
             id="circle149"
             r="2.2"
             cy="294.4"
             cx="479.2"
             class="st8" /></g><g
           id="g151"><line
             id="line153"
             y2="294.4"
             x2="442.5"
             y1="310"
             x1="469.5"
             class="st7" /><circle
             id="circle155"
             r="2.2"
             cy="291.1"
             cx="436.9"
             class="st8" /></g><g
           id="g157"><line
             id="line159"
             y2="328.9"
             x2="484.7"
             y1="344.5"
             x1="511.8"
             class="st7" /><circle
             id="circle161"
             r="2.2"
             cy="325.6"
             cx="479.2"
             class="st8" /></g><g
           id="g163"><line
             id="line165"
             y2="304.4"
             x2="442.5"
             y1="320"
             x1="469.5"
             class="st7" /><circle
             id="circle167"
             r="2.2"
             cy="301.1"
             cx="436.9"
             class="st8" /></g><g
           id="g169"><line
             id="line171"
             y2="284.4"
             x2="442.5"
             y1="300"
             x1="469.5"
             class="st7" /><circle
             id="circle173"
             r="2.2"
             cy="281.1"
             cx="436.9"
             class="st8" /></g><g
           id="g175"><line
             id="line177"
             y2="273.3"
             x2="442.5"
             y1="288.9"
             x1="469.5"
             class="st7" /><circle
             id="circle179"
             r="2.2"
             cy="270"
             cx="436.9"
             class="st8" /></g></g><circle
         id="circle181"
         r="3.9"
         cy="258.6"
         cx="439.8"
         class="st9" /><circle
         id="circle183"
         r="3.9"
         cy="264.7"
         cx="450.3"
         class="st10" /><line
         id="line185"
         y2="344.1"
         x2="611"
         y1="355.2"
         x1="591.7"
         class="st11" /><line
         id="line187"
         y2="339.6"
         x2="611"
         y1="350.7"
         x1="591.7"
         class="st11" /><line
         id="line189"
         y2="335.2"
         x2="611"
         y1="346.3"
         x1="591.7"
         class="st11" /><line
         id="line191"
         y2="330.7"
         x2="611"
         y1="341.8"
         x1="591.7"
         class="st11" /><line
         id="line193"
         y2="326.3"
         x2="611"
         y1="337.4"
         x1="591.7"
         class="st11" /></g><g
       id="g195"><polygon
         id="polygon197"
         points="541.6,306.1 637.9,361.7 734.2,306.1 637.9,250.5   "
         class="st12" /><polygon
         id="polygon199"
         points="637.9,472.8 637.9,361.7 734.2,306.1 734.2,417.3   "
         class="st13" /><polygon
         id="polygon201"
         points="637.9,472.8 637.9,361.7 541.6,306.1 541.6,417.3   "
         class="st12" /><polyline
         id="polyline203"
         points="541.6,306.1 637.9,361.7 637.9,472.8 637.9,361.7 734.2,306.1   "
         class="st5" /><polygon
         id="polygon205"
         points="541.6,306.1 541.6,417.3 637.9,472.8 734.2,417.3 734.2,306.1 637.9,250.5   "
         class="st5" /><g
         id="g207"><path
           id="path209"
           d="M624.9,426.9c-0.6,1-1.8,1.3-2.7,0.7l-67.8-39.1c-1-0.6-1.3-1.8-0.7-2.7l0.2-0.4c0.5-1,1.8-1.3,2.7-0.7     l67.8,39.1c1,0.6,1.3,1.8,0.7,2.7L624.9,426.9z"
           class="st14" /></g><g
         id="g211"><path
           id="path213"
           d="M624.9,440.3c-0.6,1-1.8,1.3-2.7,0.7l-67.8-39.1c-1-0.5-1.3-1.8-0.7-2.7l0.2-0.4c0.5-1,1.8-1.3,2.7-0.7     l67.8,39.1c1,0.6,1.3,1.8,0.7,2.7L624.9,440.3z"
           class="st14" /></g><g
         id="g215"><path
           id="path217"
           d="M624.9,453.6c-0.6,1-1.8,1.3-2.7,0.7l-67.8-39.1c-1-0.5-1.3-1.8-0.7-2.7l0.2-0.4c0.5-1,1.8-1.3,2.7-0.7     l67.8,39.1c1,0.5,1.3,1.8,0.7,2.7L624.9,453.6z"
           class="st14" /></g><g
         id="g219"><g
           id="g221"><line
             id="line223"
             y2="388.3"
             x2="599.4"
             y1="403.9"
             x1="626.4"
             class="st7" /><circle
             id="circle225"
             r="2.2"
             cy="385"
             cx="593.8"
             class="st8" /></g><g
           id="g227"><line
             id="line229"
             y2="378.3"
             x2="599.4"
             y1="393.9"
             x1="626.4"
             class="st7" /><circle
             id="circle231"
             r="2.2"
             cy="375"
             cx="593.8"
             class="st8" /></g><g
           id="g233"><line
             id="line235"
             y2="367.2"
             x2="599.4"
             y1="382.8"
             x1="626.4"
             class="st7" /><circle
             id="circle237"
             r="2.2"
             cy="363.8"
             cx="593.8"
             class="st8" /></g><g
           id="g239"><line
             id="line241"
             y2="363.8"
             x2="557.1"
             y1="379.4"
             x1="584.1"
             class="st7" /><circle
             id="circle243"
             r="2.2"
             cy="360.5"
             cx="551.6"
             class="st8" /></g><g
           id="g245"><line
             id="line247"
             y2="398.3"
             x2="599.4"
             y1="413.9"
             x1="626.4"
             class="st7" /><circle
             id="circle249"
             r="2.2"
             cy="395"
             cx="593.8"
             class="st8" /></g><g
           id="g251"><line
             id="line253"
             y2="373.8"
             x2="557.1"
             y1="389.4"
             x1="584.1"
             class="st7" /><circle
             id="circle255"
             r="2.2"
             cy="370.5"
             cx="551.6"
             class="st8" /></g><g
           id="g257"><line
             id="line259"
             y2="353.8"
             x2="557.1"
             y1="369.4"
             x1="584.1"
             class="st7" /><circle
             id="circle261"
             r="2.2"
             cy="350.5"
             cx="551.6"
             class="st8" /></g><g
           id="g263"><line
             id="line265"
             y2="342.7"
             x2="557.1"
             y1="358.3"
             x1="584.1"
             class="st7" /><circle
             id="circle267"
             r="2.2"
             cy="339.4"
             cx="551.6"
             class="st8" /></g></g><circle
         id="circle269"
         r="3.9"
         cy="328"
         cx="554.4"
         class="st9" /><circle
         id="circle271"
         r="3.9"
         cy="334.1"
         cx="564.9"
         class="st10" /><line
         id="line273"
         y2="413.5"
         x2="725.6"
         y1="424.6"
         x1="706.3"
         class="st11" /><line
         id="line275"
         y2="409"
         x2="725.6"
         y1="420.1"
         x1="706.3"
         class="st11" /><line
         id="line277"
         y2="404.6"
         x2="725.6"
         y1="415.7"
         x1="706.3"
         class="st11" /><line
         id="line279"
         y2="400.1"
         x2="725.6"
         y1="411.2"
         x1="706.3"
         class="st11" /><line
         id="line281"
         y2="395.7"
         x2="725.6"
         y1="406.8"
         x1="706.3"
         class="st11" /></g><g
       id="g283"><polygon
         id="polygon285"
         points="194.8,238.4 291.1,294 387.3,238.4 291.1,182.9   "
         class="st12" /><polygon
         id="polygon287"
         points="291.1,405.2 291.1,294 387.3,238.4 387.3,349.6   "
         class="st13" /><polygon
         id="polygon289"
         points="291.1,405.2 291.1,294 194.8,238.5 194.8,349.6   "
         class="st12" /><polyline
         id="polyline291"
         points="194.8,238.4 291.1,294 291.1,405.2 291.1,294 387.3,238.4   "
         class="st5" /><polygon
         id="polygon293"
         points="194.8,238.4 194.8,349.6 291.1,405.2 387.3,349.6 387.3,238.4 291.1,182.9   "
         class="st5" /><g
         id="g295"><path
           id="path297"
           d="M278,359.3c-0.6,1-1.8,1.3-2.7,0.7l-67.8-39.1c-1-0.5-1.3-1.8-0.7-2.7l0.2-0.4c0.6-1,1.8-1.3,2.7-0.7     l67.8,39.1c1,0.6,1.3,1.8,0.7,2.7L278,359.3z"
           class="st14" /></g><g
         id="g299"><path
           id="path301"
           d="M278,372.6c-0.6,1-1.8,1.3-2.7,0.7l-67.8-39.1c-1-0.5-1.3-1.8-0.7-2.7l0.2-0.4c0.6-1,1.8-1.3,2.7-0.7     l67.8,39.1c1,0.5,1.3,1.8,0.7,2.7L278,372.6z"
           class="st14" /></g><g
         id="g303"><path
           id="path305"
           d="M278,386c-0.6,1-1.8,1.3-2.7,0.7l-67.8-39.1c-1-0.6-1.3-1.8-0.7-2.7l0.2-0.4c0.6-1,1.8-1.3,2.7-0.7     l67.8,39.1c1,0.5,1.3,1.8,0.7,2.7L278,386z"
           class="st14" /></g><g
         id="g307"><g
           id="g309"><line
             id="line311"
             y2="320.6"
             x2="252.5"
             y1="336.2"
             x1="279.6"
             class="st7" /><circle
             id="circle313"
             r="2.2"
             cy="317.3"
             cx="247"
             class="st8" /></g><g
           id="g315"><line
             id="line317"
             y2="310.6"
             x2="252.5"
             y1="326.2"
             x1="279.6"
             class="st7" /><circle
             id="circle319"
             r="2.2"
             cy="307.3"
             cx="247"
             class="st8" /></g><g
           id="g321"><line
             id="line323"
             y2="299.5"
             x2="252.5"
             y1="315.1"
             x1="279.6"
             class="st7" /><circle
             id="circle325"
             r="2.2"
             cy="296.2"
             cx="247"
             class="st8" /></g><g
           id="g327"><line
             id="line329"
             y2="296.2"
             x2="210.3"
             y1="311.8"
             x1="237.3"
             class="st7" /><circle
             id="circle331"
             r="2.2"
             cy="292.9"
             cx="204.7"
             class="st8" /></g><g
           id="g333"><line
             id="line335"
             y2="330.6"
             x2="252.5"
             y1="346.2"
             x1="279.6"
             class="st7" /><circle
             id="circle337"
             r="2.2"
             cy="327.3"
             cx="247"
             class="st8" /></g><g
           id="g339"><line
             id="line341"
             y2="306.2"
             x2="210.3"
             y1="321.8"
             x1="237.3"
             class="st7" /><circle
             id="circle343"
             r="2.2"
             cy="302.9"
             cx="204.7"
             class="st8" /></g><g
           id="g345"><line
             id="line347"
             y2="286.2"
             x2="210.3"
             y1="301.8"
             x1="237.3"
             class="st7" /><circle
             id="circle349"
             r="2.2"
             cy="282.8"
             cx="204.7"
             class="st8" /></g><g
           id="g351"><line
             id="line353"
             y2="275.1"
             x2="210.3"
             y1="290.7"
             x1="237.3"
             class="st7" /><circle
             id="circle355"
             r="2.2"
             cy="271.7"
             cx="204.7"
             class="st8" /></g></g><circle
         id="circle357"
         r="3.9"
         cy="260.3"
         cx="207.6"
         class="st9" /><circle
         id="circle359"
         r="3.9"
         cy="266.5"
         cx="218.1"
         class="st10" /><line
         id="line361"
         y2="345.8"
         x2="378.7"
         y1="356.9"
         x1="359.5"
         class="st11" /><line
         id="line363"
         y2="341.4"
         x2="378.7"
         y1="352.5"
         x1="359.5"
         class="st11" /><line
         id="line365"
         y2="336.9"
         x2="378.7"
         y1="348"
         x1="359.5"
         class="st11" /><line
         id="line367"
         y2="332.5"
         x2="378.7"
         y1="343.6"
         x1="359.5"
         class="st11" /><line
         id="line369"
         y2="328"
         x2="378.7"
         y1="339.2"
         x1="359.5"
         class="st11" /></g><g
       id="g371"><polygon
         id="polygon373"
         points="79.2,306.8 175.5,362.4 271.7,306.8 175.5,251.2   "
         class="st12" /><polygon
         id="polygon375"
         points="175.5,473.6 175.5,362.4 271.7,306.8 271.7,418   "
         class="st13" /><polygon
         id="polygon377"
         points="175.4,473.6 175.4,362.4 79.2,306.8 79.2,418   "
         class="st12" /><polyline
         id="polyline379"
         points="79.2,306.8 175.5,362.4 175.5,473.6 175.5,362.4 271.7,306.8   "
         class="st5" /><polygon
         id="polygon381"
         points="79.2,306.8 79.2,418 175.5,473.6 271.7,418 271.7,306.8 175.5,251.2   "
         class="st5" /><g
         id="g383"><path
           id="path385"
           d="M162.4,427.7c-0.6,1-1.8,1.3-2.7,0.7l-67.8-39.1c-1-0.6-1.3-1.8-0.7-2.7l0.2-0.4c0.6-1,1.8-1.3,2.7-0.7     l67.8,39.1c1,0.6,1.3,1.8,0.7,2.7L162.4,427.7z"
           class="st14" /></g><g
         id="g387"><path
           id="path389"
           d="M162.4,441c-0.6,1-1.8,1.3-2.7,0.7l-67.8-39.1c-1-0.5-1.3-1.8-0.7-2.7l0.2-0.4c0.6-1,1.8-1.3,2.7-0.7     l67.8,39.1c1,0.5,1.3,1.8,0.7,2.7L162.4,441z"
           class="st14" /></g><g
         id="g391"><path
           id="path393"
           d="M162.4,454.4c-0.6,1-1.8,1.3-2.7,0.7L91.9,416c-1-0.5-1.3-1.8-0.7-2.7l0.2-0.4c0.6-1,1.8-1.3,2.7-0.7     l67.8,39.1c1,0.5,1.3,1.8,0.7,2.7L162.4,454.4z"
           class="st14" /></g><g
         id="g395"><g
           id="g397"><line
             id="line399"
             y2="389"
             x2="136.9"
             y1="404.6"
             x1="163.9"
             class="st7" /><circle
             id="circle401"
             r="2.2"
             cy="385.7"
             cx="131.4"
             class="st8" /></g><g
           id="g403"><line
             id="line405"
             y2="379"
             x2="136.9"
             y1="394.6"
             x1="163.9"
             class="st7" /><circle
             id="circle407"
             r="2.2"
             cy="375.7"
             cx="131.4"
             class="st8" /></g><g
           id="g409"><line
             id="line411"
             y2="367.9"
             x2="136.9"
             y1="383.5"
             x1="163.9"
             class="st7" /><circle
             id="circle413"
             r="2.2"
             cy="364.6"
             cx="131.4"
             class="st8" /></g><g
           id="g415"><line
             id="line417"
             y2="364.6"
             x2="94.7"
             y1="380.2"
             x1="121.7"
             class="st7" /><circle
             id="circle419"
             r="2.2"
             cy="361.2"
             cx="89.1"
             class="st8" /></g><g
           id="g421"><line
             id="line423"
             y2="399"
             x2="136.9"
             y1="414.6"
             x1="163.9"
             class="st7" /><circle
             id="circle425"
             r="2.2"
             cy="395.7"
             cx="131.4"
             class="st8" /></g><g
           id="g427"><line
             id="line429"
             y2="374.6"
             x2="94.7"
             y1="390.2"
             x1="121.7"
             class="st7" /><circle
             id="circle431"
             r="2.2"
             cy="371.2"
             cx="89.1"
             class="st8" /></g><g
           id="g433"><line
             id="line435"
             y2="354.6"
             x2="94.7"
             y1="370.2"
             x1="121.7"
             class="st7" /><circle
             id="circle437"
             r="2.2"
             cy="351.2"
             cx="89.1"
             class="st8" /></g><g
           id="g439"><line
             id="line441"
             y2="343.4"
             x2="94.7"
             y1="359"
             x1="121.7"
             class="st7" /><circle
             id="circle443"
             r="2.2"
             cy="340.1"
             cx="89.1"
             class="st8" /></g></g><circle
         id="circle445"
         r="3.9"
         cy="328.7"
         cx="92"
         class="st9" /><circle
         id="circle447"
         r="3.9"
         cy="334.8"
         cx="102.4"
         class="st10" /><line
         id="line449"
         y2="414.2"
         x2="263.1"
         y1="425.3"
         x1="243.9"
         class="st11" /><line
         id="line451"
         y2="409.7"
         x2="263.1"
         y1="420.9"
         x1="243.9"
         class="st11" /><line
         id="line453"
         y2="405.3"
         x2="263.1"
         y1="416.4"
         x1="243.9"
         class="st11" /><line
         id="line455"
         y2="400.9"
         x2="263.1"
         y1="412"
         x1="243.9"
         class="st11" /><line
         id="line457"
         y2="396.4"
         x2="263.1"
         y1="407.5"
         x1="243.9"
         class="st11" /></g><g
       id="g459"><polygon
         id="polygon461"
         points="310.4,305.4 406.7,361 503,305.4 406.7,249.9   "
         class="st12" /><polygon
         id="polygon463"
         points="406.7,472.2 406.7,361 503,305.4 503,416.6   "
         class="st13" /><polygon
         id="polygon465"
         points="406.7,472.2 406.7,361 310.4,305.5 310.4,416.6   "
         class="st12" /><polyline
         id="polyline467"
         points="310.4,305.4 406.7,361 406.7,472.2 406.7,361 503,305.4   "
         class="st5" /><polygon
         id="polygon469"
         points="310.4,305.4 310.4,416.6 406.7,472.2 503,416.6 503,305.4 406.7,249.9   "
         class="st5" /><g
         id="g471"><path
           id="path473"
           d="M393.6,426.3c-0.6,1-1.8,1.3-2.7,0.7l-67.8-39.1c-1-0.6-1.3-1.8-0.7-2.7l0.2-0.4c0.6-1,1.8-1.3,2.7-0.7     l67.8,39.1c1,0.5,1.3,1.8,0.7,2.7L393.6,426.3z"
           class="st14" /></g><g
         id="g475"><path
           id="path477"
           d="M393.6,439.6c-0.6,1-1.8,1.3-2.7,0.7l-67.8-39.1c-1-0.5-1.3-1.8-0.7-2.7l0.2-0.4c0.6-1,1.8-1.3,2.7-0.7     l67.8,39.1c1,0.6,1.3,1.8,0.7,2.7L393.6,439.6z"
           class="st14" /></g><g
         id="g479"><path
           id="path481"
           d="M393.6,453c-0.6,1-1.8,1.3-2.7,0.7l-67.8-39.1c-1-0.5-1.3-1.8-0.7-2.7l0.2-0.4c0.6-1,1.8-1.3,2.7-0.7     l67.8,39.1c1,0.5,1.3,1.8,0.7,2.7L393.6,453z"
           class="st14" /></g><g
         id="g483"><g
           id="g485"><line
             id="line487"
             y2="387.7"
             x2="368.2"
             y1="403.3"
             x1="395.2"
             class="st7" /><circle
             id="circle489"
             r="2.2"
             cy="384.3"
             cx="362.6"
             class="st8" /></g><g
           id="g491"><line
             id="line493"
             y2="377.6"
             x2="368.2"
             y1="393.2"
             x1="395.2"
             class="st7" /><circle
             id="circle495"
             r="2.2"
             cy="374.3"
             cx="362.6"
             class="st8" /></g><g
           id="g497"><line
             id="line499"
             y2="366.5"
             x2="368.2"
             y1="382.1"
             x1="395.2"
             class="st7" /><circle
             id="circle501"
             r="2.2"
             cy="363.2"
             cx="362.6"
             class="st8" /></g><g
           id="g503"><line
             id="line505"
             y2="363.2"
             x2="325.9"
             y1="378.8"
             x1="352.9"
             class="st7" /><circle
             id="circle507"
             r="2.2"
             cy="359.9"
             cx="320.3"
             class="st8" /></g><g
           id="g509"><line
             id="line511"
             y2="397.7"
             x2="368.2"
             y1="413.3"
             x1="395.2"
             class="st7" /><circle
             id="circle513"
             r="2.2"
             cy="394.3"
             cx="362.6"
             class="st8" /></g><g
           id="g515"><line
             id="line517"
             y2="373.2"
             x2="325.9"
             y1="388.8"
             x1="352.9"
             class="st7" /><circle
             id="circle519"
             r="2.2"
             cy="369.9"
             cx="320.3"
             class="st8" /></g><g
           id="g521"><line
             id="line523"
             y2="353.2"
             x2="325.9"
             y1="368.8"
             x1="352.9"
             class="st7" /><circle
             id="circle525"
             r="2.2"
             cy="349.9"
             cx="320.3"
             class="st8" /></g><g
           id="g527"><line
             id="line529"
             y2="342.1"
             x2="325.9"
             y1="357.7"
             x1="352.9"
             class="st7" /><circle
             id="circle531"
             r="2.2"
             cy="338.7"
             cx="320.3"
             class="st8" /></g></g><circle
         id="circle533"
         r="3.9"
         cy="327.3"
         cx="323.2"
         class="st9" /><circle
         id="circle535"
         r="3.9"
         cy="333.5"
         cx="333.7"
         class="st10" /><line
         id="line537"
         y2="412.8"
         x2="494.4"
         y1="423.9"
         x1="475.1"
         class="st11" /><line
         id="line539"
         y2="408.4"
         x2="494.4"
         y1="419.5"
         x1="475.1"
         class="st11" /><line
         id="line541"
         y2="403.9"
         x2="494.4"
         y1="415.1"
         x1="475.1"
         class="st11" /><line
         id="line543"
         y2="399.5"
         x2="494.4"
         y1="410.6"
         x1="475.1"
         class="st11" /><line
         id="line545"
         y2="395"
         x2="494.4"
         y1="406.2"
         x1="475.1"
         class="st11" /></g><g
       id="g547"><polygon
         id="polygon549"
         points="194.8,373.8 291.1,429.4 387.3,373.8 291.1,318.2   "
         class="st12" /><polygon
         id="polygon551"
         points="291.1,540.6 291.1,429.4 387.3,373.8 387.3,485   "
         class="st13" /><polygon
         id="polygon553"
         points="291.1,540.6 291.1,429.4 194.8,373.8 194.8,485   "
         class="st12" /><polyline
         id="polyline555"
         points="194.8,373.8 291.1,429.4 291.1,540.6 291.1,429.4 387.3,373.8   "
         class="st5" /><polygon
         id="polygon557"
         points="194.8,373.8 194.8,485 291.1,540.6 387.3,485 387.3,373.8 291.1,318.2   "
         class="st5" /><g
         id="g559"><path
           id="path561"
           d="M278,494.7c-0.6,1-1.8,1.3-2.7,0.7l-67.8-39.1c-1-0.5-1.3-1.8-0.7-2.7l0.2-0.4c0.6-1,1.8-1.3,2.7-0.7     l67.8,39.1c1,0.5,1.3,1.8,0.7,2.7L278,494.7z"
           class="st14" /></g><g
         id="g563"><path
           id="path565"
           d="M278,508c-0.6,1-1.8,1.3-2.7,0.7l-67.8-39.1c-1-0.6-1.3-1.8-0.7-2.7l0.2-0.4c0.6-1,1.8-1.3,2.7-0.7     l67.8,39.1c1,0.6,1.3,1.8,0.7,2.7L278,508z"
           class="st14" /></g><g
         id="g567"><path
           id="path569"
           d="M278,521.4c-0.6,1-1.8,1.3-2.7,0.7L207.5,483c-1-0.5-1.3-1.8-0.7-2.7l0.2-0.4c0.6-1,1.8-1.3,2.7-0.7     l67.8,39.1c1,0.5,1.3,1.8,0.7,2.7L278,521.4z"
           class="st14" /></g><g
         id="g571"><g
           id="g573"><line
             id="line575"
             y2="456"
             x2="252.5"
             y1="471.6"
             x1="279.6"
             class="st7" /><circle
             id="circle577"
             r="2.2"
             cy="452.7"
             cx="247"
             class="st8" /></g><g
           id="g579"><line
             id="line581"
             y2="446"
             x2="252.5"
             y1="461.6"
             x1="279.6"
             class="st7" /><circle
             id="circle583"
             r="2.2"
             cy="442.7"
             cx="247"
             class="st8" /></g><g
           id="g585"><line
             id="line587"
             y2="434.9"
             x2="252.5"
             y1="450.5"
             x1="279.6"
             class="st7" /><circle
             id="circle589"
             r="2.2"
             cy="431.6"
             cx="247"
             class="st8" /></g><g
           id="g591"><line
             id="line593"
             y2="431.6"
             x2="210.3"
             y1="447.2"
             x1="237.3"
             class="st7" /><circle
             id="circle595"
             r="2.2"
             cy="428.2"
             cx="204.7"
             class="st8" /></g><g
           id="g597"><line
             id="line599"
             y2="466"
             x2="252.5"
             y1="481.6"
             x1="279.6"
             class="st7" /><circle
             id="circle601"
             r="2.2"
             cy="462.7"
             cx="247"
             class="st8" /></g><g
           id="g603"><line
             id="line605"
             y2="441.6"
             x2="210.3"
             y1="457.2"
             x1="237.3"
             class="st7" /><circle
             id="circle607"
             r="2.2"
             cy="438.2"
             cx="204.7"
             class="st8" /></g><g
           id="g609"><line
             id="line611"
             y2="421.6"
             x2="210.3"
             y1="437.2"
             x1="237.3"
             class="st7" /><circle
             id="circle613"
             r="2.2"
             cy="418.2"
             cx="204.7"
             class="st8" /></g><g
           id="g615"><line
             id="line617"
             y2="410.5"
             x2="210.3"
             y1="426.1"
             x1="237.3"
             class="st7" /><circle
             id="circle619"
             r="2.2"
             cy="407.1"
             cx="204.7"
             class="st8" /></g></g><circle
         id="circle621"
         r="3.9"
         cy="395.7"
         cx="207.6"
         class="st9" /><circle
         id="circle623"
         r="3.9"
         cy="401.8"
         cx="218.1"
         class="st10" /><line
         id="line625"
         y2="481.2"
         x2="378.8"
         y1="492.3"
         x1="359.5"
         class="st11" /><line
         id="line627"
         y2="476.8"
         x2="378.8"
         y1="487.9"
         x1="359.5"
         class="st11" /><line
         id="line629"
         y2="472.3"
         x2="378.8"
         y1="483.4"
         x1="359.5"
         class="st11" /><line
         id="line631"
         y2="467.9"
         x2="378.8"
         y1="479"
         x1="359.5"
         class="st11" /><line
         id="line633"
         y2="463.4"
         x2="378.8"
         y1="474.5"
         x1="359.5"
         class="st11" /></g><g
       id="g635"><polygon
         id="polygon637"
         points="426,372.5 522.3,428 618.6,372.5 522.3,316.9   "
         class="st12" /><polygon
         id="polygon639"
         points="522.3,539.2 522.3,428 618.6,372.5 618.6,483.6   "
         class="st13" /><polygon
         id="polygon641"
         points="522.3,539.2 522.3,428.1 426,372.5 426,483.6   "
         class="st12" /><polyline
         id="polyline643"
         points="426,372.5 522.3,428 522.3,539.2 522.3,428 618.6,372.5   "
         class="st5" /><polygon
         id="polygon645"
         points="426,372.5 426,483.6 522.3,539.2 618.6,483.6 618.6,372.5 522.3,316.9   "
         class="st5" /><g
         id="g647"><path
           id="path649"
           d="M509.2,493.3c-0.6,1-1.8,1.3-2.7,0.7l-67.8-39.1c-1-0.5-1.3-1.8-0.7-2.7l0.2-0.4c0.6-1,1.8-1.3,2.7-0.7     l67.8,39.1c1,0.5,1.3,1.8,0.7,2.7L509.2,493.3z"
           class="st14" /></g><g
         id="g651"><path
           id="path653"
           d="M509.2,506.7c-0.6,1-1.8,1.3-2.7,0.7l-67.8-39.1c-1-0.6-1.3-1.8-0.7-2.7l0.2-0.4c0.6-1,1.8-1.3,2.7-0.7     l67.8,39.1c1,0.6,1.3,1.8,0.7,2.7L509.2,506.7z"
           class="st14" /></g><g
         id="g655"><path
           id="path657"
           d="M509.2,520c-0.6,1-1.8,1.3-2.7,0.7l-67.8-39.1c-1-0.5-1.3-1.8-0.7-2.7l0.2-0.4c0.6-1,1.8-1.3,2.7-0.7     l67.8,39.1c1,0.5,1.3,1.8,0.7,2.7L509.2,520z"
           class="st14" /></g><g
         id="g659"><g
           id="g661"><line
             id="line663"
             y2="454.7"
             x2="483.8"
             y1="470.3"
             x1="510.8"
             class="st7" /><circle
             id="circle665"
             r="2.2"
             cy="451.3"
             cx="478.2"
             class="st8" /></g><g
           id="g667"><line
             id="line669"
             y2="444.7"
             x2="483.8"
             y1="460.3"
             x1="510.8"
             class="st7" /><circle
             id="circle671"
             r="2.2"
             cy="441.3"
             cx="478.2"
             class="st8" /></g><g
           id="g673"><line
             id="line675"
             y2="433.5"
             x2="483.8"
             y1="449.1"
             x1="510.8"
             class="st7" /><circle
             id="circle677"
             r="2.2"
             cy="430.2"
             cx="478.2"
             class="st8" /></g><g
           id="g679"><line
             id="line681"
             y2="430.2"
             x2="441.5"
             y1="445.8"
             x1="468.5"
             class="st7" /><circle
             id="circle683"
             r="2.2"
             cy="426.9"
             cx="436"
             class="st8" /></g><g
           id="g685"><line
             id="line687"
             y2="464.7"
             x2="483.8"
             y1="480.3"
             x1="510.8"
             class="st7" /><circle
             id="circle689"
             r="2.2"
             cy="461.3"
             cx="478.2"
             class="st8" /></g><g
           id="g691"><line
             id="line693"
             y2="440.2"
             x2="441.5"
             y1="455.8"
             x1="468.5"
             class="st7" /><circle
             id="circle695"
             r="2.2"
             cy="436.9"
             cx="436"
             class="st8" /></g><g
           id="g697"><line
             id="line699"
             y2="420.2"
             x2="441.5"
             y1="435.8"
             x1="468.5"
             class="st7" /><circle
             id="circle701"
             r="2.2"
             cy="416.9"
             cx="436"
             class="st8" /></g><g
           id="g703"><line
             id="line705"
             y2="409.1"
             x2="441.5"
             y1="424.7"
             x1="468.5"
             class="st7" /><circle
             id="circle707"
             r="2.2"
             cy="405.8"
             cx="436"
             class="st8" /></g></g><circle
         id="circle709"
         r="3.9"
         cy="394.3"
         cx="438.8"
         class="st9" /><circle
         id="circle711"
         r="3.9"
         cy="400.5"
         cx="449.3"
         class="st10" /><line
         id="line713"
         y2="479.8"
         x2="610"
         y1="491"
         x1="590.7"
         class="st11" /><line
         id="line715"
         y2="475.4"
         x2="610"
         y1="486.5"
         x1="590.7"
         class="st11" /><line
         id="line717"
         y2="470.9"
         x2="610"
         y1="482.1"
         x1="590.7"
         class="st11" /><line
         id="line719"
         y2="466.5"
         x2="610"
         y1="477.6"
         x1="590.7"
         class="st11" /><line
         id="line721"
         y2="462.1"
         x2="610"
         y1="473.2"
         x1="590.7"
         class="st11" /></g><g
       id="g723"><polygon
         id="polygon725"
         points="310.4,440.8 406.7,496.4 503,440.8 406.7,385.2   "
         class="st12" /><polygon
         id="polygon727"
         points="406.7,607.6 406.7,496.4 503,440.8 503,552   "
         class="st13" /><polygon
         id="polygon729"
         points="406.7,607.6 406.7,496.4 310.4,440.8 310.4,552   "
         class="st12" /><polyline
         id="polyline731"
         points="310.4,440.8 406.7,496.4 406.7,607.6 406.7,496.4 503,440.8   "
         class="st5" /><polygon
         id="polygon733"
         points="310.4,440.8 310.4,552 406.7,607.6 503,552 503,440.8 406.7,385.2   "
         class="st5" /><g
         id="g735"><path
           id="path737"
           d="M393.6,561.7c-0.6,1-1.8,1.3-2.7,0.7l-67.8-39.1c-1-0.6-1.3-1.8-0.7-2.7l0.2-0.4c0.6-1,1.8-1.3,2.7-0.7     l67.8,39.1c1,0.5,1.3,1.8,0.7,2.7L393.6,561.7z"
           class="st14" /></g><g
         id="g739"><path
           id="path741"
           d="M393.6,575c-0.6,1-1.8,1.3-2.7,0.7l-67.8-39.1c-1-0.5-1.3-1.8-0.7-2.7l0.2-0.4c0.6-1,1.8-1.3,2.7-0.7     l67.8,39.1c1,0.5,1.3,1.8,0.7,2.7L393.6,575z"
           class="st14" /></g><g
         id="g743"><path
           id="path745"
           d="M393.6,588.4c-0.6,1-1.8,1.3-2.7,0.7L323.1,550c-1-0.5-1.3-1.8-0.7-2.7l0.2-0.4c0.6-1,1.8-1.3,2.7-0.7     l67.8,39.1c1,0.5,1.3,1.8,0.7,2.7L393.6,588.4z"
           class="st14" /></g><g
         id="g747"><g
           id="g749"><line
             id="line751"
             y2="523"
             x2="368.2"
             y1="538.6"
             x1="395.2"
             class="st7" /><circle
             id="circle753"
             r="2.2"
             cy="519.7"
             cx="362.6"
             class="st8" /></g><g
           id="g755"><line
             id="line757"
             y2="513"
             x2="368.2"
             y1="528.6"
             x1="395.2"
             class="st7" /><circle
             id="circle759"
             r="2.2"
             cy="509.7"
             cx="362.6"
             class="st8" /></g><g
           id="g761"><line
             id="line763"
             y2="501.9"
             x2="368.2"
             y1="517.5"
             x1="395.2"
             class="st7" /><circle
             id="circle765"
             r="2.2"
             cy="498.6"
             cx="362.6"
             class="st8" /></g><g
           id="g767"><line
             id="line769"
             y2="498.6"
             x2="325.9"
             y1="514.2"
             x1="352.9"
             class="st7" /><circle
             id="circle771"
             r="2.2"
             cy="495.2"
             cx="320.3"
             class="st8" /></g><g
           id="g773"><line
             id="line775"
             y2="533"
             x2="368.2"
             y1="548.6"
             x1="395.2"
             class="st7" /><circle
             id="circle777"
             r="2.2"
             cy="529.7"
             cx="362.6"
             class="st8" /></g><g
           id="g779"><line
             id="line781"
             y2="508.6"
             x2="325.9"
             y1="524.2"
             x1="352.9"
             class="st7" /><circle
             id="circle783"
             r="2.2"
             cy="505.3"
             cx="320.3"
             class="st8" /></g><g
           id="g785"><line
             id="line787"
             y2="488.6"
             x2="325.9"
             y1="504.2"
             x1="352.9"
             class="st7" /><circle
             id="circle789"
             r="2.2"
             cy="485.2"
             cx="320.3"
             class="st8" /></g><g
           id="g791"><line
             id="line793"
             y2="477.5"
             x2="325.9"
             y1="493.1"
             x1="352.9"
             class="st7" /><circle
             id="circle795"
             r="2.2"
             cy="474.1"
             cx="320.3"
             class="st8" /></g></g><circle
         id="circle797"
         r="3.9"
         cy="462.7"
         cx="323.2"
         class="st9" /><circle
         id="circle799"
         r="3.9"
         cy="468.8"
         cx="333.7"
         class="st10" /><line
         id="line801"
         y2="548.2"
         x2="494.4"
         y1="559.3"
         x1="475.1"
         class="st11" /><line
         id="line803"
         y2="543.8"
         x2="494.4"
         y1="554.9"
         x1="475.1"
         class="st11" /><line
         id="line805"
         y2="539.3"
         x2="494.4"
         y1="550.4"
         x1="475.1"
         class="st11" /><line
         id="line807"
         y2="534.9"
         x2="494.4"
         y1="546"
         x1="475.1"
         class="st11" /><line
         id="line809"
         y2="530.4"
         x2="494.4"
         y1="541.5"
         x1="475.1"
         class="st11" /></g></g><line
     style="stroke:#2e4153;stroke-opacity:1"
     id="line811"
     y2="418.7"
     x2="791.6"
     y1="641"
     x1="406.6"
     class="st2" /><line
     style="stroke:#2e4153;stroke-opacity:1"
     id="line813"
     y2="418.7"
     x2="21.6"
     y1="641"
     x1="406.6"
     class="st1" /><line
     style="stroke:#2e4153;stroke-opacity:1"
     id="line815"
     y2="15.3"
     x2="406.6"
     y1="237.5"
     x1="791.6"
     class="st1" /><line
     style="stroke:#2e4153;stroke-opacity:1"
     id="line817"
     y2="15.3"
     x2="406.6"
     y1="237.5"
     x1="21.6"
     class="st2" /><line
     style="stroke:#2e4153;stroke-opacity:1"
     id="line819"
     y2="237.5"
     x2="791.6"
     y1="418.7"
     x1="791.6"
     class="st1" /><line
     style="stroke:#2e4153;stroke-opacity:1"
     id="line821"
     y2="237.5"
     x2="21.6"
     y1="418.7"
     x1="21.6"
     class="st1" /><line
     style="stroke:#2e4153;stroke-opacity:1"
     id="line823"
     y2="459.8"
     x2="406.6"
     y1="641"
     x1="406.6"
     class="st1" /><line
     style="stroke:#2e4153;stroke-opacity:1"
     id="line825"
     y2="237.5"
     x2="791.6"
     y1="459.8"
     x1="406.6"
     class="st2" /><line
     style="stroke:#2e4153;stroke-opacity:1"
     id="line827"
     y2="237.6"
     x2="21.6"
     y1="459.8"
     x1="406.6"
     class="st1" /><polyline
     style="fill:#2e4153;fill-opacity:1;opacity:0.4"
     id="polyline829"
     points="21.6,237.6 406.6,459.8 406.6,459.8 791.6,237.5 406.6,15.3 21.6,237.5 "
     class="st0" /><polyline
     style="fill:#2e4153;fill-opacity:1;opacity:0.4"
     id="polyline831"
     points="406.6,641 791.6,418.7 791.6,237.5 791.6,237.5 406.6,459.8 406.6,459.8 406.6,641 "
     class="st0" /><polyline
     style="fill:#2e4153;fill-opacity:1;opacity:0.4"
     id="polyline833"
     points="21.6,237.5 21.6,418.7 21.6,418.7 406.6,641 406.6,459.8 406.6,459.8 21.6,237.6 "
     class="st0" /></svg>